<?xml version="1.0" standalone="no"?>
<?xml-stylesheet type="text/css" href="svg.css"?>
<svg version="1.1" id="Layer_1" xlink:href="svg.js" xmlns="http://www.w3.org/2000/svg" xmlns:xlink="http://www.w3.org/1999/xlink" x="0px" y="0px"
	 viewBox="0 0 100 100" enable-background="new 0 0 100 100" xml:space="preserve">
	<script xlink:href="https://ajax.googleapis.com/ajax/libs/jquery/3.3.1/jquery.min.js"> </script>
	<script type="text/JavaScript" xlink:href="svg.js" />
	<g>
	<defs>
		<rect id="SVGID_1_" width="100" height="100"/>
	</defs>
	<path id="nine" clip-path="url(#SVGID_2_)" fill="#FFFFFF" d="M22,50.2c0-0.8-0.7-1.5-1.5-1.5c-0.8,0-1.5,0.7-1.5,1.5c0,2.9,0.4,5.7,1.2,8.4
		c0.2,0.7,0.8,1.1,1.4,1.1c0.1,0,0.3,0,0.4-0.1c0.8-0.2,1.2-1.1,1-1.9C22.4,55.3,22,52.8,22,50.2"/>
	<path id="two" clip-path="url(#SVGID_2_)" fill="#FFFFFF" d="M60,25.6c2.3,1.1,4.5,2.4,6.5,4.1c0.3,0.2,0.6,0.4,1,0.4c0.4,0,0.8-0.2,1.1-0.5
		c0.5-0.6,0.5-1.6-0.2-2.1c-2.2-1.9-4.6-3.4-7.2-4.6c-0.8-0.3-1.6,0-2,0.7C58.9,24.4,59.3,25.3,60,25.6"/>
	<path id="eleven" clip-path="url(#SVGID_2_)" fill="#FFFFFF" d="M30.3,30.2c0.3,0,0.7-0.1,1-0.4c1.9-1.7,4.1-3.1,6.4-4.2c0.8-0.3,1.1-1.2,0.7-2
		c-0.3-0.8-1.2-1.1-2-0.7c-2.6,1.2-5,2.7-7.1,4.6c-0.6,0.5-0.7,1.5-0.1,2.1C29.4,30,29.9,30.2,30.3,30.2"/>
	<path id="seven" clip-path="url(#SVGID_2_)" fill="#FFFFFF" d="M45.1,76.8c-2.5-0.4-5-1.1-7.3-2.1c-0.8-0.3-1.6,0-2,0.7c-0.3,0.8,0,1.6,0.7,2
		c2.6,1.2,5.3,2,8.2,2.4h0.2c0.7,0,1.4-0.5,1.5-1.3C46.5,77.7,45.9,76.9,45.1,76.8"/>
	<path id="ten" clip-path="url(#SVGID_2_)" fill="#FFFFFF" d="M21.2,43.6c0.1,0,0.3,0.1,0.4,0.1c0.7,0,1.2-0.4,1.4-1.1c0.7-2.5,1.8-4.8,3.2-7
		c0.4-0.7,0.2-1.6-0.5-2.1C25,33,24.1,33.3,23.6,34c-1.5,2.4-2.7,5-3.5,7.7C20,42.6,20.4,43.4,21.2,43.6z"/>
	<path id="four" clip-path="url(#SVGID_2_)" fill="#FFFFFF" d="M77.3,48.5c-0.8,0-1.5,0.7-1.5,1.5v0.1c0,2.6-0.4,5.1-1.1,7.6
		c-0.2,0.8,0.2,1.6,1,1.9c0.1,0,0.3,0.1,0.4,0.1c0.6,0,1.2-0.4,1.4-1.1c0.8-2.7,1.2-5.6,1.2-8.4v-0.1C78.8,49.2,78.2,48.5,77.3,48.5
		"/>
	<path id="six" clip-path="url(#SVGID_2_)" fill="#FFFFFF" d="M60.1,74.6c-2.3,1.1-4.8,1.8-7.3,2.2c-0.8,0.1-1.4,0.9-1.3,1.7
		c0.1,0.7,0.7,1.3,1.5,1.3h0.2c2.8-0.4,5.6-1.2,8.2-2.4c0.8-0.3,1.1-1.2,0.7-2C61.8,74.6,60.9,74.3,60.1,74.6"/>
	<path id="three" clip-path="url(#SVGID_2_)" fill="#FFFFFF" d="M79.9,34.6c-0.8-0.3-1.6,0.2-1.9,1l-1.2,3.8c-0.7-1.9-1.7-3.7-2.8-5.5
		c-0.5-0.7-1.4-0.9-2.1-0.4c-0.7,0.5-0.9,1.4-0.4,2.1c1.1,1.7,2,3.5,2.7,5.4l-3.5-1.1c-0.8-0.3-1.6,0.2-1.9,1
		c-0.3,0.8,0.2,1.6,1,1.9l6.9,2.2c0.1,0,0.3,0.1,0.5,0.1c0.2,0,0.5-0.1,0.7-0.2c0.4-0.2,0.6-0.5,0.7-0.9l2.4-7.4
		C81.2,35.7,80.7,34.8,79.9,34.6L79.9,34.6z"/>
	<path id="one" clip-path="url(#SVGID_2_)" fill="#FFFFFF" d="M45.2,21.9L45.2,21.9L45.2,21.9c0-0.2-0.3-1.3,0.7-2c0.8,0.2,2,0.2,3.6-0.5
		c3.1-1.3,3.4,2.5,3.4,2.5H53c0.3,0,0.7,0.3,0.3,1.5c-0.3,1-0.5,1.2-0.7,1.2c-0.2,1.2-1.1,2.6-2.5,3.1c-0.3,0.1-0.6,0.2-0.9,0.2
		c-0.3,0-0.6-0.1-0.9-0.2c-1.4-0.5-2.4-2-2.5-3.1c-0.2,0-0.5-0.3-0.7-1.2C44.6,22.1,44.9,21.9,45.2,21.9L45.2,21.9z M44,23.6
		c0.1,0.4,0.3,1.1,0.8,1.6c0.4,1.3,1.4,2.8,3.1,3.4c0.4,0.1,0.8,0.2,1.2,0.2c0.4,0,0.8-0.1,1.2-0.2c1.7-0.6,2.7-2.1,3.1-3.4
		c0.5-0.4,0.7-1.2,0.8-1.6c0.2-0.6,0.4-1.5-0.1-2.2c0,0,0,0-0.1-0.1c0-0.2,0.1-0.4,0.1-0.6c0.6-3.7-1.5-4-1.7-4c0,0,0,0,0,0
		c-0.2-1-1.6-2-2.9-1.7c-1.3,0.3-4,0-4,0c0,0.6,0.5,1,0.5,1c-2.3,1.4-1.9,4.4-1.6,5.4c0,0,0,0-0.1,0.1C43.7,22.1,43.8,23,44,23.6"/>
	<path id="one" clip-path="url(#SVGID_2_)" fill="#FFFFFF" d="M53.1,27.8c-0.6,0.7-1.4,1.4-2.4,1.7c-0.5,0.2-1,0.3-1.5,0.3s-1.1-0.1-1.6-0.3
		c-1-0.4-1.8-1-2.4-1.7c-0.9,0.5-2.3,1.3-3.9,2.4c1.8,2.5,4.6,4,7.9,4s6.1-1.6,7.9-4C55.4,29.1,54,28.3,53.1,27.8"/>
	<path id="five" clip-path="url(#SVGID_2_)" fill="#FFFFFF" d="M72.2,63c-3.9,0-7,2.5-7,5.7c0,1.8,1.1,3.3,2.7,4.3l-1.3,3.2l4-2.2
		c0.5,0.1,1.1,0.3,1.6,0.3c3.9,0,7-2.5,7-5.7C79.2,65.5,76.1,63,72.2,63L72.2,63z"/>
	<path id="eight" clip-path="url(#SVGID_2_)" fill="#FFFFFF" d="M28.8,76.2c0-0.5-0.3-1-0.8-1.2c-0.5-0.2-1.1-0.1-1.5,0.3
		c-0.4,0.4-0.5,1-0.3,1.5c0.2,0.5,0.7,0.8,1.2,0.8c0.4,0,0.7-0.1,1-0.4C28.7,76.9,28.8,76.5,28.8,76.2 M32.1,66.5
		c0,1-0.3,1.9-0.8,2.8S29.9,70.7,29,71c0,0-0.1,0-0.1,0.1v1.1c0,0.7-0.6,1.3-1.3,1.3c-0.7,0-1.3-0.6-1.3-1.3v-1.1
		c0-0.6,0.2-1.2,0.5-1.6c0.3-0.5,0.8-0.8,1.4-1c0.8-0.3,1.3-1,1.3-1.9c-0.1-1-0.9-1.8-1.9-1.8c-0.7,0-1.4,0.4-1.7,1.1
		c-0.3,0.7-1.1,0.9-1.8,0.6c-0.7-0.3-0.9-1.1-0.6-1.8c0.4-0.8,0.9-1.4,1.7-1.9c0.7-0.5,1.6-0.7,2.4-0.7h0c1.2,0,2.3,0.5,3.2,1.3
		C31.5,64.2,32,65.3,32.1,66.5z"/>
</g>
</svg>