<?xml version="1.0" standalone="no"?>
<?xml-stylesheet type="text/css" href="svg.css"?>
<!DOCTYPE svg PUBLIC "-//W3C//DTD SVG 1.1//EN" "http://www.w3.org/Graphics/SVG/1.1/DTD/svg11.dtd">
<svg version="1.1" id="Layer_1" xmlns="http://www.w3.org/2000/svg" xmlns:xlink="http://www.w3.org/1999/xlink" x="0px" y="0px"
	 viewBox="376.8 -9.4 337.9 564.5" enable-background="new 376.8 -9.4 337.9 564.5" xml:space="preserve">
<g id="smoke">
	<path fill="#FFFFFF" d="M563,350.6c-9,19-6.3,46.4,13.5,56.9c19.4,9.9,39.7,3.6,49.6-14.9c0,0.4-0.4,0.4-0.4,0.9
		c-9.9,19-30.2,25.7-50.1,15.8c-19.9-10.3-22.6-38.3-13.1-57.8C562.5,351,562.5,351,563,350.6L563,350.6z M583.3,321.2
		c0.4,0,0.4,0,0.9,0c-14,4-22.6,17.1-19,29.8c3.1,12.6,17.1,19.9,31.1,16.2c0,0-0.4,0-0.9,0c-14.4,3.6-28.4-3.6-32-16.2
		C559.8,338.4,568.8,325.3,583.3,321.2L583.3,321.2z M634.7,365.9c18.1-9.4,25.7-31.6,16.7-50.1c0,0.4,0.4,0.4,0.4,0.9
		c9.4,18.5,2.2,41.5-16.2,51c-18.5,9.4-41.5,2.2-51-16.2c0-0.4-0.4-0.4-0.4-0.9C594.1,368.2,616.7,375,634.7,365.9L634.7,365.9z
		 M587.8,311.4c0,0,0-0.4,0.4-0.4c-4.5,12.1,1.3,25.7,13.5,30.7c12.1,4.9,25.7-0.9,31.1-13.1v0.4c-4.9,12.1-19,18.5-31.1,13.5
		C588.7,337.5,582.9,323.5,587.8,311.4L587.8,311.4z M605.4,279.3c-1.8-2.2-3.1-5.8-3.6-8.5c-0.9-8.1,5.8-17.1,16.2-18.1h0.4
		c-10.3,1.3-16.2,9.9-15.3,17.6c0.4,2.7,2.2,5.8,4,7.6l0,0c3.6,4,9,6.3,15.8,5.8C616.3,284.7,609,283.4,605.4,279.3
		c-9.9,3.6-16.2,12.1-14.4,20.3c2.2,8.5,12.6,13.1,23.5,10.3H614c-11.2,2.7-22.1-1.8-24.4-10.3C587.8,291.5,594.6,282.5,605.4,279.3
		L605.4,279.3z M639.2,263c1.3,5.4-0.4,14.9-7.2,17.1c6.7-2.2,8.1-12.1,6.7-17.1c-1.3-4.9-9.9-10.3-17.1-9.9
		C628.8,252.2,637.4,257.6,639.2,263L639.2,263z M644.7,307.3c-6.3,9.4-21.7,14-31.1,7.6c9.4,5.8,23.9,0.9,30.2-8.1
		c6.3-9.4,4-22.1-5.4-28.9c0,0,0.4,0,0.4,0.4C648.3,284.7,651,297.8,644.7,307.3L644.7,307.3z M655,415.1
		c-17.6,17.6-46.4,17.1-64.1-0.4c-0.4-0.4-0.4-0.4-0.9-0.9c17.6,17.1,45.5,16.7,63.2-0.4c17.6-17.1,18.1-45.1,1.3-63.2
		c0.4,0.4,0.4,0.4,0.9,0.9C673.1,369.1,672.6,397.5,655,415.1L655,415.1z M563.9,402.9c6.7,7.6,15.8,12.1,25.3,13.5
		c18.5,19.9,47.3,20.3,66.8,2.7c20.3-18.1,23.5-48.7,1.8-71.7c-0.4-0.4-0.4-0.4,0,0c4-11.2,2.7-30.2-9-38.3c0.4,0,0.4,0.4-0.4,0
		c6.3-15.3,2.7-26.2-8.5-33.8c1.3-4.5,4-11.2-1.8-18.1c-5.8-7.2-22.1-9.4-31.6-1.3c-8.5,7.2-7.2,16.2-4.9,21.7
		c-8.1,4.5-18.5,11.2-14,27.1c-3.6,4-4.5,8.1-4.9,13.5c-4.5,0.9-9,3.1-13.1,6.3c-8.1,7.2-10.8,17.6-8.5,27.5
		C549.9,366.8,550.8,388.5,563.9,402.9L563.9,402.9z"/>
</g>
<g id="robot_stroke">
	<g id="bbadge_1_">
		<g id="Clip-8_4_">
		</g>
		<g id="Clip-8_3_">
		</g>
	</g>
	<path fill="none" stroke="#FFFFFF" stroke-width="15" stroke-miterlimit="10" d="M705,228.8c0.1-0.4,0.1-0.9,0.1-1.4
		c0-6.2-5.1-11.2-11.2-11.2c-0.6,0-1.2,0.1-1.7,0.1l-5.2-11.3c3.1-3,5.1-7.2,5.1-11.8c0-2.6-0.6-5.2-1.8-7.4c1.4-3.1,1-2.4,1.3-3
		c2.2-5.4-0.9-12.6-5.8-15.8c-4.2-2.9-9.3-1.7-12.8,0.4c-0.2-1.7-0.4-3.5-0.6-5.2c1.9-1,3-1.5,3.1-1.5l-3.1-4.9c0,0-0.2,0.1-0.6,0.3
		c-0.6-5.2-1.1-10.6-1.7-16.2c-0.9-9.3-2.5-17.4-4.5-24.6c2.1-1.9,3.3-5.3,3.1-9.2c-0.2-3.4-1.5-6.4-3.4-8.2l-0.3-4.8l-2.6,0.2
		l-1.2-16.8c0.8-0.6,1.3-1.5,1.3-2.6c0-1.7-1.4-3.1-3.1-3.1c-1.7,0-3.1,1.4-3.1,3.1c0,1.1,0.6,2.1,1.4,2.6l1.2,16.9l-2,0.1
		c-16.6-29.1-41.7-31-41.7-31c-21.9-1.5-36.1,11.3-45.3,30.7l-2.4-0.1l0.6-16.5c1.1-0.5,1.9-1.6,1.9-2.9c0-1.7-1.4-3.1-3.1-3.1
		c-1.7,0-3.1,1.4-3.1,3.1c0,1,0.5,1.9,1.2,2.5l-0.6,16.7l-2.6-0.1l-0.2,5c-1.8,1.8-3.1,4.7-3.2,8c-0.3,4.2,1.2,7.8,3.6,9.7
		c-3.1,11.9-5.1,24.7-6.3,37.5c-0.1-0.1,0.1,0.1,0,0l-0.6,6.7c0.9,0.5-0.8-1,0.1-0.5c-0.3,3.3-0.5,6.7-0.6,10
		c-0.7-0.3-1.3-0.7-2-1.1l-0.4,0.9c0.6,0.3,1.1,0.6,1.6,0.9c-5.3,2.7-8.8,8.1-8.8,14.4c0,1.2,0.1,2.4,0.4,3.6l-11.5,5.3
		c-1.4-1-3-1.7-4.7-1.9c-1.4-2-3.4-3.7-5.8-4.7l-27.6-11.3c-3.1-1-6.3-0.9-9.2,0.1l-8.9-5.9c-1.3-0.9-3.6-0.4-4.5,0.9
		s-0.4,3.6,0.9,4.5l6.6,4.4c-0.3,0.4-0.7,0.9-1,1.4l-1-0.3c-1.8-0.4-4,0.4-4.5,2.2c-0.5,1.8,0.4,4,2.2,4.5l0.6,0.2
		c-0.1,0.2-0.1,0.5-0.1,0.7h-0.1c-2.2,0-3.6,1.8-3.6,3.6c0,2.2,1.8,3.6,3.6,3.6h1.1c1.3,3,3.7,5.5,7,6.7l27.5,11.2
		c3.6,1.5,7.5,1.2,10.7-0.3c1.3,0.5,2.7,0.8,4.2,0.8c6.2,0,11.2-5.1,11.2-11.2c0-0.5-0.1-0.9-0.1-1.4l11.2-5.1
		c1.2,1.2,2.8,2.4,4.4,3.1c0.1,4,0.1,7.8,0.3,11.4c-0.8-0.4,0.8,0.4,0,0l0.1,1.1c0.9,0.5-0.9-0.5,0,0c0.6,15.4,1.7,25.6,1.7,25.6
		s0.7,6.7,8.2,13.8c0.5,4.1,0.8,6.5,0.8,6.5s3.6,25.3,56.9,23c20-0.8,32.4-5.1,39.4-12.9c0.1-0.1,0.2-0.1,0.3-0.1
		c1.8-1.8,3.1-4,4-6.3c0-0.1,0-0.2,0.1-0.3c0.1-0.2,0.1-0.3,0.3-0.6c0-0.1,0.1-0.1,0.1-0.1c1-2.4,1.9-5.1,2.4-8
		c7.3-8.7,9.4-21.2,9-37.8c0.8-0.4,1.3-0.7,1.3-0.7l-0.4-0.9c0,0-0.3,0.2-0.9,0.5c-0.1-1.4-0.1-2.8-0.1-4.2c0.6-0.1,1.2-0.1,1.9-0.3
		l5.6,12.1c-0.9,1.3-1.5,2.9-1.7,4.6c-2,1.8-3.5,4.2-4.2,7.1l-6.3,28.9c-0.6,3.1-0.1,6,1.2,8.5l-4.3,9.9c-0.9,1.8,0,3.6,1.8,4.5
		c0.4,0.4,0.9,0.4,1.3,0.4c0.9,0,2.2-0.4,3.1-2.2l3.1-7c0.3,0.2,0.7,0.4,1.1,0.6l-1.5,9.1c-0.4,2.2,0.9,3.6,2.7,4h0.4
		c1.8,0,3.1-0.9,3.6-2.7l1.4-8.7c0.4,0.1,0.8,0.1,1.2,0.1l1.4,8.6c0,1.3,1.3,2.7,3.1,2.7c0.4,0,0.4,0,0.9,0c1.8-0.4,3.1-2.2,2.7-4
		l-1.5-9c3.1-1.7,5.4-4.8,6.4-8.7l6.3-28.9C707.8,235.3,707,231.7,705,228.8z"/>
</g>
<g id="bL_Arm">
	
		<rect x="541.1" y="177.7" transform="matrix(0.4175 0.9087 -0.9087 0.4175 493.0248 -383.4409)" fill="#0E5588" width="9" height="30.2"/>
	<circle fill="#2F91CF" cx="560.7" cy="184.6" r="16.2"/>
	<path opacity="0.4" fill="#FFFFFF" enable-background="new    " d="M560.7,195.4L560.7,195.4c-0.4,0-0.9,0-1.3,0
		c-2.7-0.4-5.4-1.8-7.2-4c-1.8-2.2-2.7-4.9-2.2-8.1c0.9-5.8,5.8-9.9,12.1-9.4c5.8,0.9,9.9,6.3,9.4,12.1
		C571.1,191.3,566.1,195.4,560.7,195.4z M560.7,176c-4.5,0-8.1,3.1-8.5,7.6c-0.4,4.5,2.7,9,7.2,9.4s9-2.7,9.4-7.2s-2.7-9-7.2-9.4
		C561.6,176,561.2,176,560.7,176z"/>
	<circle fill="#0E5588" cx="526.9" cy="202.6" r="11.2"/>
	<path fill="#2F91CF" d="M485,181.9c-0.4,0-1.3,0-1.8-0.4l-9.4-6.3c-1.3-0.9-1.8-3.1-0.9-4.5c0.9-1.3,3.1-1.8,4.5-0.9l9.4,6.3
		c1.3,0.9,1.8,3.1,0.9,4.5C487.2,181,485.9,181.9,485,181.9z"/>
	<path fill="#2F91CF" d="M487.7,190.9c-0.4,0-0.9,0-0.9,0l-10.8-3.6c-1.8-0.4-2.7-2.7-2.2-4.5c0.4-1.8,2.7-2.7,4.5-2.2l10.8,3.6
		c1.8,0.4,2.7,2.7,2.2,4.5C490.4,190,489,190.9,487.7,190.9z"/>
	<path fill="#2F91CF" d="M487.7,195.4L487.7,195.4h-11.2c-1.8,0-3.6-1.3-3.6-3.6c0-1.8,1.3-3.6,3.6-3.6l0,0h11.2
		c1.8,0,3.6,1.3,3.6,3.6C491.3,193.6,489.9,195.4,487.7,195.4z"/>
	<path fill="#2F91CF" d="M478.2,182.8l-0.9,2.2c-2.7,6.7,0.4,14.4,7.2,17.1l27.5,11.2c6.7,2.7,14.4-0.4,17.1-7.2l0.9-2.2
		c2.7-6.7-0.4-14.4-7.2-17.1l-27.5-11.2C488.6,173.3,480.9,176.5,478.2,182.8z"/>
</g>
<g id="girl_stroke">
	<path fill="none" stroke="#FFFFFF" stroke-width="15" stroke-miterlimit="10" d="M510.9,90.9l0.2,3.1c0-1,0-2,0-3.1
		C511.1,90.9,511,90.9,510.9,90.9z"/>
	<path fill="none" stroke="#FFFFFF" stroke-width="15" stroke-miterlimit="10" d="M517.3,86.8c-1.6,1.3-3.3,2.5-5.1,3.5
		C514.1,89.4,515.9,88.2,517.3,86.8z"/>
	<path fill="none" stroke="#FFFFFF" stroke-width="15" stroke-miterlimit="10" d="M612.2,169.2c-0.4-4.5-2.2-9-5.4-12.1
		c-1.3-1.3-2.7-2.7-4-3.6l-61.4-39.4c-1.4-1.3-4-3.1-7.1-4l-5.3-1.5c2.2-9,0.1-17.5-11.5-21.9c6.7-5.6,11.7-14,14-23.9
		c4.2,0.1,8-4.1,8.7-9.7c0.6-3.9-0.6-7.6-2.6-9.7c3.7-7.8,2.5-14.9-0.3-20.8C533.7,15,525.5,10.9,521,9.1c-0.4,0-0.9-0.4-1.3-0.9
		c-3.6-8.1-22.1-14.4-38.3-6.3c-17.1,9-32.5,25.3-31.6,51.4c0.9,20.8,20.8,30.7,28.9,33.8c-3.1-2.7-6.3-5.4-8.5-9
		c-0.3-0.6-0.5-1-0.7-1.6c5,7.8,11.7,13.5,19.4,16l0.8,10.3c-0.1-0.1-0.1-0.3-0.1-0.4c-0.3,0-0.6,0-0.9,0l0,0c0-0.4-0.4-0.9-0.9-1.3
		s-1.3-0.4-1.8,0c-0.9,0.4-1.3,0.4-2.2,0.9c-0.9,0.5-1.3,0.9-2.2,1.3c-0.2,0.1-0.4,0.3-0.7,0.6l-14.2,2.2c-3.1,0.4-5.8,1.8-7.6,3.1
		c-0.2,0.1-0.4,0.3-0.6,0.5c-0.6,0.2-1.1,0.5-1.7,0.8l-62.8,39.9c-1.3,0.9-2.7,2.2-4,3.6c-3.1,3.1-4.9,7.6-5.4,12.1
		c-0.4,6.3,1.8,13.1,6.7,17.1l45.1,41c0.4,0.4,0.9,0.4,1.3,0l0.4-0.5l1.2,1.1c0.3,3.5,2.3,7.2,5.8,9.8c-0.8,2.4-1.5,4.9-1.7,7.6
		c0,2.7-0.4,4.9-0.4,7.6c1.6,0.1,3.2,0.1,4.7,0.2c0,5.9,0.4,11.4,2,16.3l10.5,251.9c0,0.9,0.9,1.3,1.8,1.3h0.5l0.1,3.6
		c-2.5,1.5-4.8,3.5-6.9,5.8c-1.8,1.8-3.6,4-4.9,6.7c-0.9,1.8-2.2,3.6-3.1,5.4c-0.4,1.3-0.4,2.7,0,4c0.9,1.3,2.2,1.8,3.6,1.8h26.6
		c3.6,0,6.3-2.7,6.3-6.3c0.9-2.2,0.4-5.4,0-8.1c-0.4-2-1-4-1.9-5.7l-0.3-7.2c0.1,0.3,0.5,0.2,0.9-0.1c0.4-0.4,0.4-0.9,0.4-1.3
		L473.5,286c4.3,1,9.2,1.8,15.1,2.2c9.8,0.6,17.4,0,23.4-1.7l48.7,232.7c0,0.4,0.4,0.9,0.9,0.9c0.3,0.3,0.8,0.4,1.1,0.2l1.8,8.6
		c-0.5,1.2-0.8,2.5-1.1,3.8c-0.4,2.7-0.4,5.8-0.4,8.5c0,3.6,3.1,6.3,6.3,6.3h26.6c1.3,0,2.7-0.9,3.6-1.8c0.9-1.3,0.9-3.1,0.4-4.5
		c-0.9-1.8-1.8-3.6-3.1-5.4c-1.3-2.2-3.1-4.5-4.9-6.7c-2.6-2.9-5.6-5.3-8.9-6.9l-1.5-7l0.4-0.1c0.9,0,1.3-0.9,1.3-1.8L531.6,268
		c1.3-3.8,2.1-8.1,2.6-12.6c1.2,0.1,2.6,0.3,3.9,0.3c0.4-2.2,0.4-4.9,0.4-7.6c1.3-18.5-16.2-28-16.2-52.3c0-10.3,1.8-19,5.8-26.6
		c3.1-5.8,4.9-13.1,5.4-19.9c0-1.3,0-3.1,0.4-4.5c0.4-3.1,0.4-6.3,0.4-9c0.2-1.7,0.7-3.1,1.4-4.2l57.2,36.7l0.4,0.4
		c0.4,0.4,0.9,1.3,0.9,1.8c0,0.9-0.4,1.8-0.9,2.7l11.7,13.1C610.4,182.3,612.7,175.6,612.2,169.2z M466.5,191.8
		c-1.2,9-4.5,15.6-8.3,21.5c-3.1-0.6-7.1-0.7-10.5,0.2l-0.3-0.3l0.6-0.6c0.4-0.4,0.4-0.9,0-1.3l-45.1-41c-0.4-0.9-0.9-1.8-0.9-2.7
		c0-0.4,0.4-1.3,0.9-1.8l0.4-0.4l58.5-37c0.2,0.9,0.3,1.8,0.1,2.8c-0.4,2.7-0.4,5.8-0.4,9c0,1.3,0,3.1-0.4,4.5
		c0,6.7,0.9,13.5,3.1,20.3C466.9,172.9,467.8,181.4,466.5,191.8z M511.2,94l-0.2-3.1c0.1,0,0.1-0.1,0.2-0.1
		C511.2,91.9,511.2,92.9,511.2,94z M512.3,90.2c1.8-1,3.5-2.2,5.1-3.5C515.9,88.2,514.1,89.4,512.3,90.2z"/>
</g>
<g id="bPerson_1_">
	<g>
		<path fill="#FFA898" d="M472.3,540.1c-4.9,0-9.4-4-9.4-9.4l-11.2-272.4c-0.4-5.4,4-9.9,9.4-9.9c5.4-0.4,9.9,4,9.9,9.4l11.2,272.4
			C482.3,535.1,477.8,539.6,472.3,540.1L472.3,540.1z"/>
	</g>
	<path fill="#412139" d="M484.1,532.8L484.1,532.8c-1.3-6.3-4.5-12.1-12.1-12.1c-6.3,0-11.7,3.6-16.2,8.5c-1.8,1.8-3.6,4-4.9,6.7
		c-0.9,1.8-2.2,3.6-3.1,5.4l0,0c-0.4,1.3-0.4,2.7,0,4c0.9,1.3,2.2,1.8,3.6,1.8h26.6c3.6,0,6.3-2.7,6.3-6.3l0,0
		C485,538.7,484.5,535.5,484.1,532.8z"/>
	<path fill="#504062" d="M482.7,519.7c0.4-0.4,0.4-0.9,0.4-1.3l-10.8-261.2c-0.4-6.3-5.4-10.8-11.2-10.8h-0.4
		c-3.1,0-5.8,1.3-8.1,3.6c-2.3,2.3-3.1,4.9-3.1,8.1l10.8,260.3c0,0.9,0.9,1.3,1.8,1.3h19.9C481.8,520.2,482.3,520.2,482.7,519.7z"/>
	<g>
		<path fill="#FFA898" d="M576.6,537.3L576.6,537.3c-5.8,1.3-10.8-2.2-11.7-7.2l-56-267.5c-0.9-5.4,2.2-10.3,7.6-11.2
			c5.4-0.9,10.3,2.2,11.2,7.6l56,267C584.7,531,581.5,536,576.6,537.3z"/>
	</g>
	<path fill="#504062" d="M516.1,249.5h-0.4c-5.8,1.3-9.4,7.2-8.5,13.5l53.7,256.2c0,0.4,0.4,0.9,0.9,0.9c0.4,0.4,0.9,0.4,1.3,0
		l19-4.9c0.9,0,1.3-0.9,1.3-1.8l-53.7-254.9C528.3,252.2,522.4,248.2,516.1,249.5z"/>
	<path fill="#412139" d="M600,541.4L600,541.4c-0.9-1.8-1.8-3.6-3.1-5.4c-1.3-2.2-3.1-4.5-4.9-6.7c-4.5-4.9-9.9-8.5-16.2-8.5
		c-7.6,0-10.8,5.8-12.1,12.1l0,0c-0.4,2.7-0.4,5.8-0.4,8.5l0,0c0,3.6,3.1,6.3,6.3,6.3h26.6c1.3,0,2.7-0.9,3.6-1.8
		C600.4,544.6,600.4,542.8,600,541.4z"/>
	<path fill="#FFA898" d="M526,219.8c-3.1-7.6-4.5-16.2-4.5-24.4c0-9.4,1.3-19,5.8-27.5c2.7-5.8,4.9-12.1,5.4-19.4
		c0.4-4.9,0.9-9.9,0.9-14.4c0-3.1,1.8-5.8,4.9-7.2c0.9-0.4,1.8-0.9,2.2-1.8c2.7-2.7,2.7-7.2-0.4-9.9c-1.3-1.3-3.6-3.1-6.3-3.6
		c-36.1-10.3-34.7-9-66.8-4.5c-2.7,0.4-5.4,1.8-6.7,2.7c-3.1,2.2-4,6.7-1.8,9.9c0.4,0.9,1.3,1.3,2.2,1.8c2.7,1.8,4,4.5,4,7.6
		c-0.4,4.5-0.4,9.4-0.9,14.4c-0.4,7.2,0.4,13.5,2.7,19.9c3.1,9,3.6,18.5,2.2,28c-0.9,8.1-3.6,16.2-7.6,23.9
		c-4.9,8.5-9.9,16.7-10.8,26.6c-1.3,23-0.4,41.9,38.8,44.2c39.2,2.7,42.8-15.8,44.2-38.8C533.7,237.4,529.6,229.2,526,219.8z"/>
	<g>
		<path fill="#FFA898" d="M502.1,124.1c-6.3,0.4-11.2-4-11.7-10.3l-2.2-31.6c-0.4-6.3,4-11.2,10.3-11.7c6.3-0.4,11.2,4,11.7,10.3
			l2.2,31.6C513,118.7,508.4,123.7,502.1,124.1z"/>
	</g>
	<path fill="#504062" d="M532.3,237.4l-80.7-5.4c-0.9,0-1.8,0.4-1.8,1.3c-0.9,2.7-1.3,5.4-1.8,8.5c-1.3,23.9,0.4,43.7,40.6,46.4
		c40.2,2.7,44.6-16.7,46.4-40.6c0-3.1,0-5.8-0.4-8.5C534.1,238.3,533.2,237.4,532.3,237.4z"/>
	<path fill="#E9E6EC" d="M539.1,128.6c0.9-0.4,1.8-0.9,2.7-1.8c3.1-3.6,3.1-9-0.4-12.6c-1.3-1.3-4-3.1-7.2-4l-19-5.4l0,0
		c-0.9,0-1.8-0.4-2.2-0.4c-1.3,3.6-3.6,6.7-5.4,9.4c-2.2,2.7-4.5,4.9-7.2,7.2c-4.5-4.9-8.5-10.8-10.8-18.5c-0.9,0-1.8,0-2.2,0.4l0,0
		l-20.8,3.1c-3.1,0.4-5.8,1.8-7.6,3.1c-1.8,1.3-3.1,3.6-3.6,5.8c-0.4,2.2,0,4.5,1.3,6.7c0.4,0.9,1.3,1.8,2.2,2.2
		c2.2,1.3,3.6,4,3.1,6.7c-0.4,2.7-0.4,5.8-0.4,9c0,1.3,0,3.1-0.4,4.5c0,6.7,0.9,13.5,3.1,20.3c2.7,8.1,3.6,16.7,2.2,27.1
		c-3.1,23.9-21.7,32-23,50.5c0,2.7-0.4,4.9-0.4,7.6c39.2,2.2,48.7-14.9,48.7-14.9l0,0c0,0,7.6,17.6,46.4,20.8
		c0.4-2.2,0.4-4.9,0.4-7.6c1.3-18.5-16.2-28-16.2-52.3c0-10.3,1.8-19,5.8-26.6c3.1-5.8,4.9-13.1,5.4-19.9c0-1.3,0-3.1,0.4-4.5
		c0.4-3.1,0.4-6.3,0.4-9C535,132.2,536.8,130,539.1,128.6z"/>
	<path fill="#E9E6EC" d="M612.2,169.2c-0.4-4.5-2.2-9-5.4-12.1c-1.3-1.3-2.7-2.7-4-3.6L540,113.4c-4-2.7-9.4-1.3-12.1,2.7
		c-1.8,3.6-1.8,8.1,0.9,10.8c0.4,0.4,0.9,0.9,1.8,1.3l62.7,40.1l0.4,0.4c0.4,0.4,0.9,1.3,0.9,1.8c0,0.9-0.4,1.8-0.9,2.7l11.7,13.1
		C610.4,182.3,612.7,175.6,612.2,169.2z"/>
	<g>
		<g>
			<path fill="#FFA898" d="M391.1,155.2c-2.7,3.1-4.5,7.2-4.9,11.2c-0.4,5.8,1.8,11.7,6.3,15.8l55.1,50.1c2.7,2.7,7.2,2.2,9.9-0.4
				c2.7-2.7,2.2-7.2-0.4-9.9L402,171.4c-0.9-0.9-1.8-2.7-1.3-4c0-1.3,0.9-2.7,2.2-3.6l62.7-40.1c3.1-2.2,4-6.3,2.2-9.9
				c-2.2-3.1-6.3-4-9.9-2.2l-63.2,40.6C393.4,153,392,153.9,391.1,155.2z"/>
		</g>
		<path fill="#FFA898" d="M461.1,241.9c0.4-0.4,0.4-0.9,0.4-1.3v-0.4h0.4c1.3,0.4,2.7-0.4,3.1-1.3c0.4-0.9,0.4-1.8,0.4-2.2V236h0.4
			c1.3,0.4,2.7-0.4,3.6-1.8c0.4-1.3,0.4-2.7-0.4-4v-0.4c0,0,0-0.4,0.4-0.4c0.9,0,1.3-0.4,1.8-1.3c0.9-1.3,0.4-3.1-0.9-4
			c0,0-2.7-1.3-3.6-2.2c0,0-0.4-0.4,0-0.4c1.3-2.7-1.8-5.8-6.3-7.2c-5.8-1.8-17.1-1.8-20.3,4.9c-2.7,5.4-0.4,13.1,6.7,17.1
			c1.3,0.9-0.9-0.4,11.2,6.3C459.3,243.7,460.6,243.2,461.1,241.9z"/>
		<path fill="#E9E6EC" d="M384.4,166.1c0.4-4.5,2.2-9,5.4-12.1c1.3-1.3,2.7-2.7,4-3.6l62.7-39.7c4-2.7,9.4-1.3,12.1,2.7
			c2.2,3.1,1.8,7.6-0.9,10.8c-0.4,0.4-0.9,0.9-1.8,1.3l-62.6,39.7l-0.4,0.4c-0.4,0.4-0.9,1.3-0.9,1.8c0,0.9,0.4,1.8,0.9,2.7l45.1,41
			c0.4,0.4,0.4,0.9,0,1.3l-10.3,11.7c-0.4,0.4-0.9,0.4-1.3,0l-45.1-41C386.2,179.2,384,172.4,384.4,166.1z"/>
	</g>
	<path fill="#FFFFFF" d="M513,114.7c0.9,0.4,1.8,0.9,2.7,1.3c3.1,1.8,6.3,4.5,9,7.2c2.7,2.7,5.4,5.4,7.6,9.4
		c-1.3-7.2-3.6-13.1-5.8-17.6c-2.2-4-4.5-7.2-7.2-9.4c-0.4-0.4-1.3-0.9-1.8-1.3c-0.5-0.4-1.3-0.9-1.8-1.3c-0.4-0.4-0.9-0.4-1.8,0
		c-0.4,0-0.9,0.4-1.3,0.9l0,0c-3.1,7.6-7.6,12.6-13.1,17.1c4-1.8,5.8-2.2,10.3-6.3C510.7,114.2,512.1,114.2,513,114.7z"/>
	<path fill="#FFFFFF" d="M473.2,112c-3.1,4.5-5.8,9.9-8.1,16.7c3.1-3.1,6.3-5.8,9-8.1c3.1-2.7,6.7-4.5,9.9-5.8
		c0.9-0.4,1.8-0.9,2.7-1.3c0.9-0.4,2.2,0,3.1,0.4c4,4,5.8,5.4,9.4,7.2c-4.9-4.9-8.5-10.8-10.8-18.5c0-0.4-0.4-0.9-0.9-1.3
		c-0.4-0.4-1.3-0.4-1.8,0c-0.9,0.4-1.3,0.4-2.2,0.9c-0.9,0.4-1.3,0.9-2.2,1.3C479.1,105.2,476,107.9,473.2,112z"/>
	<g>
		<g>
			
				<ellipse transform="matrix(0.9902 0.14 -0.14 0.9902 12.5346 -73.9872)" fill="#F48989" cx="532.2" cy="52.1" rx="8.1" ry="10.8"/>
			
				<ellipse transform="matrix(0.9626 -0.2711 0.2711 0.9626 1.8945 127.5529)" fill="#F48989" cx="462.7" cy="56.9" rx="8.1" ry="10.8"/>
			<path fill="#FFA898" d="M532.8,45.7c-1.3-25.3-9.4-45.1-38.8-43.3c-29.4,1.8-34.7,23-32.9,48.3c1.8,25.3,19,44.6,38.8,43.3
				C520.2,92.5,534.6,70.9,532.8,45.7z"/>
			<g>
				<path fill="#F8918C" d="M522.4,70c-1.3,0-2.7-0.4-3.1-1.8c-0.4-0.4-2.2-0.9-3.1-1.3c-1.8,0-3.6-1.8-3.6-3.6
					c0-1.8,1.8-3.6,3.6-3.6c0.4,0,6.3,0.4,9,4.5c0.9,1.8,0.4,4-0.9,4.9C523.3,69.5,522.9,70,522.4,70z"/>
			</g>
			<path fill="#D63E39" d="M513.4,70c-0.9-0.4-1.8-0.4-2.2,0.4c0,0-3.1,4-11.7,4.5l0,0l0,0c-8.5,0.4-12.1-2.7-12.6-3.1
				c-0.4-0.9-1.8-0.9-2.2,0c-0.9,0.4-0.9,1.8,0,2.7c0,0,4.5,4.9,15.3,4l0,0l0,0c10.3-0.9,14.4-5.8,14.4-5.8
				C514.3,71.8,513.9,70.5,513.4,70z"/>
			<g>
				<path fill="#F8918C" d="M475.1,73.2c-0.4,0-1.3,0-1.8-0.4c-1.8-0.9-2.7-3.1-1.8-4.9c2.2-4.5,7.6-5.4,8.1-5.4
					c1.8-0.4,3.6,0.9,4,3.1c0.4,1.8-0.9,3.6-2.7,4c-1.3,0-2.7,0.9-3.1,1.3C477.3,72.3,476.4,72.7,475.1,73.2z"/>
			</g>
			<g>
				<path fill="#3B0E19" d="M524.7,39.3c-4.5-3.6-13.1-1.8-13.5-1.8c-0.4,0-0.9,0.9-0.9,1.3s0.9,0.9,1.3,0.9c0,0,7.6-1.3,11.2,1.3
					c0.4,0,0.4,0.4,0.9,0.4s0.4,0,0.9-0.4C525.1,40.2,525.1,39.8,524.7,39.3z"/>
			</g>
			<g>
				<path fill="#3B0E19" d="M481.4,41.6c0.4,0,1.3-0.4,1.3-0.9c0-0.4-0.4-1.3-0.9-1.3s-8.5-0.4-13.1,3.6c-0.4,0.4-0.4,1.3,0,1.8
					c0.4,0.4,0.4,0.4,0.9,0.4s0.4,0,0.9-0.4C473.2,41.2,480.9,41.6,481.4,41.6z"/>
			</g>
			<path fill="#532442" d="M473.7,55.1c0-0.9,1.3-1.8,2.7-2.2c1.8,0,3.1,0.9,3.1,1.8s0.4,1.3,1.3,1.3c0.9,0,1.3-0.4,1.3-1.3
				c0-2.7-2.7-4.5-5.8-4c-3.1,0-5.4,2.2-5.4,4.9c0,0.9,0.4,1.3,1.3,1.3C472.8,56.5,473.7,56,473.7,55.1z"/>
			<path fill="#532442" d="M517.9,47.9c-3.1,0-5.4,2.2-5.4,4.9c0,0.9,0.4,1.3,1.3,1.3c0.9,0,1.3-0.4,1.3-1.3s1.3-1.8,2.7-2.2
				c1.8,0,3.1,0.9,3.1,1.8c0,0.9,0.4,1.3,1.3,1.3c0.9,0,1.3-0.4,1.3-1.3C523.8,49.7,521.1,47.5,517.9,47.9z"/>
		</g>
		<g>
			<path fill="#3B0E19" d="M517.5,86.7c-1.8,1.8-4,3.1-6.3,4c0.4,7.6-1.8,14-2.2,14.9c-3.6,8.1-5.4,26.2,12.1,32
				c0,0-1.8-8.1,4.5-20.3C531.4,105.6,532.8,92.5,517.5,86.7z"/>
			<path fill="#3B0E19" d="M537.3,22.6c-3.6-7.6-11.7-11.7-16.2-13.5c-0.4,0-0.9-0.4-1.3-0.9c-3.6-8.1-22.1-14.4-38.3-6.3
				c-17.1,9-32.5,25.3-31.6,51.4c0.9,20.8,20.8,30.7,28.9,33.8c-3.1-2.7-6.3-5.4-8.5-9c-5.8-12.6-4.9-26.6,18.5-37
				c17.6-7.6,27.1-14,30.7-21.2c4,2.7,10.8,9,13.1,21.7l0,0c0.4,2.7,0.9,5.4,0.9,8.5C541.8,39.8,540.9,30.3,537.3,22.6z"/>
		</g>
	</g>
</g>
<g id="bjet">
	<path fill="#2F91CF" d="M667.2,218.4c5.8,40.1,0.4,60.5-45.5,62.3c-53.3,2.2-56.9-23-56.9-23s-2.2-15.8-3.1-37
		C559.8,176.5,665.4,204.9,667.2,218.4z"/>
	<path opacity="0.25" fill="#0E5588" enable-background="new    " d="M665.8,259.9c0,0.4-0.4,0.9-0.4,1.3c-0.9,2.2-2.2,4.5-4,6.3
		c-14.4,6.7-34.3,10.3-55.1,8.5c-13.1-1.3-24.8-4-35.2-8.5c-3.1-3.1-4.5-5.8-4.9-8.1c11.7,5.4,25.7,9.4,41,10.8
		C629.3,272.6,650.5,268.5,665.8,259.9z"/>
</g>
<g id="bbody">
	<path fill="#0E5588" d="M614.9,62.8c0,0,47.8,3.6,55.1,77.1c8.1,84.8,23.9,126.8-48.7,126.8c-62.3,0.4-65.4-29.3-65.4-29.3
		S536.4,57.4,614.9,62.8z"/>
</g>
<g id="bL_Antenna">
	<g>
		
			<rect x="564.4" y="74.1" transform="matrix(0.9992 3.908629e-002 -3.908629e-002 0.9992 3.8117 -22.0558)" fill="#62A9CC" width="3.1" height="24.8"/>
		<g>
			<circle fill="#62A9CC" cx="566.6" cy="74.1" r="3.1"/>
		</g>
	</g>
	
		<ellipse transform="matrix(-0.9983 -5.852349e-002 5.852349e-002 -0.9983 1123.3307 246.0127)" fill="#2F91CF" cx="565.3" cy="106.6" rx="7.2" ry="10.3"/>
	
		<rect x="561.3" y="93.3" transform="matrix(-0.9993 -3.848666e-002 3.848666e-002 -0.9993 1126.907 219.1169)" fill="#2F91CF" width="8.5" height="10.8"/>
	<path opacity="0.4" fill="#FFFFFF" enable-background="new    " d="M563,112L563,112c-2.2,0-4-2.7-4-5.8c0-3.1,2.2-5.4,4.5-5.4l0,0
		c2.2,0,4,2.7,3.6,5.8C567,109.7,565.2,112,563,112z M563.4,101.6c-1.8,0-3.1,1.8-3.1,4.5s0.9,4.5,2.7,4.9l0,0
		c1.8,0,3.1-1.8,3.1-4.5C566.6,103.8,565.2,101.6,563.4,101.6L563.4,101.6z"/>
</g>
<g id="bface">
	<circle fill="#FFFFFF" cx="633.8" cy="138.6" r="6.3"/>
	<circle fill="none" stroke="#FFFFFF" stroke-width="0.5" stroke-miterlimit="10" cx="633.8" cy="138.6" r="13.5"/>
	<circle fill="none" stroke="#FFFFFF" stroke-width="0.5" stroke-miterlimit="10" cx="588.7" cy="139.5" r="13.5"/>
	<circle fill="#FFFFFF" cx="588.7" cy="139.5" r="6.3"/>
	<path fill="#FFFFFF" d="M575.7,139.5c0-7.6,6.3-13.5,13.5-13.5c1.3,0,2.2,0,3.6,0.4c-2.2-0.9-4.5-1.8-6.7-1.8
		c-8.1,0-14.9,6.7-14.9,14.9c0,8.1,6.7,14.9,14.9,14.9c2.2,0,4.5-0.4,6.7-1.8c-0.9,0.4-2.2,0.4-3.1,0.4
		C582,153,575.7,147.2,575.7,139.5z"/>
	<path fill="#FFFFFF" d="M646.5,138.6c0-7.6-6.3-13.5-13.5-13.5c-1.3,0-2.2,0-3.6,0.4c2.2-0.9,4.5-1.8,6.7-1.8
		c8.1,0,14.9,6.7,14.9,14.9c0,8.1-6.7,14.9-14.9,14.9c-2.2,0-4.5-0.4-6.7-1.8c0.9,0.4,2.2,0.4,3.1,0.4
		C640.6,152.6,646.5,146.3,646.5,138.6z"/>
</g>
<g id="bR_Arm">
	
		<rect x="668.4" y="203.9" transform="matrix(0.4175 0.9087 -0.9087 0.4175 587.5377 -499.6677)" fill="#0E5588" width="30.2" height="9"/>
	<circle fill="#2F91CF" cx="675.8" cy="193.1" r="16.2"/>
	<path opacity="0.4" fill="#FFFFFF" enable-background="new    " d="M675.8,204L675.8,204c-0.4,0-0.9,0-1.3,0
		c-5.8-0.9-9.9-6.3-9.4-12.1c0.9-5.8,5.8-9.9,12.1-9.4c5.8,0.9,9.9,6.3,9.4,12.1C685.7,199.9,681.2,204,675.8,204z M675.8,184.6
		c-4.5,0-8.1,3.1-8.5,7.6s2.7,9,7.2,9.4c4.5,0.4,9-2.7,9.4-7.2s-2.7-9-7.2-9.4C676.3,184.6,676.3,184.6,675.8,184.6z"/>
	<circle fill="#0E5588" cx="693.8" cy="227.4" r="11.2"/>
	<path fill="#2F91CF" d="M672.2,285.2c-0.4,0-0.9,0-1.3-0.4c-1.8-0.9-2.7-2.7-1.8-4.5l4.5-10.3c0.9-1.8,2.7-2.7,4.5-1.8
		c1.8,0.9,2.7,2.7,1.8,4.5l-4.5,10.3C674.4,284.7,673.1,285.2,672.2,285.2z"/>
	<path fill="#2F91CF" d="M681.2,289.7h-0.4c-1.8-0.4-3.1-1.8-2.7-4l1.8-11.2c0.4-1.8,1.8-3.1,4-2.7c1.8,0.4,3.1,1.8,2.7,4l-1.8,11.2
		C684.4,288.8,683,289.7,681.2,289.7z"/>
	<path fill="#2F91CF" d="M692,289.7c-1.8,0-3.1-1.3-3.1-2.7l-1.8-11.2c-0.4-1.8,0.9-3.6,2.7-4c1.8-0.4,3.6,0.9,4,2.7l1.8,11.2
		c0.4,1.8-0.9,3.6-2.7,4C692.5,289.7,692.5,289.7,692,289.7z"/>
	<path fill="#2F91CF" d="M682.1,277.5l2.7,0.4c7.2,1.8,14-2.7,15.8-9.9l6.3-28.9c1.8-7.2-2.7-14-9.9-15.8l-2.7-0.4
		c-7.2-1.8-14,2.7-15.8,9.9l-6.3,28.9C670.8,268.9,675.4,275.7,682.1,277.5z"/>
	<path opacity="0.4" fill="#FFFFFF" enable-background="new    " d="M688,268L688,268c-0.9,0-1.3,0-2.2-0.4
		c-2.7-0.4-4.5-2.2-6.3-4.5c-1.3-2.2-1.8-4.9-1.3-7.2l3.6-15.8c0.9-4.5,4.9-7.6,9.4-7.6c0.9,0,1.3,0,2.2,0.4
		c2.7,0.4,4.5,2.2,6.3,4.5c1.3,2.2,1.8,4.9,1.3,7.2l-3.6,15.8C696.5,264.8,692.5,268,688,268z M691.6,235.1c-3.6,0-6.7,2.2-7.2,5.8
		l-3.6,15.8c-0.4,1.8,0,4,0.9,5.8s2.7,2.7,4.5,3.1c4,0.9,8.1-1.8,9-5.8l3.6-15.8c0.4-1.8,0-4-0.9-5.8s-2.7-2.7-4.5-3.1
		C692.5,235.1,692,235.1,691.6,235.1z"/>
</g>
<g id="bR_Antenna">
	<g>
		
			<rect x="647.5" y="84.8" transform="matrix(7.433937e-002 0.9972 -0.9972 7.433937e-002 697.2022 -577.9411)" fill="#62A9CC" width="24.8" height="3.6"/>
		<g>
			<circle fill="#62A9CC" cx="659.1" cy="74.1" r="3.1"/>
		</g>
	</g>
	
		<ellipse transform="matrix(-0.9985 5.433401e-002 -5.433401e-002 -0.9985 1327.5309 177.0327)" fill="#2F91CF" cx="661.4" cy="106.6" rx="7.2" ry="10.3"/>
	
		<rect x="656.7" y="93.5" transform="matrix(-0.9972 7.435383e-002 -7.435383e-002 -0.9972 1327.3971 148.406)" fill="#2F91CF" width="8.5" height="10.8"/>
	<path opacity="0.4" fill="#FFFFFF" enable-background="new    " d="M663.1,112.4c-2.2,0-4-2.2-4.5-5.4c0-1.3,0.4-3.1,0.9-4
		c0.9-1.3,1.8-1.8,2.7-1.8l0,0c2.2,0,4,2.2,4.5,5.4c0,1.3-0.4,3.1-0.9,4C665.8,111.5,664.5,112,663.1,112.4L663.1,112.4z M663.1,102
		c-0.9,0-1.8,0.4-2.2,1.3c-0.4,0.9-0.9,2.2-0.9,3.6c0,2.2,1.3,4.5,3.1,4.5v0.4v-0.4c0.9,0,1.3-0.4,1.8-1.3c0.4-0.9,0.9-2.2,0.9-3.6
		C665.8,103.8,664.5,102,663.1,102z"/>
</g>
<g id="bHand">
	<path fill="#FFA898" d="M685.7,192.2c-0.4-0.4-0.9-0.4-0.9-0.9c0,0,0,0-0.4-0.4H684c-0.4,0.4-1.8,0.4-3.1,0
		c-0.4-0.4-1.3-0.9-1.3-1.8c0,0,0-0.4-0.4-0.4h-0.6c-0.9,0.9-2.2,0.9-3.1,0c-1.3-0.9-2.2-1.8-1.8-3.1v-0.4h-0.4
		c-0.4,0-1.3,0-2.2-0.4c-1.3-0.9-2.2-2.2-1.8-3.6c0,0,0.9-1.8,0.9-2.7c0,0,0-0.4-0.4-0.4c-2.7-1.8-2.2-4.9,0-7.6
		c2.7-3.1,10.3-7.2,16.2-3.1c4.9,3.1,8.1,10.3,5.8,15.8c-0.4,0.9,0.4-0.9-4,9C688,193.1,687.1,193.1,685.7,192.2z"/>
</g>
<g id="bLines">
	<path opacity="0.61" fill="#FFFFFF" d="M616.3,175.1c-19,0-41-4-64.1-17.1l2.7-4.9c62.7,35.2,116.8,3.1,117.3,2.7l3.1,4.9
		C674.9,160.6,651,175.1,616.3,175.1z"/>
	<path opacity="0.61" fill="#FFFFFF" d="M616.3,186.4c-19,0-41-4-64.5-17.1l0.4-0.9c65.4,36.1,121.4,3.6,121.8,3.1l0.4,0.9
		C674,172.9,650.5,186.4,616.3,186.4z"/>
	<path opacity="0.61" fill="#FFFFFF" d="M619,227.4c-19.9,0-42.8-4-67.7-17.1l0.4-0.9c67.7,36.5,125.9,4,126.3,3.6l0.4,0.9
		C678.5,213.9,654.6,227.4,619,227.4z"/>
</g>
<g id="bbadge">
	<circle fill="#07548A" cx="610.4" cy="222" r="17.1"/>
	<g>
		<g id="Group-9_2_" transform="translate(177.222222, 0.488889)">
			<g id="Clip-8_2_">
			</g>
			<defs>
				<filter id="Adobe_OpacityMaskFilter" filterUnits="userSpaceOnUse" x="420.6" y="205.7" width="27.1" height="14.4">
					<feColorMatrix  type="matrix" values="1 0 0 0 0  0 1 0 0 0  0 0 1 0 0  0 0 0 1 0"/>
				</filter>
			</defs>
			<mask maskUnits="userSpaceOnUse" x="420.6" y="205.7" width="27.1" height="14.4" id="mask-2_2_">
				<g filter="url(#Adobe_OpacityMaskFilter)">
					<polygon id="path-1_2_" fill="#FFFFFF" points="447.7,205.7 420.6,205.7 420.6,220.1 447.7,220.1 					"/>
				</g>
			</mask>
			<polygon id="Fill-7_2_" mask="url(#mask-2_2_)" fill="#2F91CF" points="431.9,220.1 420.6,218.3 447.7,205.7 			"/>
		</g>
		<polygon id="Fill-10_2_" fill="#2F91CF" points="610.9,222.5 613.1,234.2 625.7,206.7 		"/>
		<polygon id="Fill-12_2_" fill="#5E9E21" points="609,222.5 606.8,222.5 593.7,237.8 605.9,227.9 609.5,225.2 		"/>
		<polygon id="Fill-14_2_" fill="#5E9E21" points="605.9,222 603.6,222 595.9,234.2 		"/>
		<polygon id="Fill-16_2_" fill="#5E9E21" points="610,225.6 610,228.3 597.7,236 		"/>
	</g>
	<g id="Clip-8_1_">
	</g>
</g>
</svg>
