<?xml version="1.0" standalone="no"?>
<?xml-stylesheet type="text/css" href="svg.css"?>
<!DOCTYPE svg PUBLIC "-//W3C//DTD SVG 1.1//EN" "http://www.w3.org/Graphics/SVG/1.1/DTD/svg11.dtd">
<svg version="1.1" id="Layer_1" xmlns="http://www.w3.org/2000/svg" xmlns:xlink="http://www.w3.org/1999/xlink" x="0px" y="0px"
	 viewBox="0 0 612 792" enable-background="new 0 0 612 792" xml:space="preserve">
<g id="girls">
	<g id="kurri">
		<g>
			<path fill="none" d="M612,605.3c0,83.2-68,151.5-151.5,151.5S309,688.7,309,605.3c0-52.8,27.3-99.3,68-126.6
				c11.2-24.9,50.4-63.2,81-63.2c31.3,0,79.3,32.8,85.7,64.1C585.5,506,612,552.4,612,605.3z"/>
			<g id="Bg_cicle_1_">
				<g>
					<g>
						<g>
							<circle fill="#2F91CF" cx="460.5" cy="605.3" r="151.5"/>
						</g>
					</g>
					<defs>
						<filter id="Adobe_OpacityMaskFilter" filterUnits="userSpaceOnUse" x="309" y="453.8" width="303" height="303">
							
								<feColorMatrix  type="matrix" values="-1 0 0 0 1  0 -1 0 0 1  0 0 -1 0 1  0 0 0 1 0" color-interpolation-filters="sRGB" result="source"/>
						</filter>
					</defs>
					<mask maskUnits="userSpaceOnUse" x="309" y="453.8" width="303" height="303" id="SVGID_1_">
						<g filter="url(#Adobe_OpacityMaskFilter)">
							<image overflow="visible" width="307" height="308" xlink:href="C1786E48.jpg"  transform="matrix(1 0 0 1 307 451)">
							</image>
						</g>
					</mask>
					<g opacity="0.35" mask="url(#SVGID_1_)">
						<g>
							<circle cx="460.5" cy="605.3" r="151.5"/>
						</g>
					</g>
				</g>
			</g>
		</g>
		<g>
			<g>
				<g>
					<g>
						<g>
							<defs>
								<path id="SVGID_2_" d="M612,605.3c0,83.2-68,151.5-151.5,151.5S309,688.7,309,605.3c0-44.1,19-83.8,49-111.6
									c5.9-5.4,1.5-19.5,8.3-23.9c11.2-24.9,61.3-54.4,91.7-54.4c31.3,0,79.3,32.8,85.7,64.1C585.5,506,612,552.4,612,605.3z"/>
							</defs>
							<clipPath id="SVGID_4_">
								<use xlink:href="#SVGID_2_"  overflow="visible"/>
							</clipPath>
							<g clip-path="url(#SVGID_4_)">
								<path fill="#FFA898" d="M512.6,882.3c-6.4-16.1-9.7-33.2-9.7-50.4c0.1-19.9,3.1-38.6,12.3-56.4c5.9-11.6,9.8-25,10.7-39.5
									c0.7-10.3,1.5-20.1,1.8-29.3c0.1-6.4,4-12.1,9.9-14.7c1.8-0.9,3.5-1.9,4.8-3.4c5.4-5.9,5-15-0.7-20.5
									c-2.9-2.6-7.6-6.2-13.4-7.6c-74.3-21.2-71.3-18.7-137.2-8.9c-6,0.6-11.1,3.5-14.3,5.8c-6.5,4.5-8.1,13.6-3.4,20.1
									c1.2,1.6,2.6,3,4.4,4c5.4,3.3,8.6,9.5,7.9,15.8c-1,9.2-1.4,19.1-2,29.3c-1,14.5,1.1,28.3,5.5,40.6
									c6.8,18.8,7.4,37.7,4.8,57.6c-2.1,17.1-7.7,33.8-16.2,48.8c-9.9,17.6-20.6,33.9-22,54.4c-3.1,47.3-0.7,86,80.1,91.4
									c80.7,5.3,88.2-32.7,91.4-80.1C528.6,918.6,520.1,901,512.6,882.3z"/>
								<g>
									<path fill="#FFA898" d="M463.8,685.6c-12.6,0.9-23.4-8.7-24.3-21.2l-4.4-64.6c-0.9-12.6,8.7-23.4,21.2-24.3
										c12.6-0.9,23.4,8.7,24.3,21.2l4.4,64.6C485.8,673.9,476.4,684.7,463.8,685.6z"/>
								</g>
								<path fill="#E9E6EC" d="M539.8,694.9c1.9-1,3.8-2.3,5.3-4c6.9-7.4,6.4-18.8-0.9-25.6c-3.1-3-8.4-6.9-15-8.3l-39.1-11.1
									c-0.1,0-0.2,0-0.4-0.1c-1.5-0.4-3.3-0.7-4.9-1.1c-3,7.5-7,14-11.4,19.6c-4.5,5.7-9.7,10.5-15.1,15.1
									c-9.7-10.4-17.7-22.1-22-37.7c-1.6,0.1-3.4,0.2-5,0.5c-0.1,0-0.2,0-0.5,0l-40.1,5.9c-6.9,0.7-12.4,3.9-16.1,6.4
									c-3.9,2.8-6.5,7-7.4,11.8c-0.7,4.7,0.4,9.5,3.1,13.6c1.4,1.8,2.9,3.4,4.8,4.5c4.7,3,7.3,8.4,6.7,14c-0.6,6-1,12.3-1.4,18.8
									c-0.1,3-0.4,6.3-0.6,9.4c-1,14.3,1,28.8,5.7,42c5.9,16.6,7.4,34.4,4.5,55.8c-6.3,49.1-44.9,65.5-47.4,103.6
									c-0.4,5.3-0.6,10.6-0.7,15.7c80.3,4.5,100.5-30.8,100.5-30.8l0,0c0,0,15.6,36.5,95.8,42.4c0.6-5,1.1-10.4,1.5-15.7
									c2.5-38.1-33.7-57.4-33.6-107.6c0.1-21.7,3.9-39.1,11.9-54.8c6.4-12.4,10.3-26.5,11.2-41c0.2-3.1,0.4-6.4,0.6-9.4
									c0.5-6.5,1-12.9,1.2-18.8C531.7,702.2,534.9,697.3,539.8,694.9z"/>
								<path fill="#E9E6EC" d="M689.9,778.4c-0.9-9.3-4.7-18.2-10.9-25.1c-2.5-2.8-5.3-5.2-8.4-7.2L542,663.7
									c-8.4-5.4-19.6-2.9-25,5.4c-4.5,6.9-3.6,16,1.8,22c1.1,1.2,2.3,2.1,3.6,3l128.5,82.6c0.5,0.2,0.9,0.6,1.2,1.1
									c1,1.1,1.5,2.4,1.6,3.8c0.1,1.9-0.6,3.9-2,5.2l24.4,26.8C685.9,804.5,691,791.6,689.9,778.4z"/>
								<g>
									<g>
										<path fill="#FFA898" d="M235.3,749.2c-5.8,6.3-9.4,14.3-10.2,23c-1,11.9,3.8,24,12.6,32.1l112.9,102.9
											c5.9,5.4,15.1,4.9,20.5-1s4.9-15.1-1-20.5L257.3,782.9c-2.3-2-3.5-5.2-3.3-8.2s1.9-5.9,4.5-7.6L387,684.7
											c6.8-4.4,8.7-13.3,4.4-20s-13.3-8.7-20-4.4l-128.6,82.4C240.2,744.4,237.5,746.7,235.3,749.2z"/>
									</g>
									<path fill="#FFA898" d="M379.6,927.3c0.6-1,0.7-2,0.6-3.1c0-0.2,0.1-0.6,0.2-0.7c0.2-0.2,0.5-0.2,0.9-0.2
										c2.5,0.6,5.2-0.5,6.5-2.9c0.7-1.5,1-3,0.6-4.4c-0.1-0.2,0-0.6,0.2-0.9c0.2-0.2,0.5-0.4,0.9-0.2c2.9,0.7,6-0.6,7.5-3.3
										c1.4-2.4,1.2-5.7-1.1-8.1c-0.2-0.2-0.4-0.6-0.2-0.9c0.1-0.4,0.4-0.5,0.6-0.6c1.5-0.4,3-1.4,3.9-2.9
										c1.5-2.9,0.6-6.5-2.3-8.1c0,0-5.2-3-7.2-4.3c-0.5-0.2-0.6-0.9-0.4-1.2c3.3-5.9-3.4-11.7-13.4-14.6
										c-11.7-3.5-35.1-3.6-41.9,9.9c-5.5,11.2-0.6,27,14,35.6c2.6,1.5-2.1-1.1,23.4,12.9C375.2,930.7,378.3,929.8,379.6,927.3z"
										/>
									<path fill="#E9E6EC" d="M221.6,771.8c0.9-9.3,4.7-18.2,10.9-25.1c2.5-2.8,5.3-5.2,8.4-7.2l128.6-82.4
										c8.4-5.4,19.6-2.9,25,5.4c4.5,6.9,3.6,16-1.8,22c-1.1,1.2-2.3,2.1-3.6,3L260.6,770c-0.5,0.2-0.9,0.6-1.2,1.1
										c-1,1.1-1.5,2.4-1.6,3.8c-0.1,1.9,0.6,3.9,2,5.2l93,84.7c0.9,0.7,0.9,1.9,0.1,2.8l-21.7,23.9c-0.7,0.9-1.9,0.9-2.8,0.1
										l-93-84.7C225.6,798.1,220.6,784.9,221.6,771.8z"/>
								</g>
								<path fill="#FFFFFF" d="M486,666.1c1.8,1,3.5,2,5.3,3.3c6.4,4.1,12.6,8.9,18.7,15c5.3,5.2,10.7,11.4,16.2,19.1
									c-2.6-14.5-7-26.5-12.3-36.3c-4.5-8.3-9.7-14.8-15-19.5c-1.4-1.2-2.6-2.1-4-3.1s-2.8-1.8-4.1-2.5c-1-0.6-2.3-0.6-3.4-0.2
									c-1.1,0.4-1.9,1.2-2.4,2.3v0.1c-6.2,15.3-15.8,25.9-26.9,35.1c7.9-3.4,12.2-5,21.5-12.6C481.5,665.2,484,665,486,666.1z"/>
								<path fill="#FFFFFF" d="M404.6,659.9c-6.5,8.9-12.4,20.2-16.9,34.4c6.4-6.8,12.6-12.2,18.6-16.7c6.9-5.2,13.6-9.2,20.5-12.4
									c1.9-0.9,3.8-1.6,5.7-2.5c2.1-0.9,4.5-0.4,6.3,1.4c8.2,8.7,12.2,10.9,19.6,15.3c-9.8-10.5-18-22.4-22.1-38.3
									c-0.4-1.2-1.1-2.1-2.1-2.6s-2.3-0.6-3.5-0.1c-1.5,0.5-2.8,1.2-4.3,1.9s-2.9,1.5-4.4,2.6C416,646.5,410.1,652.3,404.6,659.9z
									"/>
								<g>
									<g>
										<path fill="#F48989" d="M509.8,536.7c-2.6,12.3,2.6,23.9,11.7,25.8c9.1,1.9,18.5-6.5,21.1-19c2.6-12.3-2.6-23.9-11.7-25.8
											C521.7,515.8,512.3,524.3,509.8,536.7z"/>
										
											<ellipse transform="matrix(-0.9786 0.206 -0.206 -0.9786 862.7401 990.4669)" fill="#F48989" cx="379.8" cy="540.1" rx="16.7" ry="22.8"/>
										<path fill="#FFA898" d="M528.6,526.7c0-53.1-13.6-96-75.5-96c-62,0-75.5,43-75.5,96s33.8,96,75.5,96
											C494.7,622.9,528.6,579.8,528.6,526.7z"/>
										<path id="eye2" fill="#53344D" d="M496.5,546.5L496.5,546.5c-3.4,0-6-2.6-6-6v-3.9c0-3.4,2.6-6,6-6l0,0c3.4,0,6,2.6,6,6
											v3.8C502.5,543.8,499.9,546.5,496.5,546.5z"/>
										<g id="eyebrow2">
											<path fill="#3B0E19" d="M510.5,525.3c-0.6,0-1.4-0.2-1.8-0.9c-7.8-8.7-23.6-6-23.8-6c-1.4,0.2-2.5-0.6-2.8-1.9
												c-0.2-1.4,0.6-2.5,1.9-2.8c0.7-0.1,18.6-3,28.1,7.6c0.9,1,0.9,2.5-0.1,3.4C511.6,525.2,511,525.3,510.5,525.3z"/>
										</g>
										<g>
											<path fill="#F8918C" d="M502.8,575.5c-2.6,0-5.2-1.4-6.5-3.8c-0.7-1.4-4.1-2.5-6.7-2.9c-4.1-0.5-7.2-4.3-6.7-8.3
												c0.5-4.1,4.1-7.2,8.2-6.8c1.4,0.1,13.2,1.5,18.2,10.4c2,3.6,0.9,8.2-2.8,10.4C505.3,575.2,504,575.5,502.8,575.5z"/>
										</g>
										<path fill="#D63E39" d="M483.9,574.6c-1.5-1.4-3.9-1.1-5.2,0.4c-0.2,0.4-7.3,7.9-25.7,7.9l0,0l0,0
											c-18.3,0-25.4-7.6-25.7-7.9c-1.4-1.5-3.6-1.6-5.2-0.5c-1.5,1.4-1.8,3.6-0.5,5.2c0.4,0.5,9.1,10.6,31.3,10.6l0,0l0,0
											c22.2,0,30.9-10.2,31.3-10.6C485.7,578.1,485.4,575.8,483.9,574.6z"/>
										<path id="eye1" fill="#53344D" d="M409.5,546.5L409.5,546.5c3.4,0,6-2.6,6-6v-3.8c0-3.4-2.6-6-6-6l0,0c-3.4,0-6,2.6-6,6
											v3.8C403.3,543.8,406.1,546.5,409.5,546.5z"/>
										<g id="eyebrow1">
											<path fill="#3B0E19" d="M395.5,525.3c-0.6,0-1.2-0.2-1.5-0.6c-1-0.9-1.1-2.4-0.1-3.4c9.5-10.6,27.4-7.7,28.1-7.6
												c1.4,0.2,2.1,1.5,1.9,2.8c-0.2,1.4-1.5,2.1-2.8,1.9c-0.1,0-16-2.5-23.8,6C396.8,525.1,396.2,525.3,395.5,525.3z"/>
										</g>
										<g>
											<path fill="#F8918C" d="M403.2,575.5c-1.4,0-2.5-0.4-3.8-1c-3.6-2-4.8-6.8-2.8-10.4c5-8.8,16.9-10.3,18.2-10.4
												c4.1-0.4,7.8,2.6,8.3,6.8c0.4,4.1-2.5,7.8-6.8,8.3c-2.5,0.2-5.9,1.5-6.7,2.9C408.5,574.2,405.8,575.5,403.2,575.5z"/>
										</g>
									</g>
									<g>
										<path fill="#3B0E19" d="M540.7,478.3c-6-16.6-22.8-26.2-31.9-30.3c-1.1-0.5-1.8-1.4-2.1-2.4
											c-6.4-17.7-44.4-33.7-79.1-18.7c-37.2,16.1-72,48.6-73,103.6c-0.7,43.4,38.8,67.1,55.7,75.2c-6.5-5.7-12.3-12.7-17-20.5
											c-10.4-27.5-6.8-56.4,44-75c37.7-13.8,59.1-25.4,67.1-40.1c8.4,6.5,21.2,20.4,24.3,46.7c0,0,0,0,0,0.1
											c0.7,5.5,0.9,11.7,0.5,18.5C547.9,515,547,495.8,540.7,478.3z"/>
										<path fill="#3B0E19" d="M490.3,610.3c-4.5,3.3-9.2,5.9-14,7.8c0,15.8-5.5,29-6.7,31.2c-8.7,16.1-15.2,54.2,20.7,68.6
											c0,0-2.3-16.9,12.3-41.9C516.8,651.8,521.5,624.3,490.3,610.3z"/>
									</g>
								</g>
							</g>
						</g>
					</g>
				</g>
			</g>
		</g>
	</g>
</g>
<g id="robot">
	<g>
		<path fill="none" d="M411.6,236.9c0,24-5.5,47.3-16.1,67.4c-24.9,49.6-76.2,84-135.4,84c-38.5,0-73.8-14.3-100.9-38.5
			c-30.4-9.7-118.6-61.7-118.6-106.6c0-35.2,10.4-104.1,41.6-137c31.3-31.9,173.1-89.6,221.2-89.6c38.5,0,61,55.3,87.4,79.3
			C422.1,123.9,411.6,192,411.6,236.9z"/>
		<g id="Bg_cicle">
			<g>
				<g>
					<g>
						<circle fill="#C8FF94" cx="260.3" cy="236.9" r="151.5"/>
					</g>
					<defs>
						<filter id="Adobe_OpacityMaskFilter_1_" filterUnits="userSpaceOnUse" x="108.8" y="85.4" width="303" height="303">
							<feColorMatrix  type="matrix" values="1 0 0 0 0  0 1 0 0 0  0 0 1 0 0  0 0 0 1 0"/>
						</filter>
					</defs>
					<mask maskUnits="userSpaceOnUse" x="108.8" y="85.4" width="303" height="303" id="SVGID_5_">
						<g filter="url(#Adobe_OpacityMaskFilter_1_)">
						</g>
					</mask>
					<g opacity="0.53" mask="url(#SVGID_5_)">
						<circle cx="260.3" cy="236.9" r="151.5"/>
					</g>
				</g>
			</g>
			<defs>
				<filter id="Adobe_OpacityMaskFilter_2_" filterUnits="userSpaceOnUse" x="108.8" y="85.4" width="303" height="303">
					
						<feColorMatrix  type="matrix" values="-1 0 0 0 1  0 -1 0 0 1  0 0 -1 0 1  0 0 0 1 0" color-interpolation-filters="sRGB" result="source"/>
				</filter>
			</defs>
			<mask maskUnits="userSpaceOnUse" x="108.8" y="85.4" width="303" height="303" id="SVGID_6_">
				<g filter="url(#Adobe_OpacityMaskFilter_2_)">
					<image overflow="visible" width="308" height="308" xlink:href="C1786E4F.jpg"  transform="matrix(1 0 0 1 106 83)">
					</image>
				</g>
			</mask>
			<g opacity="0.35" mask="url(#SVGID_6_)">
				<g>
					<g>
						<circle cx="260.3" cy="236.9" r="151.5"/>
					</g>
					<defs>
						<filter id="Adobe_OpacityMaskFilter_3_" filterUnits="userSpaceOnUse" x="108.8" y="85.4" width="303" height="303">
							<feColorMatrix  type="matrix" values="1 0 0 0 0  0 1 0 0 0  0 0 1 0 0  0 0 0 1 0"/>
						</filter>
					</defs>
					<mask maskUnits="userSpaceOnUse" x="108.8" y="85.4" width="303" height="303" id="SVGID_6_">
						<g filter="url(#Adobe_OpacityMaskFilter_3_)">
						</g>
					</mask>
					<g opacity="0.53">
						<circle cx="260.3" cy="236.9" r="151.5"/>
					</g>
				</g>
			</g>
		</g>
	</g>
	<g>
		<g>
			<g>
				<g>
					<g>
						<defs>
							<path id="SVGID_7_" d="M411.6,236.9c0,24-5.5,47.3-16.1,67.4c-24.9,49.6-76.2,84-135.4,84c-38.5,0-73.8-14.3-100.9-38.5
								c-30.4-9.7-118.6-61.7-118.6-106.6c0-35.2,10.4-104.1,41.6-137c31.3-31.9,173.1-89.6,221.2-89.6c38.5,0,61,55.3,87.4,79.3
								C422.1,123.9,411.6,192,411.6,236.9z"/>
						</defs>
						<clipPath id="SVGID_8_">
							<use xlink:href="#SVGID_7_"  overflow="visible"/>
						</clipPath>
						<g clip-path="url(#SVGID_8_)">
							<path fill="#2F91CF" d="M352.7,317.9c9.8,68.8,0.9,103.7-77.9,106.8c-90.6,3.6-96.7-39.6-96.7-39.6s-3.9-26.8-5.3-63
								C169.6,246.2,349.4,295.1,352.7,317.9z"/>
							<path opacity="0.25" fill="#0E5588" enable-background="new    " d="M350.3,389c-0.2,0.7-0.6,1.4-0.9,1.9
								c-1.9,4-4.1,7.7-7,10.9c-25,11.8-58.3,17.6-94.3,14.5c-22.2-1.9-42.6-7.3-60.5-14.6c-5.2-5.3-7.6-10.4-8.8-13.6
								c19.9,9.7,43.8,16.5,70,18.7C288.4,410.5,324.5,403.3,350.3,389z"/>
							<path fill="#0E5588" d="M263,46.1c0,0,83,6.3,95.4,133.5c14.3,146.7,41.2,218.7-84,219.2c-108,0.5-113.4-51.3-113.4-51.3
								S128,37,263,46.1z"/>
							
								<rect x="123.5" y="258" transform="matrix(0.3345 0.9424 -0.9424 0.3345 353.0878 63.8424)" fill="#0E5588" width="15.6" height="47.8"/>
							<path fill="#2F91CF" d="M172.9,268.1c1.2,15.2-5.8,29-15.8,31c-9.9,1.9-19-8.9-20.1-24.3c-1.2-15.2,5.8-29,15.8-31
								C162.7,241.9,171.7,252.8,172.9,268.1z"/>
							<path opacity="0.4" fill="#FFFFFF" enable-background="new    " d="M150.1,289.9c-6.5,0-11.9-7.2-12.7-16.5
								c-0.9-10.3,4-19.3,10.9-20.6c7.2-1.5,13.6,6.2,14.3,16.3c0.9,10.3-4,19.3-10.9,20.6C151.2,289.9,150.5,289.9,150.1,289.9z
								 M150.1,256.6c-0.4,0-0.6,0-1,0.1c-4.9,1-8.6,8.4-7.8,16.6c0.6,7.7,4.9,13.6,9.8,12.8c4.9-1,8.6-8.4,7.8-16.6
								C158.3,262.3,154.4,256.6,150.1,256.6z"/>
							<path fill="#0E5588" d="M93.2,295.9c-15.8-20,6.3-43.8,27.4-29.4c0.2,0.2,0.6,0.5,0.9,0.7c15.8,20-6.3,43.8-27.4,29.4
								C93.7,296.4,93.5,296.2,93.2,295.9z"/>
							<path id="hand5" fill="#2F91CF" d="M112.5,285L112.5,285c-12.8,4.4-26.7-2.4-31.1-15.1l-16.6-48.1
								c-4.4-12.8,2.4-26.7,15.1-31.1l0,0c12.8-4.4,26.7,2.4,31.1,15.1l16.6,48.1C132.1,266.7,125.3,280.6,112.5,285z"/>
							<path id="hand1" fill="#2F91CF" d="M71.5,211.9c-2,0-4.1-1.1-5.2-3.1l-9.2-17.1c-1.5-2.9-0.5-6.4,2.4-7.9s6.4-0.5,7.9,2.4
								l9.2,17.1c1.5,2.9,0.5,6.4-2.4,7.9C73.5,211.6,72.5,211.9,71.5,211.9z"/>
							<path id="hand2" fill="#2F91CF" d="M82.5,204.6c-2.6,0-5-1.8-5.7-4.5l-4.6-19c-0.7-3.1,1.1-6.3,4.3-7.2
								c3.1-0.9,6.3,1.1,7.2,4.3l4.7,19c0.7,3.1-1.1,6.3-4.3,7.2C83.3,204.4,82.9,204.6,82.5,204.6z"/>
							<path id="hand3" fill="#2F91CF" d="M95,203.8c-0.1,0-0.4,0-0.5,0c-3.3-0.2-5.5-3.1-5.3-6.3l1.6-19.5c0.2-3.3,3.1-5.7,6.3-5.3
								c3.3,0.2,5.5,3.1,5.3,6.3l-1.6,19.5C100.5,201.5,98,203.8,95,203.8z"/>
							<path id="hand5_1_" opacity="0.4" fill="#FFFFFF" enable-background="new    " d="M101.4,270.7c-7.4,0-13.8-4.7-16.2-11.8
								l-8.4-26.7c-2.8-8.9,2.2-18.4,11-21.2c1.6-0.5,3.4-0.7,5-0.7c7.4,0,13.8,4.7,16.2,11.8l8.4,26.7c2.8,8.9-2.1,18.3-10.9,21.2
								C104.8,270.4,103.2,270.7,101.4,270.7z M93,214.1c-1.4,0-2.6,0.2-3.9,0.6c-6.9,2.1-10.6,9.4-8.4,16.3l8.4,26.7
								c2,6.7,9.7,10.5,16.3,8.4c6.9-2.1,10.6-9.4,8.4-16.3l-8.4-26.7C103.7,217.9,98.5,214.1,93,214.1z"/>
							<defs>
								<filter id="Adobe_OpacityMaskFilter_4_" filterUnits="userSpaceOnUse" x="153.8" y="194.5" width="220.1" height="136.4">
									<feColorMatrix  type="matrix" values="1 0 0 0 0  0 1 0 0 0  0 0 1 0 0  0 0 0 1 0"/>
								</filter>
							</defs>
							<mask maskUnits="userSpaceOnUse" x="153.8" y="194.5" width="220.1" height="136.4" id="SVGID_11_">
								<g filter="url(#Adobe_OpacityMaskFilter_4_)">
									<path fill="#00243B" d="M263,46.1c0,0,83,6.3,95.4,133.5c14.3,146.7,41.2,218.7-84,219.2c-108,0.5-113.4-51.3-113.4-51.3
										S128,37,263,46.1z"/>
								</g>
							</mask>
							<g opacity="0.5" mask="url(#SVGID_11_)">
								<path fill="#FFFFFF" d="M263.7,241c-32.4,0-70-9.5-109.2-38.7l5.8-7.8c106.3,79.3,197.5,7.9,201.4,4.9l6.2,7.6
									C367.1,207.6,324.4,241,263.7,241z"/>
								<path fill="#FFFFFF" d="M265.2,259.6c-32.7,0-70.9-7.3-111.4-29.4l1-1.6c112.7,62.1,209.4,5.9,210.3,5.3l1,1.6
									C365.5,235.9,324.6,259.6,265.2,259.6z"/>
								<path fill="#FFFFFF" d="M270.3,330.9c-34.2,0-74.2-7.3-116.5-29.9l1-1.6c117.2,62.7,217.1,6.8,218.1,6.3l1,1.6
									C373.2,307.4,331.4,330.9,270.3,330.9z"/>
							</g>
							<path fill="#FFFFFF" d="M284.9,177.4c0,2.8,1.1,5.2,2.8,7.2c2,2.1,14,2,16,0c1.8-1.9,2.8-4.5,2.8-7.4
								c-0.1-5.9-4.9-10.6-10.8-10.6C289.6,166.6,284.9,171.4,284.9,177.4z"/>
							<path fill="#FFFFFF" d="M273.7,190.2l-0.7-1.5c-1.8-3.6-2.8-7.4-2.9-11.2c-0.2-14.1,11.1-25.7,25.3-25.9l0,0
								c14.2,0,25.7,11.3,25.9,25.3c0,4-0.9,7.8-2.8,11.6l-0.7,1.5l-1.5-0.5c-13.3-4.4-27.5-4.4-40.7,0.2L273.7,190.2z M295.7,155.7
								c-12.3,0.1-21.9,10-21.7,22c0,2.6,0.6,5.3,1.6,7.9c13.2-4.1,26.9-4.1,40-0.2c1.1-2.8,1.6-5.5,1.6-8.3
								C317.2,165.2,307.4,155.7,295.7,155.7z"/>
							<path fill="#FFFFFF" d="M207,177.4c0,2.8,1.1,5.2,2.8,7.2c2,2.1,14,2,16,0c1.8-1.9,2.8-4.5,2.8-7.4
								c-0.1-5.9-4.9-10.6-10.8-10.6C211.8,166.6,206.9,171.4,207,177.4z"/>
							<path fill="#FFFFFF" d="M195.8,190.2l-0.7-1.5c-1.8-3.6-2.8-7.4-2.9-11.2c-0.2-14.1,11.1-25.7,25.3-25.9l0,0
								c14.2,0,25.7,11.3,25.9,25.3c0,4-0.9,7.8-2.8,11.6l-0.7,1.5l-1.5-0.5c-13.3-4.4-27.5-4.4-40.7,0.2L195.8,190.2z M217.8,155.7
								c-12.3,0.1-21.9,10-21.7,22c0,2.6,0.6,5.3,1.6,7.9c13.2-4.1,26.9-4.1,40-0.2c1.1-2.8,1.6-5.5,1.6-8.3
								C239.3,165.2,229.5,155.7,217.8,155.7z"/>
							<path fill="#FFFFFF" d="M195.4,177.2c0-13.1,10.6-23.6,23.6-23.6c2.1,0,4.3,0.4,6.2,1c-3.6-1.9-7.6-3-11.9-3
								c-14.2,0-25.7,11.4-25.7,25.7c0,5.7,1.8,10.8,4.9,15.1c1.8-1.1,4.8-2.3,7.3-3.1C197.6,185.5,195.4,181.6,195.4,177.2z"/>
							<path fill="#FFFFFF" d="M318.1,177.2c0-13.1-10.6-23.6-23.6-23.6c-2.1,0-4.3,0.4-6.2,1c3.6-1.9,7.6-3,11.9-3
								c14.2,0,25.7,11.4,25.7,25.7c0,5.7-1.8,10.8-4.9,15.1c-1.8-1.1-4.5-2.5-6.9-3.3C316.1,185.2,318.1,181.6,318.1,177.2z"/>
							
								<rect x="356" y="289.7" transform="matrix(0.4175 0.9087 -0.9087 0.4175 492.7861 -173.7874)" fill="#0E5588" width="51.9" height="15.6"/>
							<path fill="#2F91CF" d="M352.2,268.1c-1.2,15.2,5.8,29,15.8,31c9.9,1.9,19-8.9,20.1-24.3c1.2-15.2-5.8-29-15.8-31
								C362.3,241.9,353.4,252.8,352.2,268.1z"/>
							<path opacity="0.4" fill="#FFFFFF" enable-background="new    " d="M374,290.5L374,290.5c-0.6,0-1.1,0-1.6-0.1
								c-7-1.4-11.8-10.4-10.9-20.6s7.3-17.6,14.3-16.3c7,1.4,11.8,10.4,10.9,20.6C386,283.5,380.6,290.5,374,290.5z M374,257.2
								c-4.4,0-8.2,5.7-8.8,12.9c-0.6,8.1,3,15.6,7.8,16.6c4.8,0.9,9.2-5,9.8-12.8c0.6-8.1-3-15.6-7.8-16.6
								C374.7,257.2,374.3,257.2,374,257.2z"/>
							<path fill="#0E5588" d="M386.5,315c-17.5,18.6,2.4,44.1,24.8,31.7c0.4-0.1,0.6-0.4,0.9-0.7c17.5-18.6-2.4-44.1-24.8-31.7
								C387,314.4,386.7,314.7,386.5,315z"/>
							<path fill="#2F91CF" d="M346.4,424.8c-1.1,0-2.1-0.4-3.1-1c-2.6-1.8-3.5-5.4-1.6-8.1l10.6-16.3c1.8-2.6,5.4-3.5,8.1-1.6
								c2.7,1.8,3.5,5.4,1.6,8.1l-10.6,16.3C350.2,424,348.3,424.8,346.4,424.8z"/>
							<path fill="#2F91CF" d="M361,435.3c-0.6,0-1.2-0.1-1.9-0.4c-3-1.1-4.7-4.4-3.6-7.4l6.3-18.5c1.1-3,4.4-4.7,7.4-3.6
								c3,1.2,4.7,4.4,3.6,7.4l-6.3,18.5C365.7,433.7,363.5,435.3,361,435.3z"/>
							<path fill="#2F91CF" d="M379.7,438.1c-3.3,0-5.8-2.6-5.8-5.8v-19.5c0-3.3,2.6-5.8,5.8-5.8c3.3,0,5.8,2.6,5.8,5.8v19.5
								C385.5,435.5,382.8,438.1,379.7,438.1z"/>
							<path fill="#2F91CF" d="M347.5,406.9l39.5,16.5c1.8,0.7,3.9-0.1,4.5-1.9l34.2-82.7c0.7-1.8-0.1-3.9-1.9-4.5l-39.5-16.5
								c-1.8-0.7-3.9,0.1-4.5,1.9l-34.2,82.7C344.9,404.2,345.6,406.3,347.5,406.9z"/>
							<path opacity="0.4" fill="#FFFFFF" enable-background="new    " d="M380.2,400.5L380.2,400.5c-2.1,0-4.4-0.5-6.4-1.4
								c-8.6-3.6-12.7-13.4-9.2-22.1l10.7-25.8c2.6-6.3,8.8-10.4,15.7-10.4c2.1,0,4.4,0.5,6.4,1.4c8.6,3.6,12.7,13.6,9.2,22.1
								l-10.7,25.8C393.3,396.4,387.1,400.5,380.2,400.5z M391,344.7c-5.3,0-10,3.1-12.1,7.9l-10.7,25.8c-2.8,6.7,0.4,14.2,7,16.9
								c1.5,0.6,3.3,1,4.9,1c5.3,0,10-3.1,12.1-7.9l10.7-25.8c2.8-6.7-0.4-14.2-7-17C394.4,345.1,392.8,344.7,391,344.7z"/>
							<g>
								
									<rect x="319.7" y="84.1" transform="matrix(7.434424e-002 0.9972 -0.9972 7.434424e-002 402.5909 -259.6508)" fill="#62A9CC" width="43" height="5.8"/>
								<g>
									<circle fill="#62A9CC" cx="339.6" cy="65.9" r="5.5"/>
								</g>
							</g>
							<g>
								<polygon fill="#62A9CC" points="181.2,108.4 175.3,108.2 177,65.3 182.7,65.5 								"/>
								<g>
									<circle fill="#62A9CC" cx="179.8" cy="65.7" r="5.5"/>
								</g>
							</g>
							
								<ellipse transform="matrix(0.9985 -5.433647e-002 5.433647e-002 0.9985 -6.0904 18.8335)" fill="#2F91CF" cx="343.3" cy="121.4" rx="12.4" ry="18"/>
							
								<rect x="335.5" y="99.3" transform="matrix(-0.9972 7.435858e-002 -7.435858e-002 -0.9972 692.7031 191.3024)" fill="#2F91CF" width="14.6" height="18.5"/>
							
								<ellipse transform="matrix(0.9983 5.852186e-002 -5.852186e-002 0.9983 7.4056 -10.1727)" fill="#2F91CF" cx="177.4" cy="121.3" rx="12.4" ry="18"/>
							
								<rect x="171" y="99" transform="matrix(-0.9993 -3.848356e-002 3.848356e-002 -0.9993 352.3168 223.2927)" fill="#2F91CF" width="14.6" height="18.5"/>
							<path opacity="0.4" fill="#FFFFFF" enable-background="new    " d="M172.5,132.3h-0.4c-1.9-0.1-3.8-1.4-5-3.4
								c-1.2-1.9-1.6-4.5-1.5-7c0.4-5.3,3.6-9.5,7.5-9.5h0.4c4,0.2,6.9,4.9,6.7,10.4C179.7,128.1,176.4,132.3,172.5,132.3z
								 M173.4,114.3c-3,0-5.4,3.5-5.7,7.7c-0.1,2.1,0.4,4.4,1.4,5.9c1,1.5,2.1,2.3,3.5,2.4h0.2c2.8,0,5.3-3.5,5.5-7.7
								C178.3,118.2,176.3,114.4,173.4,114.3L173.4,114.3z"/>
							<path opacity="0.4" fill="#FFFFFF" enable-background="new    " d="M347.6,132.5c-3.9,0-7.2-4.3-7.5-9.5
								c-0.1-2.6,0.5-5,1.5-7c1.2-2,3-3.3,5-3.4h0.2c3.9,0,7.2,4.3,7.5,9.5c0.1,2.6-0.5,5-1.5,7c-1.2,2-3,3.3-5,3.4H347.6z
								 M347.1,114.6c-1.5,0.1-2.8,1-3.6,2.4c-1,1.5-1.5,3.8-1.4,5.9c0.2,4.3,2.6,7.7,5.5,7.7v1l0.2-1c1.4-0.1,2.5-1,3.5-2.4
								c1-1.5,1.5-3.8,1.4-5.9C352.4,118,349.9,114.6,347.1,114.6z"/>
							<path fill="#07548A" d="M277.5,300.6c23.4,31.7-12.1,67.1-43.8,43.8c-0.4-0.4-0.9-0.7-1.1-1.1
								c-23.4-31.7,12.1-67.1,43.8-43.8C276.8,299.7,277.1,300.1,277.5,300.6z"/>
							<g>
								<g id="Group-9_2_" transform="translate(177.222222, 0.488889)">
									<g id="Clip-8_4_">
									</g>
									<defs>
										<filter id="Adobe_OpacityMaskFilter_5_" filterUnits="userSpaceOnUse" x="55.7" y="293.4" width="47" height="25.6">
											<feColorMatrix  type="matrix" values="1 0 0 0 0  0 1 0 0 0  0 0 1 0 0  0 0 0 1 0"/>
										</filter>
									</defs>
									<mask maskUnits="userSpaceOnUse" x="55.7" y="293.4" width="47" height="25.6" id="mask-2_1_">
										<g filter="url(#Adobe_OpacityMaskFilter_5_)">
											<polygon id="path-1_1_" fill="#FFFFFF" points="102.7,293.4 55.7,293.4 55.7,319 102.7,319 											"/>
										</g>
									</mask>
									<polygon id="Fill-7_2_" mask="url(#mask-2_1_)" fill="#2F91CF" points="75.5,319 55.7,315.5 102.7,293.4 									"/>
								</g>
								<polygon id="Fill-10_2_" fill="#2F91CF" points="255.8,322.4 259.2,342.3 281.3,295.2 								"/>
								<polygon id="Fill-12_2_" fill="#5E9E21" points="252.5,322.5 248.6,322.1 226.2,349.2 247.1,331.8 253.1,326.7 								"/>
								<polygon id="Fill-14_2_" fill="#5E9E21" points="247.2,321.7 243.1,321.2 229.9,342.4 								"/>
								<polygon id="Fill-16_2_" fill="#5E9E21" points="253.7,328.2 254.1,332.3 233,345.6 								"/>
							</g>
							<g id="Clip-8_2_">
							</g>
						</g>
					</g>
				</g>
			</g>
		</g>
	</g>
</g>
<g id="chat_bubbles">
	<g id="question_mark_1_">
		<g id="question_mark">
			<path fill="#FFFFFF" d="M438.9,213.6c-6.4,7.3-16.1,10.4-25.6,8.8c7.3-6.4,12.1-16.1,13.6-25.6c0-1.5,0-3.3-0.9-4.8
				c-7.9-11.2-12.1-24.9-12.1-38.5c0-37.7,31.3-68.9,68.9-68.9s68.9,31.3,68.9,68.9s-31.3,68.9-68.9,68.9
				c-12.8,0-25.6-3.3-36.1-10.4c-0.9-0.9-2.4-0.9-3.3-0.9C441.3,211.1,439.7,212,438.9,213.6 M397.2,218.4c-1.5,0.9-3.3,3.3-3.3,5.5
				c0,2.4,0.9,4,3.3,5.5c6.4,4,13.6,6.4,21.6,6.4c9.7,0,18.5-3.3,25.6-9.7c12.1,6.4,24.9,9.7,38.5,9.7c44.9,0,81.7-36.8,81.7-81.7
				s-36.8-81.7-81.7-81.7c-44.9-0.9-81.7,36.1-81.7,81c0,15.2,4,30.4,12.1,43.2C411.6,205.6,406,213.6,397.2,218.4L397.2,218.4z"/>
			<path fill="#FFFFFF" d="M490.9,159.8C490.9,159.8,490.1,160.7,490.9,159.8l-0.9,6.4l0,0c0,4-3.3,7.3-7.3,7.3s-7.3-3.3-7.3-7.3
				v-5.5c0-6.4,4-12.8,10.4-14.3c4-1.5,7.3-5.5,7.3-10.4c0-5.5-4.8-10.4-10.4-10.4c-4,0-7.3,2.4-9.7,5.5c-1.5,4-6.4,4.8-9.7,3.3
				c-4-1.5-4.8-6.4-3.3-9.7c2.4-4,4.8-7.9,8.8-10.4c4-2.4,8.8-4,13.6-4l0,0c6.4,0,12.8,2.4,17.6,7.3s7.3,10.4,7.9,17.6
				c0,5.5-1.5,10.4-4.8,15.2C500.6,155,495.8,158.3,490.9,159.8L490.9,159.8z"/>
			<path fill="#FFFFFF" d="M483,195.9c-3.3,0-5.5-1.5-6.4-4.8c-0.9-2.4-0.9-5.5,1.5-7.9s5.5-2.4,7.9-1.5s4.8,4,4.8,6.4
				C490.1,192.8,486.9,195.9,483,195.9"/>
		</g>
	</g>
	<g id="chat">
		<g id="question_mark_3_">
			<path fill="#FFFFFF" d="M279.4,614.1c-1.5-1.5-3.3-2.4-4.8-2.4c-0.9,0-2.4,0-3.3,0.9C260.1,619,248,623,235.2,623
				c-37.7,0-68.9-31.3-68.9-68.9c0-37.7,31.3-68.9,68.9-68.9s68.9,31.3,68.9,68.9c0,13.6-4,27.3-12.1,38.5c-0.9,1.5-1.5,3.3-0.9,4.8
				c1.5,9.7,6.4,18.5,13.6,25.6C296.3,624.5,285.9,621.3,279.4,614.1 M321.1,618.9c-7.9-4.8-13.6-12.1-16.1-21.6
				c7.9-12.8,12.1-28,12.1-43.2c0-44.9-36.8-81.7-81.7-81.7s-81.7,36.8-81.7,81.7s36.8,81.7,81.7,81.7c13.6,0,26.4-3.3,38.5-9.7
				c7.3,6.4,16.1,9.7,25.6,9.7c7.3,0,15.2-2.4,21.6-6.4c1.5-0.9,3.3-3.3,3.3-5.5C324.3,621.3,322.8,619.7,321.1,618.9L321.1,618.9z"
				/>
		</g>
		<circle fill="#FFFFFF" cx="205.8" cy="553.2" r="10.4"/>
		<circle fill="#FFFFFF" cx="234.6" cy="553.2" r="10.4"/>
		<circle fill="#FFFFFF" cx="264.2" cy="553.2" r="10.4"/>
	</g>
	<g id="arrow">
		<path fill="#FFFFFF" d="M438.1,406.6l-36.8-14.3c-0.9-0.9-1.5-1.5-1.5-3.3c0-1.7,0.9-2.4,1.5-3.3l14.3-6.4
			c-1.5-4.8-6.4-15.2-20-20.9c-4-1.5-7.9-2.4-12.8-3.3c-1.5,0-2.4-1.5-2.4-2.4c0-1.5,0.9-2.4,1.5-3.3c0,0,0,0,0.9,0
			c2.4-0.9,7.9-3.3,15.2-4c7.3-0.9,14.3,0,20.9,3.3c9.7,4,17.6,12.1,22.5,20.9l11.2-4.8c0.9-0.9,2.4,0,3.3,0.9s0.9,2.4,0.9,3.3
			l-15.5,36.8C442,406.6,439.7,407.4,438.1,406.6z M410.9,389l27.3,11.2l11.2-27.3l-7.9,3.3c-1.5,0.9-3.3,0-4-1.5l0,0c0,0,0,0,0-0.9
			c-3.3-8.8-10.4-16.1-20-20c-5.5-2.4-11.2-3.3-17.6-2.4c-1.5,0-3.3,0.9-4,0.9c0.9,0,2.4,0.9,3.3,0.9c21.6,8.8,24,27.3,24,28
			c0,1.5-0.9,2.4-1.5,3.3L410.9,389z"/>
	</g>
</g>
</svg>
