<?xml version="1.0" standalone="no"?>
<?xml-stylesheet type="text/css" href="svg.css"?>
<svg id="graph" version="1.1" xmlns="http://www.w3.org/2000/svg" xmlns:xlink="http://www.w3.org/1999/xlink" x="0px" y="0px"
	 viewBox="0 0 100 100" enable-background="new 0 0 100 100" xml:space="preserve">
<polygon points="9.4,93.8 9.4,83.4 12.5,83.4 12.5,77.2 9.4,77.2 9.4,65.9 12.5,65.9 12.5,59.7 9.4,59.7 9.4,48.4 12.5,48.4
	12.5,42.2 9.4,42.2 9.4,31.3 12.5,31.3 12.5,25 9.4,25 9.4,13.8 12.5,13.8 12.5,7.5 9.4,7.5 9.4,0 3.1,0 3.1,7.5 0,7.5 0,13.8 
	3.1,13.8 3.1,25 0,25 0,31.3 3.1,31.3 3.1,42.2 0,42.2 0,48.4 3.1,48.4 3.1,59.7 0,59.7 0,65.9 3.1,65.9 3.1,77.2 0,77.2 0,83.4 
	3.1,83.4 3.1,100 100,100 100,93.8 "/>
<rect x="76.6" y="9.4" width="18.8" height="78.1"/>
<rect x="48.8" y="34.4" width="18.8" height="53.1"/>
<rect x="21.3" y="59.4" width="18.8" height="28.1"/>
</svg>
