<?xml version="1.0" standalone="no"?>
<?xml-stylesheet type="text/css" href="svg.css"?>
<!DOCTYPE svg PUBLIC "-//W3C//DTD SVG 1.1//EN" "http://www.w3.org/Graphics/SVG/1.1/DTD/svg11.dtd">
<svg version="1.1" id="Layer_1" xmlns="http://www.w3.org/2000/svg" xmlns:xlink="http://www.w3.org/1999/xlink" x="0px" y="0px"
	 viewBox="806.3 0.1 375.3 559.9" enable-background="new 806.3 0.1 375.3 559.9" xml:space="preserve">
<g id="cloud">
	<g>
		<g>
			<path fill="#FFFFFF" d="M980,256.3c-5.4-2.4-7.9-8.7-5.6-14.1c0,0,0,0,0-0.1c1.6,2,3.6,3.6,6.1,4.7c1.1,0.5,2.1,0.8,3.2,1.1
				c-0.7,1-1.3,2-1.8,3.2c-0.8,1.8-1.2,3.8-1.3,5.6C980.5,256.4,980.3,256.3,980,256.3z M1053,276.4c-2.4,5.4-8.7,7.9-14.1,5.6
				c-0.2-0.1-0.4-0.2-0.7-0.3c1.3-1.4,2.5-2.9,3.2-4.8c0.5-1.1,0.8-2.3,1.1-3.5c0.9,0.7,1.9,1.2,2.9,1.7
				C1047.8,276.1,1050.5,276.5,1053,276.4L1053,276.4z M1082.3,207.5c4.3,4,4.7,10.8,0.7,15.1c-0.2,0.2-0.3,0.3-0.5,0.6
				c-0.8-1.7-2-3.3-3.5-4.6c-0.9-0.8-1.9-1.6-2.9-2.1c0.9-0.7,1.7-1.4,2.5-2.2C1080.3,212.3,1081.6,210,1082.3,207.5L1082.3,207.5z
				 M1071.3,162.6c3,1.3,4.9,4.5,4.6,7.8c-2.8-0.9-5.7-1-8.6-0.3c0.6-0.8,1.1-1.6,1.5-2.5c0.7-1.7,1.1-3.5,1.1-5.3
				C1070.3,162.2,1070.8,162.4,1071.3,162.6z M1046.1,151.5c0.4,0.2,0.7,0.3,1.1,0.7c-1.3,1.2-2.5,2.8-3.2,4.5
				c-0.4,0.9-0.7,1.8-0.9,2.8c-0.5-0.8-1.1-1.6-1.7-2.4c-1.2-1.4-2.6-2.6-4.2-3.5C1039.3,151.1,1043,150.2,1046.1,151.5z
				 M993.8,183.6c0.5-5.9,5.6-10.2,11.5-9.8c0,0,0,0,0.1,0c-1.4,2.1-2.2,4.7-2.5,7.3c-0.1,1.1-0.1,2.3,0.1,3.4
				c-1.1-0.3-2.4-0.7-3.5-0.7c-2-0.2-3.9,0-5.7,0.6C993.8,184.1,993.8,183.9,993.8,183.6z M982.3,203.4L982.3,203.4
				c0.2,0.6,0.3,1.2,0.6,1.9l0.6-0.2c-0.7-2-1-4.2-0.8-6.4c0.7-8.5,8.3-14.9,16.9-14.2c1.3,0.1,2.5,0.3,3.7,0.7
				c0.4,2.5,1.5,5,3.1,7.1l0.4-0.3c-2.4-3.1-3.5-6.9-3.2-10.8c0.3-4.2,2.3-7.9,5.5-10.6c3.2-2.7,7.2-3.9,11.4-3.6
				c4.8,0.4,9.1,2.9,11.7,7l0.5-0.3c-1.7-2.6-4.2-4.7-7-5.9c-1.6-0.7-3.4-1.1-5.2-1.3c-2.4-0.2-4.7,0.1-7,0.9c0-0.4,0-0.8,0.1-1.2
				c0.7-8.5,8.3-14.9,16.9-14.2c4.2,0.3,7.9,2.3,10.6,5.5c0.7,0.9,1.4,1.9,2,2.9c0,0,0,0.1,0,0.2h0.1c1.2,2.5,1.8,5.3,1.6,8.3h0.6
				c0.2-3-0.3-6-1.6-8.6c0.2-1.1,0.5-2.3,1-3.4c2.9-6.5,10.5-9.5,17-6.6s9.5,10.5,6.6,17c-0.5,1.1-1.1,2.1-1.8,3
				c-2.8,0.8-5.3,2.4-7.4,4.6l0.4,0.3c2-2.2,4.6-3.7,7.2-4.5l0,0l0,0c3.4-1,7.1-0.7,10.5,0.7c1.5,0.7,2.9,1.6,4.3,2.8
				c6.3,5.8,6.8,15.6,1,22c-0.3,0.3-0.6,0.6-0.9,0.9c-0.9-2.1-2.3-4.1-4-5.7c-1.3-1.2-2.8-2.2-4.4-2.9c-2.8-1.2-6-1.6-9.1-1.1
				l0.1,0.6c4.7-0.7,9.5,0.7,13,3.8c3.1,2.8,4.9,6.6,5.1,10.8c0.2,4.2-1.2,8.1-4.1,11.2c-2.6,2.9-6.2,4.7-10.1,5v0.6
				c2.6-0.2,5.2-1.1,7.4-2.5c1.1,0.6,2.1,1.4,3.1,2.2c6.3,5.8,6.8,15.6,1,22c-1.5,1.6-3.2,2.9-5.2,3.8l0.2,0.5
				c0.6-0.2,1.1-0.6,1.7-0.9c7.8,3.5,11.3,12.6,7.9,20.5c-3.4,7.9-12.6,11.5-20.5,8c-0.3-0.2-0.7-0.3-1.1-0.6
				c1.7-1.5,3.2-3.4,4.2-5.6c2-4.6,1.8-9.7-0.6-14.1l-0.5,0.2c2.3,4.3,2.5,9.2,0.6,13.6c-3.4,7.9-12.6,11.5-20.5,8
				c-3.5-1.6-6.4-4.3-7.9-7.9l-0.5,0.2c1.1,2.5,2.8,4.5,4.8,6.1c-0.2,1.2-0.6,2.5-1.1,3.6c-3.4,7.9-12.6,11.5-20.5,8
				c-1.3-0.6-2.5-1.3-3.6-2.2c1.7-1.3,3.1-3.1,4-5.2c0.6-1.2,0.9-2.5,1.1-3.8l-0.6-0.1c-0.2,1.3-0.5,2.5-1,3.7c-0.9,2-2.3,3.8-3.9,5
				c-0.4-0.3-0.8-0.7-1.1-1.1l-0.4,0.4c0.3,0.4,0.7,0.7,1.1,1.1c-3.6,2.5-8.4,3.2-12.6,1.3c-4.3-1.9-7-5.9-7.7-10.2
				c0.4,0,0.9,0.1,1.4,0v-0.6c-0.5,0-1,0-1.4-0.1c-0.2-2,0.2-4.2,1.1-6.2c0.5-1.1,1.1-2.2,2-3.2l-0.4-0.3c-0.8,1-1.6,2.1-2,3.3
				c-0.9,2.1-1.2,4.3-1.1,6.4c-1.5-0.2-2.9-0.6-4.3-1.1c-7.9-3.4-11.5-12.6-8-20.5c0.5-1.1,1.1-2.3,2-3.3c2.5,0.4,5.2,0.2,7.7-0.7
				l-0.2-0.6c-3.7,1.2-7.7,1.1-11.2-0.5c-7.9-3.4-11.5-12.6-8-20.5c2-4.4,5.7-7.6,10.4-8.8l-0.2-0.6c-4.8,1.2-8.8,4.6-10.7,9.2
				c-1,2.2-1.4,4.6-1.4,6.9c-0.4-0.2-0.7-0.3-1.1-0.4c-7.9-3.4-11.5-12.6-8-20.5C965.3,203.5,974.3,199.8,982.3,203.4z"/>
			<path fill="#F4F4F4" d="M961.3,211.1c-3.5,8.2,0.2,17.7,8.4,21.3c0.5,0.2,0.9,0.3,1.4,0.6c0.2,3.1,1.3,6.1,3.2,8.6
				c-0.1,0.1-0.1,0.2-0.2,0.3c-2.5,5.7,0.1,12.4,5.8,14.9c0.3,0.2,0.6,0.2,0.9,0.3c-0.1,6.3,3.5,12.4,9.7,15.1
				c1.5,0.7,3,1.1,4.6,1.2c0.6,4.6,3.4,8.8,8,10.8s9.6,1.3,13.3-1.4c1.1,1,2.5,1.7,3.8,2.4c6.1,2.7,13,1.2,17.6-3.1
				c0.3,0.2,0.6,0.3,0.9,0.4c5.7,2.5,12.4-0.1,14.9-5.8c0-0.1,0.1-0.2,0.2-0.3c3.1-0.3,6.1-1.6,8.4-3.5c0.4,0.2,0.9,0.5,1.4,0.7
				c8.2,3.5,17.7-0.2,21.3-8.4c3.5-8,0-17.3-7.9-21c1.1-0.7,2.2-1.6,3.1-2.6c4.5-4.9,5.4-12,2.8-17.7c0.2-0.2,0.5-0.4,0.7-0.7
				c4.2-4.6,3.8-11.8-0.7-16c-0.1-0.1-0.2-0.2-0.3-0.2c0.3-1.4,0.4-2.8,0.3-4.3c-0.1-1.7-0.4-3.4-1-4.9c0.3-0.3,0.7-0.7,1.1-1.1
				c2.9-3.2,4.4-7.3,4.2-11.6c-0.2-4.3-2-8.3-5.2-11.2c-1.4-1.2-2.8-2.1-4.4-2.9c-0.3-0.2-0.7-0.2-1-0.4c0.4-3.5-1.6-7-4.8-8.5
				c-0.6-0.2-1.1-0.4-1.7-0.5c-0.2-5-3.2-9.7-8.1-11.9c-4.9-2.1-10.3-1.1-14.1,2c-0.4-0.3-0.9-0.6-1.4-0.7c-3.3-1.5-7.2-0.6-9.5,2.2
				c-0.3-0.2-0.7-0.4-1.1-0.6c-1.6-0.7-3.4-1.1-5.2-1.3c-4.3-0.3-8.4,1-11.8,3.8c-3.3,2.8-5.3,6.6-5.6,11c0,0.5-0.1,1-0.1,1.5
				c-1.6,0.7-2.9,1.5-4.3,2.6c-1.1,1-2,2-2.9,3.2c-0.1,0-0.2,0-0.3,0c-6.2-0.5-11.6,4.1-12.2,10.3c0,0.3,0,0.7,0,1
				c-6,2-10.6,7.4-11.1,14c-0.1,1.4-0.1,2.8,0.2,4.1C974.1,199.4,964.8,203,961.3,211.1z M980,256.3c-5.4-2.4-7.9-8.7-5.6-14.1
				c0,0,0,0,0-0.1c1.6,2,3.6,3.6,6.1,4.7c1.1,0.5,2.1,0.8,3.2,1.1c-0.7,1-1.3,2-1.8,3.2c-0.8,1.8-1.2,3.8-1.3,5.6
				C980.5,256.4,980.3,256.3,980,256.3z M1053,276.4c-2.4,5.4-8.7,7.9-14.1,5.6c-0.2-0.1-0.4-0.2-0.7-0.3c1.3-1.4,2.5-2.9,3.2-4.8
				c0.5-1.1,0.8-2.3,1.1-3.5c0.9,0.7,1.9,1.2,2.9,1.7C1047.8,276.1,1050.5,276.5,1053,276.4L1053,276.4z M1082.3,207.5
				c4.3,4,4.7,10.8,0.7,15.1c-0.2,0.2-0.3,0.3-0.5,0.6c-0.8-1.7-2-3.3-3.5-4.6c-0.9-0.8-1.9-1.6-2.9-2.1c0.9-0.7,1.7-1.4,2.5-2.2
				C1080.3,212.3,1081.6,210,1082.3,207.5L1082.3,207.5z M1071.3,162.6c3,1.3,4.9,4.5,4.6,7.8c-2.8-0.9-5.7-1-8.6-0.3
				c0.6-0.8,1.1-1.6,1.5-2.5c0.7-1.7,1.1-3.5,1.1-5.3C1070.3,162.2,1070.8,162.4,1071.3,162.6z M1046.1,151.5
				c0.4,0.2,0.7,0.3,1.1,0.7c-1.3,1.2-2.5,2.8-3.2,4.5c-0.4,0.9-0.7,1.8-0.9,2.8c-0.5-0.8-1.1-1.6-1.7-2.4c-1.2-1.4-2.6-2.6-4.2-3.5
				C1039.3,151.1,1043,150.2,1046.1,151.5z M993.8,183.6c0.5-5.9,5.6-10.2,11.5-9.8c0,0,0,0,0.1,0c-1.4,2.1-2.2,4.7-2.5,7.3
				c-0.1,1.1-0.1,2.3,0.1,3.4c-1.1-0.3-2.4-0.7-3.5-0.7c-2-0.2-3.9,0-5.7,0.6C993.8,184.1,993.8,183.9,993.8,183.6z M982.3,203.4
				L982.3,203.4c0.2,0.6,0.3,1.2,0.6,1.9l0.6-0.2c-0.7-2-1-4.2-0.8-6.4c0.7-8.5,8.3-14.9,16.9-14.2c1.3,0.1,2.5,0.3,3.7,0.7
				c0.4,2.5,1.5,5,3.1,7.1l0.4-0.3c-2.4-3.1-3.5-6.9-3.2-10.8c0.3-4.2,2.3-7.9,5.5-10.6c3.2-2.7,7.2-3.9,11.4-3.6
				c4.8,0.4,9.1,2.9,11.7,7l0.5-0.3c-1.7-2.6-4.2-4.7-7-5.9c-1.6-0.7-3.4-1.1-5.2-1.3c-2.4-0.2-4.7,0.1-7,0.9c0-0.4,0-0.8,0.1-1.2
				c0.7-8.5,8.3-14.9,16.9-14.2c4.2,0.3,7.9,2.3,10.6,5.5c0.7,0.9,1.4,1.9,2,2.9c0,0,0,0.1,0,0.2h0.1c1.2,2.5,1.8,5.3,1.6,8.3h0.6
				c0.2-3-0.3-6-1.6-8.6c0.2-1.1,0.5-2.3,1-3.4c2.9-6.5,10.5-9.5,17-6.6s9.5,10.5,6.6,17c-0.5,1.1-1.1,2.1-1.8,3
				c-2.8,0.8-5.3,2.4-7.4,4.6l0.4,0.3c2-2.2,4.6-3.7,7.2-4.5l0,0l0,0c3.4-1,7.1-0.7,10.5,0.7c1.5,0.7,2.9,1.6,4.3,2.8
				c6.3,5.8,6.8,15.6,1,22c-0.3,0.3-0.6,0.6-0.9,0.9c-0.9-2.1-2.3-4.1-4-5.7c-1.3-1.2-2.8-2.2-4.4-2.9c-2.8-1.2-6-1.6-9.1-1.1
				l0.1,0.6c4.7-0.7,9.5,0.7,13,3.8c3.1,2.8,4.9,6.6,5.1,10.8c0.2,4.2-1.2,8.1-4.1,11.2c-2.6,2.9-6.2,4.7-10.1,5v0.6
				c2.6-0.2,5.2-1.1,7.4-2.5c1.1,0.6,2.1,1.4,3.1,2.2c6.3,5.8,6.8,15.6,1,22c-1.5,1.6-3.2,2.9-5.2,3.8l0.2,0.5
				c0.6-0.2,1.1-0.6,1.7-0.9c7.8,3.5,11.3,12.6,7.9,20.5c-3.4,7.9-12.6,11.5-20.5,8c-0.3-0.2-0.7-0.3-1.1-0.6
				c1.7-1.5,3.2-3.4,4.2-5.6c2-4.6,1.8-9.7-0.6-14.1l-0.5,0.2c2.3,4.3,2.5,9.2,0.6,13.6c-3.4,7.9-12.6,11.5-20.5,8
				c-3.5-1.6-6.4-4.3-7.9-7.9l-0.5,0.2c1.1,2.5,2.8,4.5,4.8,6.1c-0.2,1.2-0.6,2.5-1.1,3.6c-3.4,7.9-12.6,11.5-20.5,8
				c-1.3-0.6-2.5-1.3-3.6-2.2c1.7-1.3,3.1-3.1,4-5.2c0.6-1.2,0.9-2.5,1.1-3.8l-0.6-0.1c-0.2,1.3-0.5,2.5-1,3.7c-0.9,2-2.3,3.8-3.9,5
				c-0.4-0.3-0.8-0.7-1.1-1.1l-0.4,0.4c0.3,0.4,0.7,0.7,1.1,1.1c-3.6,2.5-8.4,3.2-12.6,1.3c-4.3-1.9-7-5.9-7.7-10.2
				c0.4,0,0.9,0.1,1.4,0v-0.6c-0.5,0-1,0-1.4-0.1c-0.2-2,0.2-4.2,1.1-6.2c0.5-1.1,1.1-2.2,2-3.2l-0.4-0.3c-0.8,1-1.6,2.1-2,3.3
				c-0.9,2.1-1.2,4.3-1.1,6.4c-1.5-0.2-2.9-0.6-4.3-1.1c-7.9-3.4-11.5-12.6-8-20.5c0.5-1.1,1.1-2.3,2-3.3c2.5,0.4,5.2,0.2,7.7-0.7
				l-0.2-0.6c-3.7,1.2-7.7,1.1-11.2-0.5c-7.9-3.4-11.5-12.6-8-20.5c2-4.4,5.7-7.6,10.4-8.8l-0.2-0.6c-4.8,1.2-8.8,4.6-10.7,9.2
				c-1,2.2-1.4,4.6-1.4,6.9c-0.4-0.2-0.7-0.3-1.1-0.4c-7.9-3.4-11.5-12.6-8-20.5C965.3,203.5,974.3,199.8,982.3,203.4z"/>
			<g display="none">
				<path display="inline" fill="none" stroke="#F4F4F4" stroke-width="4" stroke-miterlimit="10" d="M1046.6,234.2
					c0.3,0,0.7-0.1,1.1-0.2c5.3-1.1,8.7-6.3,7.6-11.5c0-0.2-0.1-0.3-0.1-0.5"/>
				<path display="inline" fill="none" stroke="#F4F4F4" stroke-width="4" stroke-miterlimit="10" d="M1029.8,245.5
					c1.9,0.4,3.8,0.4,5.8,0c7.6-1.6,12.5-9.1,11-16.7c-0.2-1.2-0.7-2.4-1.1-3.4"/>
				<path display="inline" fill="none" stroke="#F4F4F4" stroke-width="4" stroke-miterlimit="10" d="M1038.7,223.5
					c2.9,1.7,6.5,2.4,10.1,1.6c7.6-1.6,12.5-9.1,11-16.7c-0.9-4.4-3.8-7.9-7.5-9.8"/>
			</g>
			<g display="none">
				<path display="inline" fill="none" stroke="#F4F4F4" stroke-width="4" stroke-miterlimit="10" d="M1005.6,227.6
					c-0.2-0.2-0.4-0.6-0.6-0.8c-2.8-4.6-1.3-10.6,3.4-13.4c0.2-0.1,0.3-0.2,0.4-0.2"/>
				<path display="inline" fill="none" stroke="#F4F4F4" stroke-width="4" stroke-miterlimit="10" d="M1008.8,247.6
					c-1.6-1.1-2.9-2.5-3.9-4.3c-4-6.6-1.9-15.4,4.8-19.4c1.1-0.7,2.1-1.1,3.3-1.4"/>
				<path display="inline" fill="none" stroke="#F4F4F4" stroke-width="4" stroke-miterlimit="10" d="M1019,226.1
					c-3.2-1-6.1-3.1-8-6.2c-4-6.6-1.9-15.4,4.8-19.4c3.8-2.3,8.4-2.5,12.3-1.1"/>
			</g>
		</g>
		<path fill="#FFFFFF" d="M1083.2,284.3c13.9,6.2,20.1,22.5,14,36.4c0,0.1-0.1,0.2-0.1,0.2c-4-5.1-9.3-9.3-15.6-12.1
			c-2.7-1.2-5.5-2.1-8.4-2.7c1.9-2.5,3.4-5.2,4.7-8.1c2.1-4.7,3.2-9.6,3.5-14.4C1082,283.8,1082.6,283.9,1083.2,284.3z M896,231
			c6.2-13.9,22.5-20.1,36.4-14c0.6,0.2,1.1,0.6,1.7,0.8c-3.4,3.4-6.3,7.6-8.4,12.3c-1.3,2.9-2.2,5.9-2.8,8.9
			c-2.4-1.7-4.9-3.2-7.5-4.3c-6.3-2.8-13-3.9-19.5-3.5C895.8,231.1,895.8,231,896,231z M819.1,407.8c-11.1-10.3-11.9-27.8-1.5-39
			c0.4-0.5,0.9-0.9,1.4-1.4c2.1,4.3,5.2,8.4,8.9,12c2.3,2.1,4.8,4,7.5,5.6c-2.4,1.6-4.6,3.6-6.6,5.7c-4.6,5-7.9,10.9-9.6,17.3
			C819.3,407.9,819.3,407.8,819.1,407.8z M846.5,523.6c-7.8-3.5-12.4-11.7-11.5-20.1c7.1,2.4,14.8,2.7,22.1,1.1
			c-1.5,2-2.8,4.2-3.8,6.5c-2,4.5-2.9,9.2-3,13.8C849,524.5,847.8,524.1,846.5,523.6z M911.3,552.5c-1-0.4-2-1-2.9-1.6
			c3.4-3.1,6.3-7,8.4-11.5c1.1-2.3,1.8-4.7,2.3-7.1c1.2,2.1,2.6,4.3,4.3,6.2c3.1,3.7,6.6,6.7,10.6,9.1
			C928.3,553.9,919.3,555.9,911.3,552.5z M1046.5,470.8c-1.4,15.1-14.8,26.4-30,25c-0.1,0-0.2,0-0.2,0c3.6-5.6,5.8-12,6.4-18.7
			c0.2-2.9,0.2-5.9-0.2-8.8c2.9,1,6.1,1.6,9.2,1.9c5.2,0.5,10.2,0,14.8-1.3C1046.6,469.5,1046.6,470.1,1046.5,470.8z M1076.3,420.3
			l-0.1,0.2c-0.3-1.7-0.8-3.4-1.4-5.1l-1.3,0.6c1.8,5.2,2.5,10.8,1.9,16.5c-2,22-21.5,38.2-43.6,36.3c-3.3-0.3-6.5-1-9.5-2
			c-1.1-6.6-3.7-12.9-7.9-18.4l-1.1,0.9c6,7.9,8.8,17.8,7.9,27.8c-1,10.6-6.1,20.3-14.2,27.2c-8.2,6.9-18.6,10.1-29.3,9.1
			c-12.3-1.1-23.3-7.7-30-18.1l-1.2,0.8c4.4,6.9,10.6,12.1,17.9,15.4c4.1,1.8,8.5,3,13.2,3.4c6.1,0.6,12.3-0.2,17.9-2.3
			c0,1.1-0.1,2.1-0.2,3.2c-2,22-21.5,38.2-43.6,36.3c-10.6-1-20.3-6.1-27.2-14.2c-2-2.4-3.6-4.9-5-7.6c0-0.2,0-0.2,0.1-0.4h-0.3
			c-3.2-6.5-4.6-13.8-3.8-21.2l-1.5-0.2c-0.7,7.7,0.7,15.3,4,22.1c-0.4,2.9-1.3,5.9-2.5,8.7c-7.5,16.8-27.2,24.3-43.9,16.9
			c-16.7-7.5-24.3-27.2-16.9-43.9c1.2-2.8,2.9-5.4,4.7-7.7c7-2,13.7-5.9,19.1-11.7l-1.1-1c-5.2,5.6-11.8,9.5-18.7,11.4h-0.1
			c0,0,0,0.1-0.1,0.1c-8.8,2.5-18.4,1.7-26.9-2c-3.8-1.7-7.6-4.2-10.9-7.2c-16.2-15.1-17.2-40.4-2.1-56.7c0.7-0.7,1.5-1.5,2.2-2.2
			c2.3,5.6,5.7,10.6,10.2,14.8c3.4,3.2,7.3,5.6,11.4,7.5c7.2,3.2,15.3,4.3,23.4,3l-0.2-1.5c-12.3,2-24.5-1.8-33.6-10.2
			c-7.9-7.3-12.4-17.2-12.8-27.8c-0.4-10.7,3.4-21,10.6-28.8c6.8-7.4,16-11.9,26-12.7l-0.1-1.5c-6.8,0.6-13.3,2.9-18.9,6.5
			c-2.9-1.6-5.5-3.5-7.9-5.7c-16.2-15.1-17.2-40.4-2.1-56.7c3.8-4.2,8.4-7.4,13.5-9.6l-0.6-1.4c-1.5,0.7-2.9,1.4-4.4,2.2
			c-20-9.1-28.9-32.7-20-52.7c9-20.2,32.7-29.3,53-20.3c1,0.4,2,0.9,2.9,1.4c-4.5,3.8-8.2,8.8-10.7,14.5
			c-5.2,11.7-4.7,24.9,1.2,36.3l1.3-0.7c-5.7-11-6.2-23.7-1.1-35c9-20.2,32.7-29.3,53-20.3c9.1,4.1,16.4,11.3,20.4,20.5l1.4-0.6
			c-2.8-6.3-7-11.6-12.3-15.8c0.6-3.2,1.6-6.3,2.9-9.3c9-20.2,32.7-29.3,53-20.3c3.4,1.5,6.5,3.4,9.3,5.7
			c-4.3,3.4-7.9,7.9-10.3,13.3c-1.4,3.2-2.4,6.5-2.8,9.9l1.5,0.2c0.4-3.3,1.3-6.5,2.6-9.5c2.4-5.2,5.9-9.6,10.2-12.9c1.1,1,2,2,3,3
			l1.1-1c-0.9-1.1-1.9-2-2.9-2.9c9.3-6.4,21.5-8,32.6-3.1c11.1,4.9,18.2,15.2,19.5,26.5c-1.1-0.1-2.4-0.2-3.5-0.2v1.5
			c1.2,0,2.5,0.1,3.7,0.2c0.4,5.2-0.5,10.8-2.8,16c-1.3,2.9-3,5.6-5.2,8.1l1.1,1c2.1-2.5,4-5.4,5.3-8.4c2.4-5.3,3.3-10.9,2.9-16.4
			c3.8,0.5,7.5,1.6,11,3.1c20.2,9,29.3,32.7,20.3,53c-1.3,3-3,5.8-5,8.4c-6.6-1.1-13.4-0.7-20,1.5l0.4,1.4
			c9.5-3.1,19.7-2.6,28.8,1.5c20.2,9,29.3,32.7,20.3,53c-5,11.3-14.8,19.5-26.9,22.5l0.3,1.4c12.4-3.2,22.6-11.6,27.8-23.4
			c2.5-5.7,3.7-11.8,3.6-17.7c1,0.3,2,0.7,2.9,1.1c20.2,9,29.3,32.7,20.3,53C1120.3,420.2,1096.6,429.3,1076.3,420.3z"/>
		<path fill="#F4F4F4" d="M1130.6,400.7c9.3-21-0.1-45.5-21-54.9c-1.1-0.5-2.4-1-3.6-1.4c-0.5-8-3.2-15.7-7.9-22.2
			c0.2-0.3,0.3-0.7,0.4-0.9c6.5-14.7-0.1-31.8-14.7-38.3c-0.7-0.3-1.6-0.7-2.4-0.9c0.3-16.2-8.9-31.8-24.6-38.9
			c-3.8-1.7-7.7-2.8-11.7-3.3c-1.3-11.9-8.7-22.8-20.4-28c-11.6-5.2-24.6-3.4-34.3,3.4c-2.9-2.5-6.3-4.6-9.8-6.1
			c-15.7-7-33.6-3.4-45.4,7.7c-0.7-0.4-1.5-0.7-2.2-1.1c-14.7-6.5-31.8,0.1-38.3,14.7c-0.2,0.3-0.2,0.7-0.4,1
			c-7.9,0.8-15.6,3.9-21.8,8.9c-1.1-0.7-2.3-1.2-3.5-1.7c-21-9.3-45.5,0.1-54.9,21c-9.1,20.5-0.2,44.5,19.8,54.3
			c-2.9,1.9-5.6,4.2-8.1,6.8c-11.7,12.6-14,30.6-7.4,45.4c-0.7,0.6-1.2,1.1-1.8,1.7c-10.9,11.8-10.2,30.2,1.6,41.1
			c0.2,0.2,0.5,0.4,0.7,0.7c-0.8,3.5-1.1,7.2-1.1,10.9c0.2,4.3,1,8.6,2.5,12.6c-1,0.8-1.9,1.7-2.8,2.7c-7.5,8.1-11.5,18.7-11.1,29.8
			c0.4,11.1,5.2,21.4,13.3,28.9c3.4,3.2,7.3,5.6,11.3,7.5c0.8,0.3,1.7,0.7,2.5,1.1c-1.1,9.2,3.8,18.2,12.4,21.9
			c1.4,0.7,2.9,1.1,4.3,1.4c0.4,12.9,8,25,20.5,30.5c12.4,5.6,26.5,3.2,36.4-5.1c1.1,0.7,2.2,1.4,3.4,2c8.5,3.8,18.6,1.5,24.6-5.6
			c1,0.6,2,1.1,3,1.5c4.1,1.8,8.5,3,13.2,3.4c11.1,1.1,21.9-2.4,30.4-9.5s13.8-17.1,14.8-28.2c0.1-1.3,0.2-2.5,0.2-3.8
			c3.9-1.6,7.7-3.8,11.1-6.6c2.9-2.4,5.3-5.1,7.5-8.1c0.3,0,0.7,0.1,1,0.1c16,1.5,30.1-10.3,31.6-26.3c0.1-0.8,0.1-1.6,0.1-2.5
			c15.5-4.9,27.3-18.7,28.8-35.9c0.3-3.5,0.2-7-0.3-10.6C1097.3,430.8,1121.5,421.3,1130.6,400.7z M1083.2,284.3
			c13.9,6.2,20.1,22.5,14,36.4c0,0.1-0.1,0.2-0.1,0.2c-4-5.1-9.3-9.3-15.6-12.1c-2.7-1.2-5.5-2.1-8.4-2.7c1.9-2.5,3.4-5.2,4.7-8.1
			c2.1-4.7,3.2-9.6,3.5-14.4C1082,283.8,1082.6,283.9,1083.2,284.3z M896,231c6.2-13.9,22.5-20.1,36.4-14c0.6,0.2,1.1,0.6,1.7,0.8
			c-3.4,3.4-6.3,7.6-8.4,12.3c-1.3,2.9-2.2,5.9-2.8,8.9c-2.4-1.7-4.9-3.2-7.5-4.3c-6.3-2.8-13-3.9-19.5-3.5
			C895.8,231.1,895.8,231,896,231z M819.1,407.8c-11.1-10.3-11.9-27.8-1.5-39c0.4-0.5,0.9-0.9,1.4-1.4c2.1,4.3,5.2,8.4,8.9,12
			c2.3,2.1,4.8,4,7.5,5.6c-2.4,1.6-4.6,3.6-6.6,5.7c-4.6,5-7.9,10.9-9.6,17.3C819.3,407.9,819.3,407.8,819.1,407.8z M846.5,523.6
			c-7.8-3.5-12.4-11.7-11.5-20.1c7.1,2.4,14.8,2.7,22.1,1.1c-1.5,2-2.8,4.2-3.8,6.5c-2,4.5-2.9,9.2-3,13.8
			C849,524.5,847.8,524.1,846.5,523.6z M911.3,552.5c-1-0.4-2-1-2.9-1.6c3.4-3.1,6.3-7,8.4-11.5c1.1-2.3,1.8-4.7,2.3-7.1
			c1.2,2.1,2.6,4.3,4.3,6.2c3.1,3.7,6.6,6.7,10.6,9.1C928.3,553.9,919.3,555.9,911.3,552.5z M1046.5,470.8
			c-1.4,15.1-14.8,26.4-30,25c-0.1,0-0.2,0-0.2,0c3.6-5.6,5.8-12,6.4-18.7c0.2-2.9,0.2-5.9-0.2-8.8c2.9,1,6.1,1.6,9.2,1.9
			c5.2,0.5,10.2,0,14.8-1.3C1046.6,469.5,1046.6,470.1,1046.5,470.8z M1076.3,420.3l-0.1,0.2c-0.3-1.7-0.8-3.4-1.4-5.1l-1.3,0.6
			c1.8,5.2,2.5,10.8,1.9,16.5c-2,22-21.5,38.2-43.6,36.3c-3.3-0.3-6.5-1-9.5-2c-1.1-6.6-3.7-12.9-7.9-18.4l-1.1,0.9
			c6,7.9,8.8,17.8,7.9,27.8c-1,10.6-6.1,20.3-14.2,27.2c-8.2,6.9-18.6,10.1-29.3,9.1c-12.3-1.1-23.3-7.7-30-18.1l-1.2,0.8
			c4.4,6.9,10.6,12.1,17.9,15.4c4.1,1.8,8.5,3,13.2,3.4c6.1,0.6,12.3-0.2,17.9-2.3c0,1.1-0.1,2.1-0.2,3.2c-2,22-21.5,38.2-43.6,36.3
			c-10.6-1-20.3-6.1-27.2-14.2c-2-2.4-3.6-4.9-5-7.6c0-0.2,0-0.2,0.1-0.4h-0.3c-3.2-6.5-4.6-13.8-3.8-21.2l-1.5-0.2
			c-0.7,7.7,0.7,15.3,4,22.1c-0.4,2.9-1.3,5.9-2.5,8.7c-7.5,16.8-27.2,24.3-43.9,16.9c-16.7-7.5-24.3-27.2-16.9-43.9
			c1.2-2.8,2.9-5.4,4.7-7.7c7-2,13.7-5.9,19.1-11.7l-1.1-1c-5.2,5.6-11.8,9.5-18.7,11.4h-0.1c0,0,0,0.1-0.1,0.1
			c-8.8,2.5-18.4,1.7-26.9-2c-3.8-1.7-7.6-4.2-10.9-7.2c-16.2-15.1-17.2-40.4-2.1-56.7c0.7-0.7,1.5-1.5,2.2-2.2
			c2.3,5.6,5.7,10.6,10.2,14.8c3.4,3.2,7.3,5.6,11.4,7.5c7.2,3.2,15.3,4.3,23.4,3l-0.2-1.5c-12.3,2-24.5-1.8-33.6-10.2
			c-7.9-7.3-12.4-17.2-12.8-27.8c-0.4-10.7,3.4-21,10.6-28.8c6.8-7.4,16-11.9,26-12.7l-0.1-1.5c-6.8,0.6-13.3,2.9-18.9,6.5
			c-2.9-1.6-5.5-3.5-7.9-5.7c-16.2-15.1-17.2-40.4-2.1-56.7c3.8-4.2,8.4-7.4,13.5-9.6l-0.6-1.4c-1.5,0.7-2.9,1.4-4.4,2.2
			c-20-9.1-28.9-32.7-20-52.7c9-20.2,32.7-29.3,53-20.3c1,0.4,2,0.9,2.9,1.4c-4.5,3.8-8.2,8.8-10.7,14.5
			c-5.2,11.7-4.7,24.9,1.2,36.3l1.3-0.7c-5.7-11-6.2-23.7-1.1-35c9-20.2,32.7-29.3,53-20.3c9.1,4.1,16.4,11.3,20.4,20.5l1.4-0.6
			c-2.8-6.3-7-11.6-12.3-15.8c0.6-3.2,1.6-6.3,2.9-9.3c9-20.2,32.7-29.3,53-20.3c3.4,1.5,6.5,3.4,9.3,5.7
			c-4.3,3.4-7.9,7.9-10.3,13.3c-1.4,3.2-2.4,6.5-2.8,9.9l1.5,0.2c0.4-3.3,1.3-6.5,2.6-9.5c2.4-5.2,5.9-9.6,10.2-12.9c1.1,1,2,2,3,3
			l1.1-1c-0.9-1.1-1.9-2-2.9-2.9c9.3-6.4,21.5-8,32.6-3.1c11.1,4.9,18.2,15.2,19.5,26.5c-1.1-0.1-2.4-0.2-3.5-0.2v1.5
			c1.2,0,2.5,0.1,3.7,0.2c0.4,5.2-0.5,10.8-2.8,16c-1.3,2.9-3,5.6-5.2,8.1l1.1,1c2.1-2.5,4-5.4,5.3-8.4c2.4-5.3,3.3-10.9,2.9-16.4
			c3.8,0.5,7.5,1.6,11,3.1c20.2,9,29.3,32.7,20.3,53c-1.3,3-3,5.8-5,8.4c-6.6-1.1-13.4-0.7-20,1.5l0.4,1.4
			c9.5-3.1,19.7-2.6,28.8,1.5c20.2,9,29.3,32.7,20.3,53c-5,11.3-14.8,19.5-26.9,22.5l0.3,1.4c12.4-3.2,22.6-11.6,27.8-23.4
			c2.5-5.7,3.7-11.8,3.6-17.7c1,0.3,2,0.7,2.9,1.1c20.2,9,29.3,32.7,20.3,53C1120.3,420.2,1096.6,429.3,1076.3,420.3z"/>
		<g>
			<path fill="none" stroke="#F4F4F4" stroke-width="4" stroke-miterlimit="10" d="M911.5,339.7c-0.9,0.1-1.7,0.2-2.6,0.3
				c-13.7,2.8-22.5,16-19.7,29.6c0.1,0.4,0.2,0.8,0.3,1.2"/>
			<path fill="none" stroke="#F4F4F4" stroke-width="4" stroke-miterlimit="10" d="M955,310.9c-4.8-1.1-9.8-1.1-15-0.2
				c-19.6,3.9-32.4,23.1-28.5,42.7c0.7,3.1,1.6,6,2.9,8.8"/>
			<path fill="none" stroke="#F4F4F4" stroke-width="4" stroke-miterlimit="10" d="M931.8,367.4c-7.5-4.5-16.5-6.3-25.8-4.4
				c-19.6,3.9-32.4,23.1-28.5,42.7c2.3,11.4,9.7,20.4,19.2,25.3"/>
		</g>
		<g>
			<path fill="none" stroke="#F4F4F4" stroke-width="4" stroke-miterlimit="10" d="M1016.6,357.5c0.5,0.7,1,1.4,1.5,2.2
				c7.1,12,3.1,27.4-8.8,34.5c-0.3,0.2-0.7,0.4-1.1,0.7"/>
			<path fill="none" stroke="#F4F4F4" stroke-width="4" stroke-miterlimit="10" d="M1008.8,305.9c4,2.9,7.5,6.5,10.2,11.1
				c10.2,17.3,4.5,39.5-12.8,49.8c-2.7,1.6-5.6,2.8-8.4,3.7"/>
			<path fill="none" stroke="#F4F4F4" stroke-width="4" stroke-miterlimit="10" d="M982.5,361.1c8.4,2.5,15.8,8.1,20.5,16.2
				c10.2,17.3,4.5,39.5-12.8,49.8c-10,5.9-21.6,6.5-31.6,2.6"/>
		</g>
		<polygon fill="#FFFFFF" points="964.3,211 964.3,205.5 1006.5,192.5 1076,231.3 1080.8,252.2 1075.8,260.2 1071.8,266.7 
			1001.5,272.1 963.5,248.5 		"/>
	</g>
</g>
<g id="Robot">
	<g>
		<path fill="#FFFFFF" d="M1008.6,124l-19.2,30.9c-0.6,1,0.9,1.9,1.5,0.9l19.2-30.9C1010.8,124,1009.3,123.1,1008.6,124"/>
		<path fill="#FFFFFF" d="M1013,107.8l-21.8,34.8c-0.6,0.9,0.8,1.8,1.4,0.9l21.8-34.8C1015,107.8,1013.5,106.9,1013,107.8"/>
		<path fill="#FFFFFF" d="M998.6,121.4l-30.2,48.3c-0.6,1,0.9,1.9,1.5,0.9l30.2-48.3C1000.6,121.4,999.1,120.4,998.6,121.4"/>
		<path fill="#FFFFFF" d="M1147.8,128.1l-25.6,56.5c-0.6,1.3,1.4,2.2,2,0.9l25.6-56.5C1150.5,127.7,1148.5,126.8,1147.8,128.1"/>
		<path fill="#FFFFFF" d="M1161,84l-38.6,85.1c-0.6,1.2,1.4,2.1,2,0.9l38.6-85.1C1163.6,83.7,1161.6,82.8,1161,84"/>
		<path fill="#FFFFFF" d="M1142,110.9l-40.1,88.5c-0.6,1.3,1.4,2.2,2,0.9l40.1-88.5C1144.6,110.6,1142.6,109.7,1142,110.9"/>
	</g>
	<g>
		<path fill="#FFFFFF" d="M1067.5,180.5c-8.7,0-19-2.6-30.6-7.7c-23-10.2-31.4-21.7-27.9-38.6c-1.6-5.2-1.7-10.9-0.2-17.5
			c-0.7,1.6-1.8,3-3.1,4.3l-17.9,16.1c-2,1.7-4.3,2.9-6.9,3.3l-4.8,6.3c-1.8,2.4-5.4,2.9-7.8,1c-1.1-0.9-2-2.2-2.1-3.7
			c0-0.1,0-0.2,0-0.3c-2.1,0.6-4.4-0.2-5.7-1.9c-0.9-1.1-1.3-2.6-1.1-4c0.1-0.7,0.2-1.2,0.5-1.7c-2-0.3-3.7-1.7-4.4-3.6
			c-0.5-1.4-0.4-2.9,0.2-4.3c0.7-1.3,1.7-2.3,3.1-2.8l5.4-1.9c0.5-3,2-5.9,4.3-7.9l17.9-16.1c2.1-2,4.9-3.1,7.9-3.4
			c3-2.9,7.5-4.1,11.5-2.9c0.3,0.1,0.6,0.2,0.8,0.2l3.7-3.4c-0.4-1-0.7-2-0.7-3.1c-1.1-8.7,5-16.7,13.7-17.8c2.9-0.4,5.6,0,8.2,1.1
			l0.8-1.4c3.9-6.7,8.1-13.9,12.4-21.7c3.2-5.7,6.6-11,10.3-15.6c0-1.7,0.4-3.4,1.1-5.1c1.1-2.3,2.8-4.2,4.8-5.4l1.5-4.9l2,0.6
			l2.7-9.3c-0.5-1.1-0.6-2.4-0.2-3.5c0.8-2.8,3.8-4.4,6.6-3.6c2.9,0.8,4.4,3.8,3.6,6.6c-0.3,1.1-1.1,2.2-2.1,2.9l-1.1,3.9
			c21.9-14.2,40.1-7.7,40.5-7.5c8.9,3.2,15.6,8.8,19.9,16.7c1.1-2.2,3.8-3.4,6.3-2.7c2.9,0.8,4.4,3.8,3.6,6.6
			c-0.3,1.1-1.1,2.2-2.1,2.9l-2.7,9.1c0.6,0.4,1,1.1,1.1,2c0.2,0.8,0.2,1.7-0.1,2.4c2.4,3.1,2.8,7.6,1,11.6c-0.5,1.1-1.1,2-1.9,2.9
			c-0.5,5.4-1.4,11.2-2.7,17.3c0.6,2.5,0.5,5.1-0.2,7.5c-0.6,2-1.6,3.8-3,5.4c-0.5,1.7-1,3.5-1.6,5.2h0.1l-3.5,10.2
			c-0.2,0.7-0.6,1.6-0.8,2.3l0,0l-0.3,0.8l2.5-1.3c-0.2-3.2,0.9-6.3,3-8.6c0.2-2,0.9-4,2-5.7l13-20.3c1.5-2.2,3.5-4,6.1-5.1l3.3-7.6
			c1.1-2.8,4.4-4.2,7.2-3c1.4,0.6,2.5,1.6,3,2.9c0,0.1,0.1,0.2,0.1,0.2c1.6-0.7,3.5-0.5,5,0.4c1.2,0.7,2.1,2,2.5,3.4
			c0.1,0.3,0.2,0.7,0.2,1.1c1.6-0.2,3.4,0.4,4.6,1.6c2.2,2.1,2.2,5.6,0.1,7.8l-5.2,5.2c0.3,3.1-0.3,6.1-2,8.8l-13,20.3
			c-2,2.9-5,5.1-8.4,5.8c-0.3,0.4-0.7,0.8-1.1,1.1c-2.2,2-5,3-7.9,3l0,0c-1.5,0-2.9-0.2-4.3-0.8l-7.9,4.2c-0.1,0.8-0.2,1.6-0.5,2.3
			c-1.7,5.9-6.8,10.2-12.9,11.1c-0.3,0.7-0.7,1.6-1.1,2.3l0.5-0.1l-3.2,5.6c-5.4,11.2-9.7,18.7-9.7,18.7c-0.2,0.2-3,5.2-10.7,8.4
			l0,0l-4.3,4.7c-0.2,0.2-0.4,0.5-0.7,0.7l-0.6,0.6c-0.3,0.3-0.7,0.6-1,0.8c-0.2,0.2-0.4,0.3-0.6,0.5c-0.3,0.2-0.8,0.6-1.3,0.9
			l-0.7,0.4c-0.6,0.3-1.1,0.7-1.8,1c-0.2,0.1-0.3,0.2-0.5,0.2l-0.6,0.2C1076.8,179.8,1072.3,180.5,1067.5,180.5z M1020.1,101.9
			l-0.6,1.2c-6.1,13.3-7.8,22.6-5.2,30.1l0.2,0.7l-0.2,0.7c-2.4,10.5-1,21.8,24.6,33c16.9,7.5,30.7,9.2,39.7,5.1l0.4-0.2
			c0.5-0.2,1-0.5,1.4-0.7l0.5,0.6l0.3-0.3l-0.3-0.6c0.3-0.2,0.7-0.4,1-0.7l0.4-0.3c0.2-0.2,0.6-0.4,0.7-0.7l0.8-0.8
			c0.4-0.5,0.7-0.8,0.7-0.9l0,0c0,0,0.7-1.1,1.6-2.9l0.6-1l1.1-0.3c7.5-2.4,10.2-6.7,10.3-6.9c0-0.1,4.2-7.4,9.6-18.5l0.7-1.6
			c1.1-2.4,2.3-4.9,3.5-7.5l0.7-1.6l1.7-0.1c4.4-0.2,8.3-3.2,9.5-7.4c0.2-0.7,0.3-1.6,0.4-2.5l0.1-1.6l13.2-7l1.3,0.7
			c1,0.5,2,0.7,3.1,0.7l0,0c1.6,0,3-0.6,4.3-1.6c0.3-0.3,0.7-0.7,1-1.1l0.7-1l1.2-0.2c2.4-0.3,4.5-1.6,5.7-3.5l13-20.3
			c1.1-1.8,1.6-3.9,1-6.1l-0.3-1.5l7.3-7.4l-7,7l-2-2c-0.1-0.1-0.2-0.2-0.4-0.3l-1.9-1.6l1.1-2.2l3.8-6.3l-5.1,8.3l-2.1-0.8
			c-0.2-0.1-0.4-0.2-0.6-0.2l-3-0.8l0.9-2.9l2.7-6.6l-3.8,10l-1.4,0.4c-1.3,0.4-3.1,1.2-4.3,3.3l-13,20.3c-0.7,1.1-1.1,2.5-1.2,4
			v1.1l-0.9,0.8c-1.7,1.6-2.5,3.9-1.9,6.3l0.5,2l-12,6.4l-1.3-2.2c-0.2-0.4-0.5-0.7-0.7-1.1h-2.2l1.4-3.8c1-2.5,1.9-5.2,2.8-7.8
			l1.6-4.7c1-3,2-6.1,2.9-9.3l0.2-0.7l0.5-0.5c1-1.1,1.8-2.4,2.2-3.8c0.5-1.6,0.5-3.4,0-5.1l-0.2-0.7l0.2-0.7
			c1.4-6.4,2.3-12.5,2.8-18.1l0.1-1.1l0.7-0.7c0.7-0.6,1.1-1.3,1.5-2c1-2.1,0.7-4.6-0.4-6.1l-1.2,1.4l-0.3-2.8l-1.2-1.1l1-1.2
			l-0.2-1.4c-0.1-0.5-0.2-0.9-0.2-1.4l-0.5-1.4l0.2-0.5l-1.1-4.3c-3.1-11.3-9.7-18.7-20.1-22.4l0,0c0,0-20-6.9-41.9,11.6l-7,6
			l1.1-3.6l-0.4,0.2c-1.4,0.6-2.5,1.7-3.2,3.3c-0.5,1.1-0.7,2.3-0.7,3.4l0.1,1.1l-0.7,0.9c-3.8,4.7-7.2,9.9-10.5,15.7
			c-4.3,7.9-8.6,15.1-12.5,21.8l-3.6,6.1l-2.5-1.6c-2.1-1.4-4.5-2-7-1.6c-5.6,0.7-9.7,6-8.9,11.6c0.2,1.1,0.5,2.1,1.1,3.3l1,1.9
			l-9.6,8.7l-1.7-1c-0.6-0.3-1-0.6-1.5-0.7c-2.5-0.7-5.1,0.2-6.7,2l-0.8,1h-1.3l0,0c-2,0-3.9,0.7-5.3,2l-17.9,16.1
			c-1.6,1.5-2.5,3.6-2.5,5.9l-0.1,2l1.1,2c0.1,0.1,0.2,0.2,0.2,0.3l1.8,2.5l-7.9,6.1l7.8-6.1l1.7,1.2c0.2,0.1,0.3,0.2,0.5,0.2
			l2.8,1.6l-1.7,2.6l2.3-2.9l1.2-0.1c1.9-0.1,3.5-0.7,4.8-2l17.9-16.1c1.7-1.6,2.3-3.5,2.5-4.8l0.2-1.3l1.1-0.7
			c1.4-0.8,2.4-2.2,2.8-3.7c0.2-1,0.3-2,0.1-3.1l-0.3-1.6l9.9-9l1.7,1c0.4,0.2,0.7,0.4,0.7,0.5l2.5,1.2l-1.3,2.5
			C1021.3,99.3,1020.8,100.6,1020.1,101.9z"/>
		<g>
			<path fill="#0E5588" d="M1135.8,97.7c-2.5,2.3-3.5,5.8-2.7,8.9l4.7-2.5C1136.5,102.3,1135.8,100,1135.8,97.7z"/>
			<path fill="#0E5588" d="M1142.3,108.1l-1.8-1.1c-0.7-0.4-1.2-0.9-1.8-1.5l2.6,5l-3.8,2c3.4,1.8,7.5,1.5,10.5-1.2
				c0.6-0.5,1-1.1,1.4-1.6C1147.2,110,1144.6,109.5,1142.3,108.1z"/>
			<path fill="#0E5588" d="M1138.8,105.5c-0.4-0.4-0.8-0.9-1.1-1.4l-4.7,2.5l-7.9,4.2c1.3,2.2,2,4.7,1.9,7.3l10.5-5.6l3.8-2
				L1138.8,105.5z"/>
			<path fill="#2F91CF" d="M1160.8,77.7c-1-0.7-2.1-1-3.3-1c-2.1,0-4,1.1-5.2,2.8l-7.1,11.1c-1.8,2.9-1,6.6,1.9,8.4
				c1,0.7,2.1,1,3.3,1c2.1,0,4-1.1,5.2-2.8l7.1-11.1C1164.5,83.3,1163.6,79.5,1160.8,77.7z"/>
			<path fill="#2F91CF" d="M1161.8,76.1c-1.3-0.8-2.8-1.2-4.3-1.2c-2.7,0-5.2,1.4-6.7,3.7l-7.1,11.1c-2.4,3.7-1.3,8.6,2.4,11.1
				c1.3,0.8,2.8,1.2,4.3,1.2c2.7,0,5.2-1.4,6.7-3.7l7.1-11.1C1166.6,83.4,1165.5,78.5,1161.8,76.1z M1162.7,86.1l-7.1,11.1
				c-1.1,1.8-3,2.8-5.2,2.8c-1.1,0-2.3-0.3-3.3-1c-2.9-1.8-3.7-5.6-1.9-8.4l7.1-11.1c1.1-1.8,3-2.8,5.2-2.8c1.1,0,2.3,0.3,3.3,1
				C1163.6,79.5,1164.5,83.3,1162.7,86.1z"/>
			<path opacity="0.4" fill="#FFFFFF" enable-background="new    " d="M1161.8,76.1c-1.3-0.8-2.8-1.2-4.3-1.2
				c-2.7,0-5.2,1.4-6.7,3.7l-7.1,11.1c-2.4,3.7-1.3,8.6,2.4,11.1c1.3,0.8,2.8,1.2,4.3,1.2c2.7,0,5.2-1.4,6.7-3.7l7.1-11.1
				C1166.6,83.4,1165.5,78.5,1161.8,76.1z M1162.7,86.1l-7.1,11.1c-1.1,1.8-3,2.8-5.2,2.8c-1.1,0-2.3-0.3-3.3-1
				c-2.9-1.8-3.7-5.6-1.9-8.4l7.1-11.1c1.1-1.8,3-2.8,5.2-2.8c1.1,0,2.3,0.3,3.3,1C1163.6,79.5,1164.5,83.3,1162.7,86.1z"/>
			<path fill="#2F91CF" d="M1123.8,108.7l-0.2,0.6l0,0c-0.6,1.5-1.1,2.9-1.6,4.3c1,2,1.3,4.3,0.7,6.5c-0.8,2.9-3,5-5.8,5.9
				c-0.7,1.6-1.4,3.2-2.1,4.7c5.4-0.2,10.4-3.8,12-9.3c0.3-1.1,0.5-2.1,0.5-3.2c0.1-2.6-0.6-5.2-1.9-7.3
				C1124.8,110,1124.3,109.4,1123.8,108.7z"/>
			<path fill="#2F91CF" d="M1120.7,119.5c0.3-1.1,0.3-2.3,0.1-3.4c-1,2.5-2,4.8-2.9,7.1C1119.3,122.4,1120.2,121.1,1120.7,119.5z"/>
			<path fill="#2F91CF" d="M1120.7,119.5c-0.5,1.6-1.6,2.9-2.9,3.8c-0.4,0.9-0.7,1.8-1.1,2.6c2.7-0.9,4.9-3,5.8-5.9
				c0.7-2.3,0.4-4.6-0.7-6.5c-0.3,0.8-0.7,1.7-1.1,2.6C1121.1,117.2,1121.1,118.4,1120.7,119.5z"/>
			<path opacity="0.4" fill="#FFFFFF" enable-background="new    " d="M1120.7,119.5c-0.5,1.6-1.6,2.9-2.9,3.8
				c-0.4,0.9-0.7,1.8-1.1,2.6c2.7-0.9,4.9-3,5.8-5.9c0.7-2.3,0.4-4.6-0.7-6.5c-0.3,0.8-0.7,1.7-1.1,2.6
				C1121.1,117.2,1121.1,118.4,1120.7,119.5z"/>
			<path fill="#2F91CF" d="M1177.8,66.2c-1.1-1.1-2.9-1.1-3.9,0l-5.1,5.1c-0.2-0.2-0.5-0.4-0.7-0.7l3.8-6.3c0.8-1.3,0.4-3-0.9-3.8
				c-1.3-0.8-3-0.4-3.8,0.9l-3.8,6.3c-0.4-0.2-0.7-0.2-1.1-0.3l2.7-6.6c0.6-1.4-0.1-3-1.6-3.6c-1.4-0.6-3,0.1-3.6,1.6l-3.4,8.5
				c0,0.1,0,0.2-0.1,0.2c-2.3,0.7-4.4,2.2-5.9,4.3l-13,20.3c-1.1,1.7-1.6,3.6-1.6,5.5c-0.1,2.3,0.6,4.6,2,6.5
				c0.3,0.5,0.7,0.9,1.1,1.4c0.6,0.6,1.1,1.1,1.8,1.5l1.8,1.1c2.2,1.4,4.7,1.9,7,1.6c3-0.4,5.9-2,7.7-4.7l13-20.3
				c1.6-2.5,2-5.5,1.4-8.2l6.2-6.3C1178.8,69,1178.8,67.3,1177.8,66.2z M1164.2,87.1l-7.1,11.1c-1.5,2.3-4,3.7-6.7,3.7
				c-1.6,0-3-0.4-4.3-1.2c-3.7-2.4-4.7-7.3-2.4-11.1l7.1-11.1c1.5-2.3,4-3.7,6.7-3.7c1.6,0,3,0.4,4.3,1.2
				C1165.5,78.5,1166.6,83.4,1164.2,87.1z"/>
			<path fill="#2F91CF" d="M1136.8,56.4c0.8-0.7,1.5-1.7,2-2.9c1.7-3.7,0.8-7.8-1.8-9.9l0.7-2.3l-1-0.3
				C1137.3,45.9,1137.3,51.1,1136.8,56.4z"/>
			<path fill="#62A9CC" d="M1139.7,27.7c0.8-0.2,1.5-0.8,1.8-1.7c0.4-1.4-0.4-2.8-1.7-3.2c-1.4-0.4-2.8,0.4-3.2,1.7
				c-0.2,0.9,0,1.7,0.6,2.4l-1.8,6.1c0.5,1.9,0.9,3.8,1.1,5.7L1139.7,27.7z"/>
			<path fill="#2F91CF" d="M1085.1,172c-0.2,0.2-0.6,0.5-0.8,0.7C1084.5,172.5,1084.8,172.3,1085.1,172z"/>
			<path fill="#2F91CF" d="M1086.1,171c-0.2,0.2-0.4,0.4-0.6,0.7C1085.7,171.4,1085.8,171.3,1086.1,171z"/>
			<path fill="#2F91CF" d="M1082.1,174.3c-0.5,0.3-1.1,0.6-1.6,0.8C1081,174.9,1081.6,174.5,1082.1,174.3z"/>
			<path fill="#2F91CF" d="M1083.8,173.2c-0.3,0.2-0.7,0.6-1.1,0.8C1083,173.6,1083.3,173.4,1083.8,173.2z"/>
			<path fill="#2F91CF" d="M1041.8,159.2c-17.6-7.8-26.8-15.8-30-25.1c-3.4,15,3,26,26.1,36.2c22.2,9.7,35,8.2,41.9,5.1
				c-9.1,0.2-18.9-1.1-28.9-4c-16.3-4.8-29.8-13.1-38.7-22.5c-0.7-2-1-3.9-1.1-6.1c0-0.3,0-0.7,0-1c8.8,10.6,23.3,20.1,41.2,25.3
				c11.9,3.5,23.5,4.7,33.8,3.9c0.7-0.7,1-1.3,1-1.3s0.7-1.1,1.7-3.1C1080,169.4,1065.3,169.6,1041.8,159.2z"/>
			<path opacity="0.25" fill="#0E5588" enable-background="new    " d="M1086.1,170.9L1086.1,170.9
				C1086.1,171,1086.1,171,1086.1,170.9C1086.1,171,1086.1,171,1086.1,170.9z"/>
			<path opacity="0.25" fill="#0E5588" enable-background="new    " d="M1080,175.4c0.2-0.1,0.3-0.2,0.5-0.2
				C1080.3,175.2,1080.1,175.3,1080,175.4L1080,175.4z"/>
			<path opacity="0.25" fill="#0E5588" enable-background="new    " d="M1084.3,172.7c-0.2,0.2-0.3,0.2-0.5,0.4
				C1084,173,1084.1,172.9,1084.3,172.7z"/>
			<path opacity="0.25" fill="#0E5588" enable-background="new    " d="M1082.6,174c-0.2,0.1-0.3,0.2-0.6,0.3
				C1082.3,174.2,1082.3,174.1,1082.6,174z"/>
			<path opacity="0.25" fill="#0E5588" enable-background="new    " d="M1085.5,171.7c-0.2,0.2-0.2,0.2-0.4,0.4
				C1085.3,171.9,1085.3,171.8,1085.5,171.7z"/>
			<path fill="#2F91CF" d="M1052.3,167c-17.8-5.3-32.4-14.7-41.2-25.3c0,0.3,0,0.7,0,1c0.2,2.1,0.5,4.1,1.1,6.1
				c8.9,9.5,22.4,17.7,38.7,22.5c10,2.9,19.9,4.2,28.9,4c0.2-0.1,0.3-0.2,0.5-0.2c0.6-0.2,1.1-0.6,1.6-0.8c0.2-0.1,0.3-0.2,0.6-0.3
				c0.4-0.2,0.8-0.6,1.1-0.8c0.2-0.2,0.3-0.2,0.5-0.4c0.3-0.2,0.6-0.5,0.8-0.7c0.2-0.2,0.2-0.2,0.4-0.4c0.2-0.2,0.4-0.4,0.6-0.7
				c0,0,0-0.1,0.1-0.1C1075.8,171.8,1064.2,170.5,1052.3,167z"/>
			<path opacity="0.25" fill="#0E5588" enable-background="new    " d="M1052.3,167c-17.8-5.3-32.4-14.7-41.2-25.3c0,0.3,0,0.7,0,1
				c0.2,2.1,0.5,4.1,1.1,6.1c8.9,9.5,22.4,17.7,38.7,22.5c10,2.9,19.9,4.2,28.9,4c0.2-0.1,0.3-0.2,0.5-0.2c0.6-0.2,1.1-0.6,1.6-0.8
				c0.2-0.1,0.3-0.2,0.6-0.3c0.4-0.2,0.8-0.6,1.1-0.8c0.2-0.2,0.3-0.2,0.5-0.4c0.3-0.2,0.6-0.5,0.8-0.7c0.2-0.2,0.2-0.2,0.4-0.4
				c0.2-0.2,0.4-0.4,0.6-0.7c0,0,0-0.1,0.1-0.1C1075.8,171.8,1064.2,170.5,1052.3,167z"/>
			<path fill="#0E5588" d="M1095.3,139.8c-4.2,5.7-11.1,9.8-17.5,9.8c-3.8,0-6.7-1.4-8.5-3.8l-2.9,1.9v-0.1l2.6-2.2
				c-1.9-2.6-2.4-6.4-1.1-10.6c-33.3-10.2-50.3-32.5-50.7-33c-5.9,12.7-8.4,23.1-5.2,32.3c3.3,9.3,12.4,17.4,30,25.1
				c23.4,10.3,38.1,10.1,46.9,7.3s11.9-8.1,11.9-8.1s4.2-7.4,9.7-18.7c-3.5,0.2-4.6,0.3-7.9,0.3C1100,140.1,1097.6,140,1095.3,139.8
				z"/>
			<path fill="#0E5588" d="M1123.8,108.3c1-2.5,1.9-5.2,2.9-7.9c-3.9,0.4-5.4,0.3-9.1,0.3c-53.5,0-79.4-36.2-79.7-36.7l2.5-4.3
				c0.3,0.4,29.6,41.7,87.9,35.8c1-3.1,2-6.2,2.9-9.4c-2.2,2.3-5.3,3.8-8.8,3.8c-1.1,0-2.3-0.2-3.4-0.5c-0.4-0.2-0.8-0.3-1.2-0.5
				c-0.5-0.1-0.9-0.1-1.3-0.2c-6.5-1.9-10.1-8.7-8.2-15.1c1.9-6.5,8.7-10.1,15.1-8.2c0.5,0.2,0.8,0.4,1.2,0.6
				c0.4,0.1,0.8,0.2,1.3,0.3c3.1,0.9,5.6,2.9,7.2,5.8c0.5,0.8,0.7,1.7,1,2.5c1.4-6.3,2.4-12.5,2.9-18.5c0.4-5.3,0.5-10.5-0.1-15.4
				c-0.1-0.8-0.2-1.6-0.4-2.4c-0.3-2-0.7-3.8-1.1-5.7c-2.9-11.1-9.7-19.9-21.9-24.3c0,0-21.5-7.5-44.6,12.1v0.1l2,0.6l-0.7,2.3
				c2.6,2.1,3.4,6.2,1.8,9.9c-2,4.3-6.5,6.4-10.2,4.7c-2.3-1.1-3.8-3.4-4-6c-3.7,4.5-7.2,9.8-10.7,16.1c-4.5,8.1-8.8,15.6-12.9,22.5
				C1034.3,71.4,1063.3,114,1123.8,108.3z M1073,63.4c1.9-6.5,8.7-10.1,15.1-8.2c0.5,0.2,0.8,0.4,1.3,0.6c0.4,0.1,0.8,0.2,1.3,0.3
				c3.1,0.9,5.6,2.9,7.2,5.8s1.9,6.1,1,9.2c-1.5,5.1-6.3,8.6-11.5,8.6c-1.1,0-2.3-0.2-3.4-0.5c-0.4-0.2-0.8-0.3-1.2-0.5
				c-0.5-0.1-0.9-0.1-1.3-0.2C1074.7,76.5,1071,69.8,1073,63.4z"/>
			<path fill="#0E5588" d="M1087.2,57.4c-4.5,0-8.5,3-9.8,7.3c-0.7,2.6-0.5,5.4,0.8,7.8c1.3,2.4,3.4,4.2,6.1,4.9
				c0.9,0.2,2,0.4,2.9,0.4c4.5,0,8.5-3,9.8-7.3c0.7-2.6,0.5-5.4-0.8-7.8c-1.3-2.4-3.4-4.2-6.1-4.9
				C1089.1,57.6,1088.2,57.4,1087.2,57.4z M1092.8,60.7c2.7,0.8,4.2,3.6,3.4,6.3c-0.8,2.7-3.6,4.2-6.3,3.4c-2.7-0.8-4.2-3.6-3.4-6.3
				C1087.3,61.6,1090.1,60,1092.8,60.7z"/>
			<path fill="#0E5588" d="M1127.8,97.3l-0.6,1.8C1127.5,98.5,1127.6,97.9,1127.8,97.3z"/>
			<path fill="#0E5588" d="M1131.5,73.2c-1.3-2.4-3.4-4.2-6.1-4.9c-1-0.2-2-0.4-2.9-0.4c-4.5,0-8.5,3-9.8,7.3
				c-0.7,2.6-0.5,5.4,0.8,7.8c1.3,2.4,3.4,4.2,6.1,4.9c0.9,0.2,2,0.4,2.9,0.4c4.5,0,8.5-3,9.8-7.3
				C1133.1,78.4,1132.8,75.6,1131.5,73.2z M1131.2,77.5c-0.8,2.7-3.6,4.2-6.3,3.4c-2.7-0.7-4.2-3.6-3.4-6.3c0.8-2.7,3.6-4.2,6.3-3.4
				C1130.5,72,1132,74.8,1131.2,77.5z"/>
			<path fill="#0E5588" d="M1117.8,123.2c1-2.3,2-4.7,2.9-7.1c0.3-0.8,0.7-1.7,1.1-2.6c0.6-1.4,1.1-2.8,1.6-4.3
				c-3.8,0.3-5,0.3-8.5,0.3c-53.9,0-81.1-37.3-81.5-37.7c-0.4,0.7-0.7,1.4-1.1,2c3.1,2,5.4,5.3,5.9,9.3c1,7.2-4.1,13.8-11.3,14.7
				c-2.6,0.3-5.2-0.1-7.4-1.1c-0.7,1.4-1.4,2.8-2,4.2c0.3,0.4,16.9,23.4,50.4,33.6c2.9-8.4,12.1-15.1,20.5-15.1
				c3.5,0,6.3,1.2,8.2,3.3l6-2.4l0.3-0.1l-0.2,0.2l-5,3.6c0.2,0.3,0.3,0.7,0.5,1l5-3.8l0.2-0.2l-0.2,0.2l-4.4,5.3
				c0.7,2.3,0.6,5.1-0.5,8c-0.6,1.6-1.4,3.1-2.4,4.6c4.8,0.2,9.8,0.2,15.1-0.3c1.2-2.5,2.5-5.3,3.8-8.2c0.7-1.6,1.4-3.1,2.1-4.7
				C1117.1,125,1117.5,124.1,1117.8,123.2z"/>
			<circle fill="#FFFFFF" cx="1091.3" cy="65.7" r="5.1"/>
			<path fill="#FFFFFF" d="M1081.2,78.4c0.5,0.2,0.9,0.2,1.3,0.2c0.4,0.2,0.8,0.4,1.2,0.5c1.1,0.3,2.3,0.5,3.4,0.5
				c5.3,0,10.1-3.6,11.5-8.6c0.9-3.1,0.6-6.4-1-9.2c-1.6-2.9-4.1-4.9-7.2-5.8c-0.4-0.2-0.8-0.2-1.3-0.3c-0.4-0.2-0.8-0.4-1.3-0.6
				c-6.5-1.9-13.2,1.7-15.1,8.2C1071,69.8,1074.7,76.5,1081.2,78.4z M1096.2,62.7c1.3,2.4,1.6,5.2,0.8,7.8c-1.3,4.3-5.3,7.3-9.8,7.3
				c-1,0-2-0.2-2.9-0.4c-2.6-0.7-4.7-2.5-6.1-4.9c-1.3-2.4-1.6-5.2-0.8-7.8c1.3-4.3,5.3-7.3,9.8-7.3c1,0,2,0.2,2.9,0.4
				C1092.7,58.6,1094.8,60.3,1096.2,62.7z"/>
			<path fill="#FFFFFF" d="M1125.8,66.5c-0.4-0.2-0.8-0.2-1.3-0.3c-0.4-0.2-0.8-0.4-1.2-0.6c-6.5-1.9-13.2,1.7-15.1,8.2
				s1.8,13.2,8.2,15.1c0.5,0.2,0.9,0.2,1.3,0.2c0.4,0.2,0.8,0.4,1.2,0.5c1.1,0.3,2.3,0.5,3.4,0.5c3.4,0,6.5-1.5,8.8-3.8
				c1.3-1.3,2.3-3,2.9-4.8c0.7-2.2,0.7-4.4,0.1-6.6c-0.2-0.9-0.6-1.7-1-2.5C1131.5,69.5,1129,67.5,1125.8,66.5z M1122.5,88.3
				c-1,0-2-0.2-2.9-0.4c-2.6-0.7-4.7-2.5-6.1-4.9c-1.3-2.4-1.6-5.2-0.8-7.8c1.3-4.3,5.3-7.3,9.8-7.3c1,0,2,0.2,2.9,0.4
				c2.6,0.7,4.7,2.5,6.1,4.9c1.3,2.4,1.6,5.2,0.8,7.8C1131,85.3,1127,88.3,1122.5,88.3z"/>
			<circle fill="#FFFFFF" cx="1126.3" cy="76.1" r="5.1"/>
			<path fill="#0E5588" d="M1004.5,99.1l2.5-2.3c-0.7-0.4-1.3-0.7-2.1-0.9c-3.6-1-7.3,0.2-9.6,2.9c2.9,0,5.8,1.1,7.9,3.5l1.4,1.6
				c2.2,2.5,3,5.6,2.5,8.6c1.9-1.1,3.4-2.9,4-5.2c0.4-1.5,0.4-3,0.1-4.4l-1.9,1.7L1004.5,99.1z"/>
			<path fill="#0E5588" d="M1013.5,90.8l-6.5,6l-2.5,2.3l5,5.4l1.9-1.7l7.2-6.6C1016.5,94.9,1014.6,93.1,1013.5,90.8z"/>
			<path fill="#2F91CF" d="M973.5,136.4l-4,5.3c-0.9,1.2-0.7,2.9,0.5,3.8c0.5,0.4,1.1,0.6,1.6,0.6c0.8,0,1.6-0.4,2.2-1.1l5.6-7.3
				C977.3,137.9,975.3,137.4,973.5,136.4z"/>
			<path fill="#2F91CF" d="M969.3,132.7c-0.2-0.3-0.5-0.7-0.7-0.9l-5.7,4.5c-1.2,0.9-1.4,2.7-0.5,3.8c0.6,0.7,1.3,1.1,2.2,1.1
				c0.6,0,1.2-0.2,1.7-0.6l6.1-4.8c-0.7-0.4-1.2-0.9-1.7-1.6L969.3,132.7z"/>
			<path fill="#2F91CF" d="M959.5,128c-1.5,0.5-2.2,2.1-1.7,3.5c0.4,1.1,1.5,1.9,2.6,1.9c0.3,0,0.7-0.1,0.9-0.2l6.6-2.4
				c-0.9-1.6-1.4-3.5-1.4-5.3L959.5,128z"/>
			<path fill="#2F91CF" d="M996.5,109.8c-1.1-1.3-2.8-2-4.6-2c-1.6,0-2.9,0.6-4.1,1.6l-9.8,8.8c-1.2,1.1-2,2.6-2,4.3
				c-0.1,1.6,0.5,3.2,1.6,4.4c2.2,2.4,6.2,2.6,8.7,0.5l9.8-8.8c1.2-1.1,2-2.6,2-4.3C998.1,112.6,997.5,110.9,996.5,109.8z"/>
			<path fill="#2F91CF" d="M1004.6,103.8l-1.4-1.6c-2.1-2.3-5-3.5-7.9-3.5c-2.5,0-5.2,0.8-7.2,2.7l-17.9,16.1
				c-2.3,2.1-3.5,5-3.5,7.9c0,1.9,0.4,3.7,1.4,5.3c0.2,0.3,0.4,0.6,0.7,0.9c0.2,0.3,0.4,0.7,0.7,0.9l1.4,1.6
				c0.6,0.6,1.1,1.1,1.7,1.6c0.3,0.2,0.7,0.4,1,0.6c1.8,1,3.8,1.5,5.9,1.4c2.3-0.2,4.7-1,6.5-2.6L1004,119c2-1.7,3-4.1,3.4-6.5
				C1007.6,109.5,1006.8,106.3,1004.6,103.8z M997.3,119.8l-9.8,8.8c-1.5,1.3-3.4,2-5.3,2c-2.3,0-4.4-1-5.9-2.6
				c-1.4-1.6-2.1-3.6-2-5.7s1.1-4.1,2.6-5.5l9.8-8.8c3.1-2.8,8.4-2.5,11.3,0.6c1.4,1.6,2.1,3.6,2,5.7
				C999.8,116.4,998.8,118.4,997.3,119.8z"/>
			<path fill="#2F91CF" d="M997.8,108.6c-2.8-3.1-8.1-3.4-11.3-0.6l-9.8,8.8c-1.6,1.4-2.5,3.4-2.6,5.5s0.7,4.2,2,5.7
				c1.5,1.6,3.7,2.6,5.9,2.6c2,0,3.8-0.7,5.3-2l9.8-8.8c1.6-1.4,2.5-3.4,2.6-5.5C1000,112.2,999.3,110.1,997.8,108.6z M996,118.4
				l-9.8,8.8c-2.4,2.2-6.5,2-8.7-0.5c-1.1-1.2-1.6-2.8-1.6-4.4c0.1-1.6,0.8-3.1,2-4.3l9.8-8.8c1.1-1,2.5-1.6,4.1-1.6
				c1.7,0,3.4,0.7,4.6,2c1.1,1.2,1.6,2.8,1.6,4.4C998,115.8,997.3,117.3,996,118.4z"/>
			<path opacity="0.4" fill="#FFFFFF" enable-background="new    " d="M997.8,108.6c-2.8-3.1-8.1-3.4-11.3-0.6l-9.8,8.8
				c-1.6,1.4-2.5,3.4-2.6,5.5s0.7,4.2,2,5.7c1.5,1.6,3.7,2.6,5.9,2.6c2,0,3.8-0.7,5.3-2l9.8-8.8c1.6-1.4,2.5-3.4,2.6-5.5
				C1000,112.2,999.3,110.1,997.8,108.6z M996,118.4l-9.8,8.8c-2.4,2.2-6.5,2-8.7-0.5c-1.1-1.2-1.6-2.8-1.6-4.4
				c0.1-1.6,0.8-3.1,2-4.3l9.8-8.8c1.1-1,2.5-1.6,4.1-1.6c1.7,0,3.4,0.7,4.6,2c1.1,1.2,1.6,2.8,1.6,4.4
				C998,115.8,997.3,117.3,996,118.4z"/>
			<path fill="#2F91CF" d="M1027,97.9c7.2-1,12.2-7.6,11.3-14.7c-0.6-3.9-2.8-7.2-5.9-9.3c-2.5-1.6-5.6-2.5-8.8-2
				c-7.2,1-12.2,7.6-11.3,14.7c0.2,1.5,0.7,2.9,1.4,4.2c1.1,2.3,2.9,4.1,5.1,5.3c0.3,0.2,0.7,0.4,1,0.6
				C1021.8,97.8,1024.3,98.2,1027,97.9z M1016.5,86c-0.7-4.8,2.7-9.3,7.5-9.9c4.9-0.7,9.3,2.8,9.9,7.5c0.7,4.8-2.7,9.3-7.5,9.9
				c-0.4,0.1-0.7,0.1-1.1,0.1C1020.8,93.7,1017,90.4,1016.5,86z"/>
			<path fill="#2F91CF" d="M1026.2,91.8c3.8-0.5,6.5-4,6-7.9c-0.5-3.4-3.4-6.1-6.9-6.1c-0.3,0-0.7,0-0.9,0.1c-3.8,0.5-6.5,4-6,7.9
				C1018.8,89.6,1022.3,92.3,1026.2,91.8z"/>
			<path fill="#2F91CF" d="M1025.2,93.7c0.4,0,0.7,0,1.1-0.1c4.8-0.7,8.2-5.1,7.5-9.9c-0.7-4.7-5-8.3-9.9-7.5
				c-4.8,0.7-8.2,5.1-7.5,9.9C1017,90.4,1020.8,93.7,1025.2,93.7z M1018.3,85.8c-0.5-3.8,2.2-7.3,6-7.9c0.3-0.1,0.7-0.1,0.9-0.1
				c3.4,0,6.5,2.6,6.9,6.1c0.5,3.8-2.2,7.3-6,7.9C1022.3,92.3,1018.8,89.6,1018.3,85.8z"/>
			<path opacity="0.4" fill="#FFFFFF" enable-background="new    " d="M1025.2,93.7c0.4,0,0.7,0,1.1-0.1c4.8-0.7,8.2-5.1,7.5-9.9
				c-0.7-4.7-5-8.3-9.9-7.5c-4.8,0.7-8.2,5.1-7.5,9.9C1017,90.4,1020.8,93.7,1025.2,93.7z M1018.3,85.8c-0.5-3.8,2.2-7.3,6-7.9
				c0.3-0.1,0.7-0.1,0.9-0.1c3.4,0,6.5,2.6,6.9,6.1c0.5,3.8-2.2,7.3-6,7.9C1022.3,92.3,1018.8,89.6,1018.3,85.8z"/>
			<path fill="#62A9CC" d="M1068.8,20.9L1068.8,20.9l3.8-13.1c0.8-0.2,1.5-0.8,1.8-1.7c0.4-1.4-0.4-2.8-1.7-3.2
				c-1.4-0.4-2.8,0.4-3.2,1.7c-0.2,0.9,0,1.7,0.6,2.4l-3.9,13.1L1068.8,20.9z"/>
			<path fill="#2F91CF" d="M1061.1,29.1c-0.4,0.9-0.5,2-0.2,2.9c0.3,0.9,0.8,1.6,1.6,2c1.6,0.7,3.7-0.2,4.5-2.1
				c0.9-1.9,0.2-4-1.3-4.8c-0.4-0.2-0.7-0.2-1.1-0.2C1063.1,26.7,1061.7,27.6,1061.1,29.1z"/>
			<path fill="#2F91CF" d="M1061.6,38.4c3.7,1.7,8.3-0.4,10.2-4.7c1.7-3.7,0.8-7.8-1.8-9.9l0.7-2.3l-2-0.6l-2.6-0.7l-2-0.6l-1,3.4
				c-2,0.8-3.7,2.5-4.7,4.7c-0.7,1.6-1,3.3-0.8,4.8C1057.8,35,1059.3,37.3,1061.6,38.4z M1060.2,28.7c0.8-1.8,2.5-2.9,4.2-2.9
				c0.6,0,1.1,0.1,1.6,0.3c2,1,2.9,3.7,1.8,6c-0.8,1.8-2.5,2.9-4.2,2.9c-0.6,0-1.1-0.1-1.6-0.3c-1-0.5-1.8-1.3-2.1-2.5
				C1059.6,31,1059.7,29.8,1060.2,28.7z"/>
			<path fill="#2F91CF" d="M1059.8,32.2c0.3,1.1,1.1,2,2.1,2.5c0.5,0.2,1,0.3,1.6,0.3c1.7,0,3.4-1.1,4.2-2.9c1.1-2.4,0.2-5.1-1.8-6
				c-0.5-0.2-1-0.3-1.6-0.3c-1.7,0-3.4,1.1-4.2,2.9C1059.7,29.8,1059.6,31,1059.8,32.2z M1065.6,26.9c1.6,0.7,2.2,2.9,1.3,4.8
				c-0.8,1.9-2.9,2.8-4.5,2.1c-0.7-0.3-1.3-1.1-1.6-2c-0.2-0.9-0.2-2,0.2-2.9c0.7-1.4,2-2.4,3.4-2.4
				C1064.8,26.7,1065.2,26.8,1065.6,26.9z"/>
			<path opacity="0.4" fill="#FFFFFF" enable-background="new    " d="M1059.8,32.2c0.3,1.1,1.1,2,2.1,2.5c0.5,0.2,1,0.3,1.6,0.3
				c1.7,0,3.4-1.1,4.2-2.9c1.1-2.4,0.2-5.1-1.8-6c-0.5-0.2-1-0.3-1.6-0.3c-1.7,0-3.4,1.1-4.2,2.9C1059.7,29.8,1059.6,31,1059.8,32.2
				z M1065.6,26.9c1.6,0.7,2.2,2.9,1.3,4.8c-0.8,1.9-2.9,2.8-4.5,2.1c-0.7-0.3-1.3-1.1-1.6-2c-0.2-0.9-0.2-2,0.2-2.9
				c0.7-1.4,2-2.4,3.4-2.4C1064.8,26.7,1065.2,26.8,1065.6,26.9z"/>
			<path fill="#07548A" d="M1067.8,134.9c-1.4,4.2-0.8,7.9,1.1,10.6l13.1-11.1l2,0.2l-0.5,2.1l-3.9,2.5l-10.3,6.6
				c1.9,2.3,4.7,3.8,8.5,3.8c6.5,0,13.3-4.1,17.5-9.8c0.2-0.2,0.3-0.6,0.6-0.7c1-1.5,1.8-2.9,2.4-4.6c1.1-2.9,1.1-5.7,0.5-8
				l-14.9,18.1l1.8-10l12.4-9.7c-0.2-0.3-0.2-0.7-0.5-1l-12.9,9.2l-9.4-1.8l21.4-8.6c-1.9-2-4.6-3.3-8.2-3.3
				c-8.4,0-17.4,6.7-20.5,15.1v0.1C1067.8,134.7,1067.8,134.8,1067.8,134.9z M1083,139.5l-13,6.6l13.6-8.7L1083,139.5z
				 M1079.3,133.9l2,0.2l-12.4,10.5L1079.3,133.9z"/>
			<polygon fill="#07548A" points="1102.8,120.2 1102.6,120.3 1102.6,120.4 			"/>
			<polygon fill="#2F91CF" points="1075.2,131.3 1084.5,133 1097.6,123.9 1102.6,120.4 1102.6,120.3 1096.6,122.6 			"/>
			<polygon fill="#07548A" points="1103.3,120.8 1103,121.1 1103.1,121.1 			"/>
			<polygon fill="#2F91CF" points="1085.6,134.5 1083.7,144.6 1098.6,126.5 1103.1,121.1 1103,121.1 1098.1,124.9 			"/>
			<polygon fill="#5E9E21" points="1083.5,136.7 1083.8,134.6 1081.8,134.4 1068.8,145.5 1066.2,147.8 1066.3,147.8 1069.2,145.9 
				1079.6,139.3 			"/>
			<polygon fill="#5E9E21" points="1068.8,144.7 1081.3,134.2 1079.3,133.9 			"/>
			<polygon fill="#5E9E21" points="1070,146.2 1083,139.5 1083.5,137.5 			"/>
			<g>
				<path fill="#7CA2BE" d="M1040.3,60l-2.5,4.3c0.3,0.4,26.2,36.7,79.7,36.7c3.8,0,5.2,0,9.1-0.3l0,0l0.5-1.5l0.6-1.8l0.5-1.6l0,0
					C1070,101.6,1040.7,60.3,1040.3,60z"/>
				<path fill="#7CA2BE" d="M1115,109.6c3.5,0,4.8,0,8.5-0.3l0,0l0.2-0.6l0.2-0.4l0,0c-60.5,5.6-89.6-36.9-89.9-37.3l0,0l-0.5,0.9
					l0,0C1033.8,72.3,1061.1,109.6,1115,109.6z"/>
				<path fill="#7CA2BE" d="M1067.8,134.9c0.1-0.2,0.1-0.3,0.1-0.4v-0.1c-33.5-10.2-50-33.2-50.4-33.6l0,0l-0.5,1.1l0,0
					C1017.5,102.4,1034.3,124.7,1067.8,134.9z"/>
				<path opacity="0.53" fill="#7CA2BE" d="M1095.8,139.1c-0.2,0.2-0.3,0.6-0.6,0.7c2.4,0.2,4.7,0.2,7.2,0.2c3.3,0,4.4-0.1,7.9-0.3
					l0,0l0.6-1h-0.1C1105.6,139.2,1100.6,139.3,1095.8,139.1z"/>
			</g>
		</g>
	</g>
</g>
</svg>
