<?xml version="1.0" standalone="no"?>
<?xml-stylesheet type="text/css" href="svg.css"?>
<svg id="graph" version="1.1" xmlns="http://www.w3.org/2000/svg" xmlns:xlink="http://www.w3.org/1999/xlink" x="0px" y="0px"
	 viewBox="0 0 100 100" enable-background="new 0 0 100 100" xml:space="preserve">
<path d="M64.3,28.9c0-2-1.2-3.8-3-4.5S57.4,24,56,25.4c-1.4,1.4-1.8,3.5-1.1,5.3c0.8,1.8,2.5,3,4.5,3C62.1,33.8,64.3,31.6,64.3,28.9
	L64.3,28.9z M61.7,40.2H38.3c-0.7,0-1.3,0.3-1.8,0.8c-0.4,0.5-0.6,1.2-0.5,1.9c1.3,6.7,7.2,11.6,14,11.6s12.7-4.8,14-11.6
	c0.1-0.7-0.1-1.4-0.5-1.9C63,40.5,62.4,40.2,61.7,40.2L61.7,40.2z M35.7,28.9c0,2,1.2,3.8,3,4.5c1.8,0.8,3.9,0.3,5.3-1.1
	c1.4-1.4,1.8-3.5,1.1-5.3c-0.8-1.8-2.5-3-4.5-3C37.9,24,35.7,26.2,35.7,28.9z M84.1,33c-2,2.7-2,6.4,0,9.1c1.5,2,1.9,4.6,1.2,6.9
	c-0.8,2.4-2.6,4.2-5,4.9c-3.2,1-5.4,4-5.4,7.4c0,2.5-1.1,4.8-3.1,6.3c-2,1.5-4.6,1.8-6.9,1c-3.2-1.1-6.7,0.1-8.7,2.8
	c-1.4,2-3.7,3.2-6.2,3.2c-2.5,0-4.8-1.2-6.2-3.2c-1.9-2.7-5.5-3.9-8.7-2.8c-2.3,0.8-4.9,0.4-6.9-1c-2-1.5-3.2-3.8-3.1-6.3
	c0-3.4-2.1-6.4-5.4-7.4c-2.4-0.7-4.2-2.6-5-4.9c-0.8-2.3-0.3-4.9,1.1-6.9c2-2.7,2-6.4,0-9.1c-1.5-2-1.9-4.6-1.1-6.9
	c0.8-2.4,2.6-4.2,5-4.9c3.2-1,5.4-4,5.4-7.4c0-2.5,1.1-4.8,3.1-6.3c2-1.5,4.6-1.8,6.9-1c0.8,0.3,1.6,0.4,2.4,0.4
	c2.5,0,4.8-1.2,6.2-3.2c1.4-2,3.7-3.2,6.2-3.2c2.5,0,4.8,1.2,6.2,3.2c1.4,2,3.8,3.2,6.2,3.2c0.8,0,1.7-0.1,2.4-0.4
	c2.3-0.8,4.9-0.4,6.9,1c2,1.5,3.2,3.8,3.1,6.3c0,3.4,2.1,6.4,5.4,7.4c2.3,0.7,4.2,2.6,4.9,4.9C86,28.5,85.6,31,84.1,33z M37.9,75.6
	c-0.1-0.1-0.2-0.2-0.4-0.2h-0.1c-4,1.4-8.5,0.9-12.1-1.3l-5.5,15.9c-0.3,0.9-0.1,1.9,0.6,2.6c0.7,0.7,1.7,0.9,2.6,0.5l7.8-3.2
	c1.1-0.4,2.2,0,2.8,1l4.1,7.3c0.5,0.8,1.4,1.3,2.4,1.3c1-0.1,1.8-0.7,2.1-1.7l5.6-16.2v0C43.8,81.1,40.3,78.9,37.9,75.6L37.9,75.6z
	 M80.2,90.1c0.3,0.9,0.1,1.9-0.6,2.6c-0.7,0.7-1.7,0.9-2.6,0.5L69.2,90c-1-0.4-2.2,0-2.8,1l-4.1,7.3c-0.5,0.8-1.4,1.3-2.4,1.3
	c-1-0.1-1.8-0.7-2.1-1.7l-5.6-16.2c3.9-0.6,7.5-2.8,9.8-6c0.1-0.1,0.2-0.2,0.4-0.2h0.1c4,1.4,8.5,0.9,12.1-1.3L80.2,90.1z"/>
</svg>
