<?xml version="1.0" standalone="no"?>
<?xml-stylesheet type="text/css" href="svg.css"?>
<!DOCTYPE svg PUBLIC "-//W3C//DTD SVG 1.1//EN" "http://www.w3.org/Graphics/SVG/1.1/DTD/svg11.dtd">
<svg version="1.1" id="Layer_1" xmlns="http://www.w3.org/2000/svg" xmlns:xlink="http://www.w3.org/1999/xlink" x="0px" y="0px"
	 viewBox="252.5 -16.5 452.9 563.8" enable-background="new 252.5 -16.5 452.9 563.8" xml:space="preserve">
<g id="sStroke">
	<path fill="#FFFFFF" stroke="#FFFFFF" stroke-width="20" stroke-miterlimit="10" d="M618.7,342.8l2.3,0.4
		c11.6,1.5,21.8-7.2,23.2-18.9l5.1-47.2c0.8-6.5-1.5-12.5-5.8-16.9c-0.1-10-8.2-18-18.1-18c-2.3,0-4.5,0.4-6.5,1.2l-9-15
		c3.6-4.7,5.9-11.7,5.9-19.4c0.1-11.7-5-21.6-12-25c-1.4-2.1-5.1-7.2-9.4-8.4c-2-17-4.1-35.5-6.1-55.4c-1.5-14.9-4-28.1-7.2-39.6
		c3.3-3.1,5.4-8.6,5-14.8c-0.3-5.9-2.6-10.9-6-13.7l-0.5-6.8l-4.3,0.3l-2-26.4c1.5-0.8,2.6-2.5,2.6-4.5c0-2.8-2.3-5.1-5.1-5.1
		s-5.1,2.3-5.1,5.1c0,2.2,1.4,4.1,3.4,4.8l2,26.4l-4,0.3C540.4-0.8,499.7-3.9,499.7-3.9c-35.2-2.2-58.3,18.7-73.2,49.9l-3.6-0.1
		l1-26.9c1.9-0.8,3.1-2.6,3.1-4.7c0-2.8-2.3-5.1-5.1-5.1c-2.8,0-5.1,2.3-5.1,5.1c0,2,1.2,3.7,2.9,4.5l-0.9,27l-4.8-0.2l-0.3,7.3
		c-3,2.9-5.1,7.6-5.4,13.1c-0.4,6.6,2,12.4,5.6,15.4c-7.9,29.6-11.4,63-12.6,93.8c-3.2,1.8-5.9,4.5-7.4,6.3c-0.1,0-0.3,0-0.4,0
		c-10,1.3-16.6,13.9-14.8,28.1c0.1,0.6,0.1,1.1,0.2,1.6c-4.1,3.1-8.4,6.3-12.7,9.9C320.4,258.9,261.6,386,265.2,402.7
		c55.9,0,95.9,7.2,111,14.5c15.3,7.2,48.6,28.3,72.6,29c55.2,2.9,79.1-25.4,116.9-25.4c37.8,0,105.3,20.3,112.5,21.8
		C657.1,411,635.9,376.1,618.7,342.8z"/>
	<path fill="#FFFFFF" d="M622.5,370c0,0,24.3,1.8,26.9-13.1L636,326.4l-37.7,10.9l-10.9,32.7L622.5,370z"/>
</g>
<g id="Layer_1_1_">
	<g id="scape">
		
			<linearGradient id="SVGID_1_" gradientUnits="userSpaceOnUse" x1="28.4341" y1="-169.8987" x2="28.4341" y2="-208.4287" gradientTransform="matrix(7.2594 0 0 7.2594 265.2211 1680.297)">
			<stop  offset="0" style="stop-color:#FF0000"/>
			<stop  offset="0.9996" style="stop-color:#560202"/>
		</linearGradient>
		<path fill="url(#SVGID_1_)" stroke="#FFFFFF" d="M480.8,166.7c-39.2,7.2-69,17.4-114.7,54.5C320.4,258.9,261.6,386,265.2,402.7
			c55.9,0,95.9,7.2,111,14.5c15.3,7.2,48.6,28.3,72.6,29c55.2,2.9,79.1-25.4,116.9-25.4s105.3,20.3,112.5,21.8
			c-45.8-68.3-92.2-152.4-96.5-201.8c-4.4-49.4,9.4-60.3-0.7-66c-29-10.2-67.5,18.2-86.4,16C475.7,189.9,488.8,166,480.8,166.7
			L480.8,166.7z"/>
	</g>
	<g id="sLayer_12">
		<path fill="#FFFFFF" d="M419.9,427.3c-13.1,27.6-9.4,68.3,19.6,83.5c28.3,14.5,58.1,5.8,72.6-21c0,0.7-0.7,0.7-0.7,1.5
			c-14.5,27.6-44.3,37.8-74,22.5c-29-15.3-33.4-56.6-18.9-84.9C419.9,428.1,419.9,428.1,419.9,427.3L419.9,427.3z M450.4,384.5h0.7
			c-20.3,5.8-32.7,24.7-28.3,43.5c5.1,18.2,24.7,29,45.8,24.7h-0.7c-21,5.1-42.1-5.1-46.5-24C416.2,409.9,429.3,390.4,450.4,384.5
			L450.4,384.5z M525.8,450.6c26.9-13.8,37.8-45.8,25.4-73.4c0,0.7,0.7,0.7,0.7,1.5c13.8,27.6,2.9,61-24.7,74.7
			c-27.6,13.8-61,2.9-74.7-24.7c0-0.7-0.7-0.7-0.7-1.5C466.3,453.5,499,463.6,525.8,450.6L525.8,450.6z M456.8,370
			c0,0,0-0.7,0.7-0.7c-6.5,18.2,2.2,37.8,19.6,45c18.2,7.2,37.8-1.5,45.8-18.9v0.7c-7.2,18.2-27.6,26.9-45.8,19.6
			C458.3,408.5,449.6,388.1,456.8,370L456.8,370z M483,323.6c-2.9-2.9-5.1-8.7-5.1-13.1c-0.7-11.6,8.7-24.7,24-26.1h0.7
			c-15.3,1.5-24,14.5-22.5,26.1c0,4.4,2.9,8.7,5.8,11.6l0,0c5.1,5.8,13.8,9.4,23.2,8.7C499,331.6,488.8,328.6,483,323.6
			c-14.5,5.1-24,17.4-21,29.7c2.9,12.3,18.2,19.6,34.8,16h-0.7c-16.7,4.4-32.7-2.9-35.6-15.3C457.6,341,467.8,327.9,483,323.6
			L483,323.6z M533.1,299.6c2.2,8-0.7,21.8-10.9,25.4c9.4-2.9,12.3-17.4,10.2-25.4c-2.2-7.2-14.5-15.3-24.7-15.3
			C517.9,283.6,530.9,291.6,533.1,299.6L533.1,299.6z M540.4,364.2c-9.4,13.8-32,20.3-45.8,10.9c13.8,8.7,34.8,1.5,44.3-12.3
			c9.4-13.8,5.8-32.7-7.2-42.1c0,0,0.7,0,0.7,0.7C546.1,331.6,549.8,350.4,540.4,364.2L540.4,364.2z M554.9,523.2
			c-26.1,25.4-68.3,25.4-93.6-1.5c-0.7-0.7-0.7-0.7-1.5-1.5c25.4,24.7,66.8,25.4,92.9,0c26.1-25.4,26.9-66,2.2-92.9
			c0.7,0.7,0.7,0.7,1.5,1.5C581.7,455.7,581,497.8,554.9,523.2L554.9,523.2z M421.3,504.3c10.2,11.6,23.2,18.2,37,20.3
			c26.9,29,69,29.7,98,4.4c29.7-26.1,34.8-71.9,2.9-105.3c-0.7-0.7-0.7-0.7,0,0c5.8-16.7,4.4-44.3-12.3-55.9c0.7,0,0.7,0.7,0,0
			c9.4-22.5,4.4-38.5-12.3-50.1c2.2-6.5,5.8-16.7-2.2-26.9c-8.7-10.9-32.7-13.8-46.5-2.2c-12.3,10.2-10.9,23.2-7.2,32
			c-12.3,5.8-28.3,16-21,39.2c-5.1,6.5-6.5,11.6-7.2,19.6c-6.5,1.5-13.1,4.4-18.9,9.4c-11.6,10.2-16,26.1-13.1,40.7
			C401,451.3,401.7,482.5,421.3,504.3L421.3,504.3z"/>
	</g>
	<g id="sjet">
		<path fill="#2F91CF" d="M583.2,246.6c9.4,64.6,1.5,98-73.4,100.9c-85.7,3.6-90.8-37-90.8-37s-3.6-25.4-5.1-59.6
			C411.1,179.1,580.3,225.5,583.2,246.6z"/>
		<path opacity="0.25" fill="#0E5588" enable-background="new    " d="M581,313.4c0,0.7-0.7,1.5-0.7,2.2c-1.5,3.6-3.6,7.2-6.5,10.2
			c-23.2,10.9-55.2,16.7-88.5,13.8c-21-2.2-39.9-6.5-56.6-13.8c-5.1-5.1-7.2-9.4-8-13.1c18.9,8.7,41.4,15.3,66,17.4
			C523,333.7,557,327.2,581,313.4z"/>
	</g>
	<g id="sbody">
		<path fill="#0E5588" d="M499.7-3.9c0,0,77,5.8,88.5,124.1c13.1,136.5,38.5,204-78.4,204c-100.9,0.7-106-47.9-106-47.9
			S373.4-11.9,499.7-3.9z"/>
	</g>
	<g id="scape_1_">
		<path fill="#560202" d="M392.3,183.5c0,0,18.2-26.1,30.5,5.1c0,0,12.3,24-19.6,2.2"/>
		<path fill="#560202" d="M604.2,184.9c0,0-13.8-24-22.5,4.4c0,0-9.4,21.8,14.5,2.2"/>
	</g>
	<g id="sLines" opacity="0.48">
		<path fill="#FFFFFF" d="M502.1,173.7c-30.2,0-67.4-6.5-106.7-28.1l5.3-9.6c53.7,29.6,103,29.4,134.8,24
			c34.4-5.8,56.2-18.7,56.4-18.8l5.6,9.4c-1,0.6-23.8,14-60.2,20.2C527.2,172.5,515.3,173.7,502.1,173.7z"/>
		<path fill="none" stroke="#FFFFFF" stroke-width="3" stroke-miterlimit="10" d="M602.1,238.6c0,0-92.9,53.7-204-5.8"/>
		<path fill="none" stroke="#FFFFFF" stroke-width="3" stroke-miterlimit="10" d="M594.1,169c0,0-88.5,54.5-193.1-4.4"/>
	</g>
	<g id="sL_Arm">
		<line fill="none" stroke="#0E5588" stroke-width="15" stroke-miterlimit="10" x1="401.7" y1="208.8" x2="381.4" y2="252.4"/>
		
			<ellipse transform="matrix(-0.9925 0.1223 -0.1223 -0.9925 815.6478 364.7335)" fill="#2F91CF" cx="396.6" cy="207.4" rx="18.2" ry="26.1"/>
		
			<ellipse transform="matrix(-0.9925 0.1223 -0.1223 -0.9925 815.6478 364.7335)" opacity="0.4" fill="none" stroke="#FFFFFF" stroke-width="4" stroke-miterlimit="10" enable-background="new    " cx="396.6" cy="207.4" rx="10.9" ry="15.3"/>
		<circle fill="#0E5588" cx="375.5" cy="261.1" r="18.2"/>
		
			<line fill="none" stroke="#2F91CF" stroke-width="12" stroke-linecap="round" stroke-linejoin="round" stroke-miterlimit="10" x1="403.1" y1="332.3" x2="410.4" y2="349"/>
		
			<line fill="none" stroke="#2F91CF" stroke-width="12" stroke-linecap="round" stroke-linejoin="round" stroke-miterlimit="10" x1="392.3" y1="338.8" x2="395.2" y2="356.2"/>
		
			<line fill="none" stroke="#2F91CF" stroke-width="12" stroke-linecap="round" stroke-linejoin="round" stroke-miterlimit="10" x1="380.6" y1="338" x2="377.7" y2="356.2"/>
		<path fill="#2F91CF" d="M393.7,341.7l-4.4,0.7c-11.6,2.9-22.5-4.4-25.4-16l-10.2-46.5c-2.9-11.6,4.4-22.5,16-25.4l4.4-0.7
			c11.6-2.9,22.5,4.4,25.4,16l10.2,46.5C412.6,327.9,405.3,339.5,393.7,341.7z"/>
		<path opacity="0.4" fill="none" stroke="#FFFFFF" stroke-width="4" stroke-miterlimit="10" enable-background="new    " d="
			M387.9,325L387.9,325c-7.2,1.5-15.3-2.9-16.7-10.2l-5.8-25.4c-1.5-7.2,2.9-15.3,10.2-16.7l0,0c7.2-1.5,15.3,2.9,16.7,10.2
			l5.8,25.4C400.3,315.5,395.2,322.8,387.9,325z"/>
	</g>
	<g id="sL_Antenna">
		<g>
			<g>
				
					<rect x="419.2" y="14.3" transform="matrix(-0.9993 -3.629689e-002 3.629689e-002 -0.9993 841.0972 83.77)" fill="#62A9CC" width="4.2" height="40"/>
				<g>
					<circle fill="#62A9CC" cx="422" cy="14.3" r="5.1"/>
				</g>
			</g>
		</g>
		
			<ellipse transform="matrix(-0.9983 -5.852349e-002 5.852349e-002 -0.9983 835.0596 157.593)" fill="#2F91CF" cx="419.8" cy="66.6" rx="11.6" ry="16.7"/>
		
			<rect x="413.7" y="45.8" transform="matrix(-0.9993 -3.848666e-002 3.848666e-002 -0.9993 838.6996 125.1965)" fill="#2F91CF" width="13.8" height="17.4"/>
		
			<ellipse transform="matrix(-0.9983 -5.852349e-002 5.852349e-002 -0.9983 827.8539 157.3264)" opacity="0.4" fill="none" stroke="#FFFFFF" stroke-width="2" stroke-miterlimit="10" enable-background="new    " cx="416.2" cy="66.5" rx="5.8" ry="8.7"/>
	</g>
	<g id="sface">
		<circle fill="#FFFFFF" cx="529.4" cy="118.8" r="10.2"/>
		<circle fill="none" stroke="#FFFFFF" stroke-width="3" stroke-miterlimit="10" cx="529.4" cy="118.8" r="21.8"/>
		<circle fill="none" stroke="#FFFFFF" stroke-width="3" stroke-miterlimit="10" cx="456.8" cy="119.6" r="21.8"/>
		<circle fill="#FFFFFF" cx="456.8" cy="119.6" r="10.2"/>
		<path fill="#FFFFFF" d="M436.6,119.6c0-12.3,10.2-21.8,21.8-21.8c2.2,0,3.6,0,5.8,0.7c-3.6-1.5-7.2-2.9-10.9-2.9
			c-13.1,0-24,10.9-24,24s10.9,24,24,24c3.6,0,7.2-0.7,10.9-2.9c-2.2,0.7-4.4,0.7-5.8,0.7C446,141.3,436.6,131.9,436.6,119.6z"/>
		<path fill="#FFFFFF" d="M550.5,118.8c0-12.3-10.2-21.8-21.8-21.8c-2.2,0-3.6,0-5.8,0.7c3.6-1.5,7.2-2.9,10.9-2.9
			c13.1,0,24,10.9,24,24s-10.9,24-24,24c-3.6,0-7.2-0.7-10.9-2.9c1.5,0.7,3.6,0.7,5.1,0.7C540.4,140.6,550.5,130.5,550.5,118.8z"/>
	</g>
	<g id="sR_Arm">
		
			<rect x="581.6" y="226.5" transform="matrix(-0.5123 -0.8588 0.8588 -0.5123 716.9579 870.6312)" fill="#0E5588" width="48.2" height="10.4"/>
		
			<ellipse transform="matrix(1 6.068363e-003 -6.068363e-003 1 1.2786 -3.6266)" fill="#2F91CF" cx="598.3" cy="208.9" rx="17.4" ry="26.1"/>
		
			<ellipse transform="matrix(1 6.068363e-003 -6.068363e-003 1 1.2786 -3.6266)" opacity="0.4" fill="none" stroke="#FFFFFF" stroke-width="4" stroke-miterlimit="10" enable-background="new    " cx="598.3" cy="208.9" rx="10.9" ry="15.3"/>
		<circle fill="#0E5588" cx="625.3" cy="260.4" r="18.2"/>
		
			<line fill="none" stroke="#2F91CF" stroke-width="12" stroke-linecap="round" stroke-linejoin="round" stroke-miterlimit="10" x1="606.4" y1="334.4" x2="600.6" y2="351.8"/>
		
			<line fill="none" stroke="#2F91CF" stroke-width="12" stroke-linecap="round" stroke-linejoin="round" stroke-miterlimit="10" x1="617.3" y1="338.8" x2="616.6" y2="356.9"/>
		
			<line fill="none" stroke="#2F91CF" stroke-width="12" stroke-linecap="round" stroke-linejoin="round" stroke-miterlimit="10" x1="628.9" y1="337.3" x2="634" y2="354.8"/>
		<path fill="#2F91CF" d="M616.6,342.4l4.4,0.7c11.6,1.5,21.8-7.2,23.2-18.9l5.1-47.2c1.5-11.6-7.2-21.8-18.9-23.2l-4.4-0.7
			c-11.6-1.5-21.8,7.2-23.2,18.9l-5.1,47.2C596.2,330.8,604.9,341,616.6,342.4z"/>
		<path opacity="0.4" fill="none" stroke="#FFFFFF" stroke-width="4" stroke-miterlimit="10" enable-background="new    " d="
			M620.2,325L620.2,325c7.2,0.7,14.5-5.1,15.3-12.3l2.9-26.1c0.7-7.2-5.1-14.5-12.3-15.3l0,0c-7.2-0.7-14.5,5.1-15.3,12.3l-2.9,26.1
			C607.2,317,613,324.2,620.2,325z"/>
	</g>
	<g id="sR_Antenna">
		<g>
			<g>
				
					<rect x="552.3" y="32.2" transform="matrix(-7.254212e-002 -0.9974 0.9974 -7.254212e-002 579.6229 607.5593)" fill="#62A9CC" width="40.1" height="4.2"/>
				<g>
					<circle fill="#62A9CC" cx="570.8" cy="15" r="5.1"/>
				</g>
			</g>
		</g>
		
			<ellipse transform="matrix(-0.9985 5.433401e-002 -5.433401e-002 -0.9985 1151.734 101.8579)" fill="#2F91CF" cx="574.5" cy="66.6" rx="11.6" ry="16.7"/>
		
			<rect x="566.4" y="46" transform="matrix(-0.9972 7.435383e-002 -7.435383e-002 -0.9972 1149.0887 66.684)" fill="#2F91CF" width="13.8" height="17.4"/>
		<path opacity="0.4" fill="#FFFFFF" enable-background="new    " d="M577.6,76c-3.5,0-6.5-4-6.8-9.1c-0.3-5.2,2.4-9.5,6-9.8
			c3.6-0.2,6.8,3.8,7,9.1c0.1,2.4-0.4,4.8-1.5,6.6c-1.1,1.9-2.7,3-4.5,3.1C577.8,76,577.7,76,577.6,76z M577.1,58.6
			c-0.1,0-0.1,0-0.2,0c-2.8,0.1-4.9,3.9-4.7,8.3c0.2,4.3,2.7,7.9,5.6,7.7c1.3-0.1,2.5-0.9,3.4-2.4c0.9-1.6,1.4-3.7,1.3-5.9
			C582.2,62,579.8,58.6,577.1,58.6z"/>
	</g>
	<g id="sLayer_11">
		<circle fill="#07548A" cx="491" cy="253.1" r="27.6"/>
		<g>
			<g id="Group-9_1_" transform="translate(177.222222, 0.488889)">
				<g id="Clip-8_3_">
				</g>
				<defs>
					<filter id="Adobe_OpacityMaskFilter" filterUnits="userSpaceOnUse" x="294.3" y="226.4" width="43.5" height="24">
						<feColorMatrix  type="matrix" values="1 0 0 0 0  0 1 0 0 0  0 0 1 0 0  0 0 0 1 0"/>
					</filter>
				</defs>
				<mask maskUnits="userSpaceOnUse" x="294.3" y="226.4" width="43.5" height="24" id="mask-2_2_">
					<g filter="url(#Adobe_OpacityMaskFilter)">
						<polygon id="path-1_2_" fill="#FFFFFF" points="337.9,226.4 294.3,226.4 294.3,250.4 337.9,250.4 						"/>
					</g>
				</mask>
				<polygon id="Fill-7_1_" mask="url(#mask-2_2_)" fill="#2F91CF" points="312.4,250.4 294.3,247.5 337.9,226.4 				"/>
			</g>
			<polygon id="Fill-10_1_" fill="#2F91CF" points="492.4,253.8 496.1,272.7 516.4,228.5 			"/>
			<polygon id="Fill-12_1_" fill="#5E9E21" points="489.5,253.8 485.9,253.8 464.9,278.6 484.4,262.6 490.3,258.2 			"/>
			<polygon id="Fill-14_1_" fill="#5E9E21" points="484.4,253.1 480.8,252.4 468.5,272.7 			"/>
			<polygon id="Fill-16_1_" fill="#5E9E21" points="491,258.9 491,263.3 471.4,275.6 			"/>
		</g>
		<g id="Clip-8_1_">
		</g>
	</g>
</g>
</svg>
